<svg xmlns="http://www.w3.org/2000/svg" xmlns:xlink="http://www.w3.org/1999/xlink" width="1153.055" height="477.978" viewBox="0 0 1153.055 477.978">
  <defs>
    <clipPath id="clip-path">
      <rect id="長方形_4" data-name="長方形 4" width="1143.218" height="188.515" fill="#fff"/>
    </clipPath>
  </defs>
  <g id="グループ_4" data-name="グループ 4" transform="matrix(0.966, -0.259, 0.259, 0.966, 0, 295.887)">
    <g id="グループ_3" data-name="グループ 3" transform="translate(0 0)" clip-path="url(#clip-path)">
      <path id="パス_3" data-name="パス 3" d="M133.9,48.132l1.231-1.338.113-.22.22-.339-.113-.666.113-.333.779-.339.559-.666L138.372,43l1.672-1.338h.226l.666-.672v-.22l.119-.559.666-.785.446-.113h.226l1.564-1.672,1.225-1.677,1.79-1.9,2-2.57.452-.892.9-1.005.553-.333,1.672-1.564,1.011-1.118,2.451-2.344,1.677-2.349,3.575-3.01.22-.113.452-.333.22-.339.339-.785.666-.333.339-.113.226-.333h-.565l-.446-.113-.446.113-.22-.113h-.339l-.446.113-.107.113-.785.446-.113.113-.333.107-.113.113-.779.565-1.79.22-2.79.892c-2.8,1.677-5.478,3.242-8.375,4.8l-.339.226-.446.22c-6.026,3.129-12.4,6.144-18.653,9.047l-1.9,1.338-.22.339-.333.107h-.559l-.565.339h-.22l-.107.113-1.118.446-.452.113-3.01,1.225-1.118.446-1.005.672-.779.113-.452.107a6.745,6.745,0,0,1-1.338.559v.113l-.333.22H112.8c-3.242,1.344-6.478,2.462-9.719,3.8l-.226.22-2.677,1.011h-.22l-.339.113-.785.446-5.021,1.559-3.688,1.338-.333.226-1.451.559-1.564.892L86,50.149l-1.011.446-1.338.22-1.559.672-2.8.446-.22.22-.892.113-1.113.785-.119.333-.333-.22-.666-.339a1.583,1.583,0,0,1-.672.226l-.226.113H74.94l-.785.446-.333.22h-.785l-1.672.446-.113.113L64.775,56.4H63.99l-2.79.892-.333.226-.446.226H59.077l-1.9.333-6.7,9.6V67.9l-.672,1.338-.666.672-.339.22-2.457,3.688-.113.22-.333.446c-.779,1.124-1.564,2.123-2.231,3.242l-.339.559-1.005,1.344a15.752,15.752,0,0,0-1.118,1.785l-.107.333L40.1,83.316l-.446.446V84.1l-.446.666-.446.446v.226L38.419,86l-.559.446-3.123,5.02v.226l-.672,1.118v.113l-.559.892v1.005l-.672.333-.559,1.225-1.231,1.011h-.107L30.49,98.84l-.22,1.672-1.231,1.118-.672,1.005L26.8,105.99l-.333,1-1.451,2.123-.226,1.231-1.559,2.677-.559,1.677-1.564,3.8-1.564,4.134-.779,1.005-.339,1.338-2,3.575-.9,2.231v.113c-.446,1.564-1,2.9-1.564,4.354v.226l.565.22.107.339H14.3l1,1.785.559,1.9-.113.892-.328,1.79-1.9,1.338-1.338-.22-1.344-.333-.553-.672-.22-.779-.452.107-.113-.333h.339l.107-.333V140.6l-.107-1.113.226-.559a18.964,18.964,0,0,1,.44-3.242l-.113-1.113.565-1.231.107-.22,1.005-2.9v-.452l.113-.333-.113-.559.339-.553.22-.9.226-.446.553-.672,1.451-3.236.113-.446.113-.672.446-1.338.333-.559.119-.666.22-.452,1.785-5.359v-.559l.226-.666-.113-.785.226-.446.333-.779.22-.452.785-4.128-.226-1.344.333-.666.339-1.231.22-1.564v-.666l.119-.446.333-5.365V91.8l-.226-1.338-.559-1.231-.107-.892V87.223l-.119-.559a12.01,12.01,0,0,0-4.8-5.585l-.892-.333-.446-.446a.111.111,0,0,0-.113-.113l-.779.113-1.344-1.005L9.719,78.289,7.6,77.51l-.785-.452-.666-.333L5.7,76.392a8.582,8.582,0,0,1-3.575-2.457H1.79L.226,71.7l-.113-.107.113-.113L0,70.7l.785-.678H.9l.107-.107.226-.339.113.113.107-.113.785-.22L2.8,68.8l.226-.113.446-.559V67.9l.333-.333.44-.559.678-.333h.107v-.113h.339l.107-.226v-.226L5.591,66v.113L6.257,66v.113H6.7l.22.119h.565l.553-.119.892-.666h1.79c.107,0,.107,0,.226-.113l.22-.113h.107l2.8-.892.226-.113,1-.559.446-.333,1.005-.22.452.107.22.226,2.682-.559.339-.22.774-.113c3.575-.785,7.375-1.457,11.283-2.123l.559-.226.333-.22.226.113.446-.226,1.118-.113,1.113-.333h.226l1.005-.226,1.231-.107.553-.226.226-.113,1.225.226,4.806-.779a.418.418,0,0,0,.226-.113l.22-.113.107.113,1.005-.226,1.011-.559.446-.226.666-.22.339-.226h.22l.226-.107.666.22,1.457.113c1.785-.333,3.462-.779,5.021-1.118l.672-1.225,1.225-1.677,1.344-2.01,1-1.9.339-.446v-.226L64.668,44v-.339l.22-.333,2.57-3.688V39.2l-.113-.446.559-.892.666-.333.339-.113.333-.666.22-.339.119-.22h.107l.226-.333.779-1.457-.113-.333.339-.672-.113-.333.113-.113.113-.333.553-.559.226-1.231.666-.666H72.7l2.118-4.467.785-1.005v-.672l.339-.666v-.785l.226-.892.22-.446.779-.785.22-.559.339-.553.666-.672.119-.333.553-1.118.446-1.005.339-1.005.22-.446.226-.779.22-.339-.107-.672.107-.333.785-.333.559-.672.892-.779.107-.113v-.113l.119-.113-.339-1.677.22-1.892.119-.785.774-2.01,1.57-1.451h1.113l.892.446.226.559v.22l.226-.333h.666l.785.333.339,2.908-1.124,2.57-.107.559v.666l-.892,1.451-1.344,1.79-1.672,1.672-1.118,1.338v.113l-.226.333.339.565v.446l-.446,1.225-.672,1.005-.113.672-.785.107L80.966,22l-.446.559-3.575,5.472-.107.672-.666.559-.339.779-.785,1.344-.446.553-.446.672-.107.113c-.119.107-.226.22-.226.333l-.559,1.225-.785,1.124h-.107v.107l.226.226-.119.113h-.107l-.446.553h-.113l-.559.559H71.14l-1.113,1.785-.226.226v.559l-.446.446.107.113-.22.113L66.565,44h.107l-3.9,6.252-.9.785L59.2,55.282l.666-.22,4.354-1.118v-.113L65,53.385l1.011-.107,1.672-.452,2.01-.446,2.457-.672.333-.22,1.124-.446,1.338-.559.666-.226.113-.107,2.01-.113c1.338-.333,2.682-.779,4.021-1.225l.22-.226H82.2l1.231-.339.328-.22,1.457-.672,4.8-1.564,1.564-.553.559-.113.226-.113v.113l.785-.226,4.467-1.785,1.559-.559,1.338-.113,5.7-2.01.446-.446.666-.446,1.124-.113,1.785-1.118,2.118-.446.452-.107h.113a14.708,14.708,0,0,1,2-.785l1.231-.666,1.231-.785,2.231-.672,3.016-1.113.44-.226,3.693-1.564.107-.22.339-.226.779-.559,3.462-1.225c.113,0,.226-.113.333-.113l.446-.559h.672c3.129-1.451,6.139-3.016,9.267-4.58l1.344-1.005,1-.666.785-.333.446-.339,5.252-3.129.107-.107.559-.226,5.026-2.457.226-.333.333-.226,1.231-.672.666-.107.226.107.333-.22.892-.559.113-.113.22-.333.339-.113.559-.339,4.247-2.9.446-.559.22-.779V8.488l.333-.113.446-.22.785-.113,1.79-.559.22-.107.892-1.118,1.457-2.236,1-.779,2.118-2.01L179.027,0l1.22.785.9.892-.113.892-1.338,1.338-.446.785-.22.339a23.12,23.12,0,0,1-4.14,3.789l-.553,1.124L172.662,11.5l-.9.892h-.113l-.559,1.231-1,.785-.339.666-.339.113-.107.113-.339.107H168.3l-.785.559-.446.226-2.344,2.457v.113l-.672.892h-.328l-2.908,2.9-.666.892-.226.339-.226.107-1.338,1.344-.333.446-.559.333-1.785,1.79-1.79,2.118-1.564.892-1.005.9-.892.892-1.457,2.01-.441.446-1.344,1.451-.333.113-.779.779c-.9.892-1.677,1.785-2.344,2.57l-.452.892-.226.559-.892.446-1.113,1.231-.785.779-.553.785-.446.559-.559.666h-.119l-1.338,1.564-.107.22-.113.446L134.8,50.369l.107.226h-.226l-.333.333-.226.333h-.107v.226l-2.908,3.349L127.76,58.97l-.107.446-.339.113c0,.113-.107.22-.22.333v.226l-.559.553c-1.451,1.9-3.016,3.8-4.36,5.7l.119.226V66.9l-.339.779-.446.446-.113.452-.672.107-.333.446-.333.339-1.785,2.123-.785,1.338-.559.666v.113l-.113.113-.333.446-.226.333-.446.452a2.547,2.547,0,0,0-.446.666l-.333.339-2.118,3.123-.113.452-1.011,1.446h-.22c-.779,1.231-1.564,2.344-2.231,3.575V85.1l-2.79,3.8-.339.559v.333h-.226l-.333.333-.672,1.118v.22l-.892,1.124q-2.846,4.346-5.7,9.041v.113l-.333.559-.113.559-.553.446c-.9,1.451-1.79,2.9-2.575,4.467h.119l-.119.446H94.48c0,.113,0,.22-.113.22l.113.446-.666.559c-1.79,3.355-3.467,6.924-4.913,10.391l-.113.333-.226.22-1.785,4.58v.333l-.22.226a44.8,44.8,0,0,0-1.79,5.139l-.113.892-.113.785v.892l-.666,2.79v.22l-.672,1.344-.113,1.225.226.226-.226.22-.226.672-.44,2.457v1.677l-.113.446H82.2v3.908l.113.113.226,1,.107.339.113.446-.113.226.22.779.339.446.113,1.338.333,1.011.333,1.785-.107.22.107.226.232.559v.559l.22.892.333.339.666.107.339.339.226.666-.119.672-.446.107H84.88l.226.672-.226.672v.22l-.339.226-.666-.446-.446-1.564-.226-.333.113-.339a.657.657,0,0,1-.113-.446l-.22-.446v-.339l-.339-.553-.107-.785-.446-.553-.226-1.118v-1.225a18.019,18.019,0,0,1-1.005-7.6v-.672l-.339-.446-.107-.339.446-.779V143.4l.446-2.01.666-2.123.339-.22v-.785l.226-.892.446-1.338.333-1.9.22-1.118.113-.333v-.672l.333-1.451.232-.892.553-2.57a26.564,26.564,0,0,1,1.005-3.349v-.333l.333-.678,1.118-2.451L87,119.5l.107-.333.672-.339.113-.22c.666-1.564,1.559-3.349,2.451-5.139l.339-1.005.339-.446.107-1.225.226-.333.559-.785.553-.446.339-.672.339-.446c1-1.785,2-3.688,3.117-5.472l.119-.333.333-.559.22-.22,1.005-1.9.785-2.01,1.113-1.785.452-.339,1.338-1.9.226-.333,1.338-2.123v-.113l.22-.779.452-.559.22-.779.339-.785.333-.333.779-.559.785-1.118c1.446-2.344,3.016-4.58,4.574-6.924l.339-.779.779-1.231.785-.779.559-.672-.119-.107v-.785l-.22.113v-.226h.22l.119-.226.107-.333.226-.446.779-1.118.559-1.785.672-.559.22-.226.559-.666.446-.672.452-.446-.339-.113.113-.333.226-.22.22-.113v.113l-.113.333.785-.779.107-.339.339-.107,1.231-1.57.328-.446.672-.779.559-.779,1.451-1.677.107-.339,3.355-4.021.339-.446.553-.666.113-.226.785-1.113.446-.113.107-.333,1.451-1.677.226-.113L131,51.82l.226-.446.446-.446h.107l.339-.559.446-.446.113-.446.553-.666ZM13.74,68.35c-.226,0-.446.226-.565.226l-.328.22h-.226L10.95,70.135l-2.016,1.79-1.225.559-.559.892v.333l.226.113v.113l.113.22.446.333.666.452h.785l.779.559.559,1.005,1.559.892.452.113,1.338.779.452.333.107.113,1.79.9.779,1a20.181,20.181,0,0,1,2.9,3.355l.559.22.226.446V85.1l-.113.339A16.561,16.561,0,0,1,21.889,88a33.786,33.786,0,0,1,.672,9.053l.113.333.113.779-.339,1.005v1.118l.226,1.231-.339,1.338L22,104.087l.107.226-.22,1.451-.22.226c-.226,1.892-.672,3.789-1.005,5.805l.892-1.79v-.672l.226-.892.22-.446.785-.779.22-.559.333-.559.559-.559a.841.841,0,0,1,.226-.446l.553-1.118.452-1.005.672-1,.22-.446.226-.785.22-.339-.113-.666.113-.333.446-.339.559-.666L28.7,97.389l.9-1.457.113-.333.333-.446.226-.559h-.119l.119-.446.446-1.005.553-.892.559-.446.565-.113.666-1.118.559-1.005V88.455l.333-.226.785-.113c1.338-2.01,2.677-4.128,4.128-6.139l.22-.672.339-.446.333-.226.559-.779,4.247-6.144v-.446l.22-.333.339-.113,1.9-2.682L49.81,66l.113-.107.666-.785v-.22l1.9-2.9.565-.559,1.005-1.118.333-.446v-.22l.446-.785.22-.22c-1.672.333-3.236.666-4.913.892h-.107l-.339.113L47.02,60.2h-.672l-1.005.113-.44.113h-.457v.113l-.892.22-.666.113-2.01.446-.22-.113-1.677.559-1.79.339-2.79.559-.779.333-.785.22-.333.113-4.354,1.118-.22.113h-.339l-3.8.892-.328.22L23.007,66l-.779.339-.559-.226L21.217,66l-.22.113-.446.119-.107.107h-.232l-1,.559h-.785l-.333.446-.226.113-.226.333h-.22l-.107.113-.672.113L15.3,68.35Z" transform="translate(0 0.001)" fill="#fff"/>
      <path id="パス_4" data-name="パス 4" d="M64.714,35.319l.113-.22.22-.339,2.01-2.457.446-.892.333-.333.113-.226.339-.22,1.333-1.451.452-.565V28.4l.113.113.328-1.118-.107-.113-.559-.107H68.842L67.5,27.5l-3.242,1.225-.779.226-.553.113-3.247,2.01h-.107l-.892.559-.785.333-.785.446-2.564,1.231L51.979,35.1l-1.005.446-1.672.892-.559.22-1.338.785-.678.226-2,1.225-.672.446-.666.559-1.005.333-1.011.446L38.69,42.135l-.22.22-1.124.672h-.22v.113h-1l-1.35.553h-.892a4.368,4.368,0,0,1-1.113.446l-.446.339-2.236.779-.446.113-1.677.666-.22.113-.333.113h-.339l-.666-.113h-.113c-1.785.226-3.242-.113-3.688-1.338-.446-1.451,0-3.129.785-4.913l.446-1.338.333-.113L24.284,38l.446-.672.22-.446.226-.113v.113l.226-.559.779-1.118,1.231-.892.22-.22.892-1.457.452-.553.892-.672L31.2,30.293l5.032-4.467v-.107h.113l1.446-1.231.339-.339,1.9-1.559.892-.559,2.908-2.123.107-.113,1.344-1.451.553-.553L46.281,17l.226-.113.779.113.339-.22.779-.226.446-.113.559-.107L49.855,16v-.22l.892-.339,3.575-1.785.672-.559.446-.226.9-.22.22.113.226-.113,1-.333h.339l.559-.339.779-.107.666-.226.785-.22.446-.113,1.118.333.672-.113h.672l.44.113h.226v.113h.446l.339.22.107.226.446.113.22.553v1.005l-.328.226c-.113.333-.446.559-1.231,1.338a.648.648,0,0,1-.785,0l-1.225.339-.779.113H59.682L57.9,15.666v.113h-.446v-.113h-.22l-.785.113h-.785l-1.559.666-1.785.785-2.57,1.113-1.79.785a16.641,16.641,0,0,0-1.9,1.231c-.107.107-.107.107-.107,0l-1.011.779-.113.113-.226.107-5.021,3.688-.446.446-1.005,1.118-.785.779-.779.446-1.005.559-.333.333-1.005,1.118-.22.226-.232.333-1.338,1.677-.333.22-.22.226-.339.22-.22.452-.339.446h-.22l-.226.559-.446.553-.22.446-.565.559-.553.672-1.118,1.344V38l.113.672-.113.22v.226l-.22.22-.452.333-.333.452-.559.666-.446.672v.22l-.107.226v.672l.22.333.333.559.339.22,2.344-.892,1.005-.22,1.564-.559h.107l.559-.113c1.457-.559,2.908-1.231,4.36-1.9l.553-.339.785-.446.559-.446h.892c1.225-.553,2.57-1.113,3.8-1.785l.553-.446.785-.339V36.1l.22-.113.333-.333.452-.113,1.672-.785.9-.446.779-.446L51.646,32.3l.779-.559,3.129-1.451.666-.22,2.016-1.005,1-.785,2.016-1.005.553-.446.9-.559.553-.446,1.338-.892,1.451-.892,3.467-.785h1.338l1.011.226.774.446.446.333a1.262,1.262,0,0,1,.9.785v.113l.226.113v.446l-.119.333h.226l-.107.22-.119-.107-.22.22-.22.339-.226.446-.666.553a3.13,3.13,0,0,1-.565.672l-.779,1.231-.672.559-.333.107-1.338,1.564-.226.226v.107l-.226.113-.666.9-.226.333-.22.446-.892,1.225a2.649,2.649,0,0,0-.446.785l-.339.892L65.719,37a1.509,1.509,0,0,0-.226,1.118c0,.333-.113.113.333.22.113,0,.22.113.339.113l.553-.113H67.5l.22-.107h.785l.559-.113.226.113c.779-.113,1.446-.339,2.451-.559l.892-.226.785-.339h.666L78,35.991l.333-.226,1.231-.333v.113l1.451-.446.892-.446.446-.113.446-.333L86.484,33.2v-.226l.339.226,1.005-.339.333-.333,5.365-1.564h.553l2.8-.892a.4.4,0,0,1,.333.113h.226l.107.779L97.1,31.3H96.2l-1.9.446-1.338.672h-.446l-1.79.446-.892.339-2.57,1.225-1.9.779-2.123.672L80.8,36.77,80.345,37l-1.118.446-.553.339-.9.333h-.113l-.779.333-.892.559-.339.113-.22.22-2.9,1.005v.226l-.113-.113-.892.333-.113.226-1.9.666-1.677.565-.559.446-.107.107-.113-.22-.339.113-.22.22-.226-.113-.107.113-.785.226H64.149l-.22-.113h-.779L62.59,42.8l-.446-.22-.339-.446.113-.565-.113-.446a2.307,2.307,0,0,1,.113-1.451l.333-.779.113-.446.785-1.005.333-.559.892-1.118Z" transform="translate(104.239 52.571)" fill="#fff"/>
      <path id="パス_5" data-name="パス 5" d="M50.437,48.809l1.451-1.231,4.027-3.462.441-.333h.113l3.242-2.8,1.9-1.559.333-.559,1.79-1.118,3.343-2.682.452-.446.44-.666h.457l.328-.333.672-.565.666-.559h.119c.113,0,.113-.107.22-.107l.446-.672,1.005-.892.226-.333,2.57-2.123v-.113h.22l.559-.559.113-.333,3.575-3.016.44-.226L81.147,22.9l.226-.333.226-.226h.226l.774-.672.339-.446.22-.107V21l.339-.333.113-.226,3.01-3.016v-.113h.339l.779-.892.226-.22,3.569-3.467.9-1L94.1,9.611a.394.394,0,0,1,.226-.113l.333-.559H95l.226.333.22.226-.22.446-.119.113c-1.005,1.338-2.231,2.677-3.456,4.021L89.635,16.2l-.107.333-.559.559-.333.446-.226.107-.672.559v.113h-.113l-1.451,1.672-.107.113-.339.226c-.22.226-.333.446-.559.559l-.333.446-.559.779-.446.226-.333.113-2.01,1.9v.107l-.446.232-.785.779-1.113,1.225L75.9,29.936l-.559.22-.785.446L67.3,36.967l-.107.226L66.3,38.311l-1.451,1.005-1.231,1.451-.672.559-1.005.779-1.338.785-.672.446L59.258,44l-.553.339-.339.333a49.537,49.537,0,0,0-4.128,3.908l-2.349,2.682-.559.333L48.2,54.169l-.446.559-.666.785-.779.446-.452.107v.113l-.779.446-.22.333-.339.339-.107.779-.446.226-.232.333v.22l-.666.672.113.113-.113.107-.113-.22-.44.22-.339.339h-.113l-.22.113-.9.672-1.113.107-.565.339-.446-.113-.892.113-.22.107h-.785l-.333-.22h-.113l-.22-.333-.333-.226.107-.779-.553-1.344c0-.113.107-.22.107-.446l-.333-.22-.113-2.123-.113-1.9.113-.785-.339-.779.226-.333.452-.446.22-.446.226-.565.107-.446.339-1.113L36.7,47.8l.339-1.118.113-.226.9-2.677-.119-.672.226-.446.333-.785.226-.22.892-2.79.559-2.8.333-2.231.785-2.123v-.672l.333-1.672.672-1.231.553-.22h.446l.9-1.231,2.344-1.785.452.226.44.446-.113.553c.226.113.226.339.226.559a1.9,1.9,0,0,1-.333.672l.107.892-1.225,3.575-1.451,3.016-.113,1.338-.672,1.005-.559.785-.107.333-.226.226-.44.553-.672,1.564h.107l-.107.113-.339.779a12.851,12.851,0,0,0-.666,1.231l-.113.113-.113.892-.779,1.225v.226L39.5,45.9l-.452,1.457V47.8l-.107.22c-.892,3.021-2.349,8.488-1.231,8.934a2.146,2.146,0,0,0,.892.113l.113-.113.446-.22H39.5l1.113-.446,1.451-1.118,2.123-1.231.446-.22.333-.226,1.344-1.113.333-.339,1.005-1,1.118-1.124.559-.666.666-.226Z" transform="translate(161.724 41.543)" fill="#fff"/>
      <path id="パス_6" data-name="パス 6" d="M46.37,36.733v.559l-.559.559-.333.446c-.119,0-.119.107-.119.22v.333l-.44.678-.113,2.79a3.287,3.287,0,0,0,.226,2.231c.666.785.328.785,3.123,1.677l1.9.446H51.5l1.677-.226,8.149-1.785L62.9,44l4.354-1.457.892-.559.446-.22h.226l6.7-2.79h.446l.785-.452,1.005-.22,3.682-1.338.446-.113c4.021-1.677,5.585-2.682,9.5-4.467l2.451-.892.113-.226.672-.333,2-.672,2.123-.892v-.226h.339l1.338-.666.113-.226,6.031-3.688.559-.107a23.921,23.921,0,0,0,2.451-1.677.429.429,0,0,1,.678.113v-.113l.446-.333.446.113.328,1.005-.553.22-1.005.333-.559.226-2.57,1.79-.553.779h-.559l-.452.22c-1.005.672-2.118,1.231-3.123,1.79l-.113.107-.779.446-.452.339h-.333l-3.575,1.785-.107.226-.452.113-.892.446-.22.113-1.57,1-4.241,1.79c-1.338.672-2.677,1.451-4.021,2.01l-.333.333-5.58,2.682-.452.333-.226-.333-1.225.779-1.338.226-.892.446h-.113c-1.451.666-2.9,1.225-4.354,1.79l-1.677.892L65.69,46.113l-.892.226-1.344.22-1.9.559-1.118.113-.446.22-.446.339-1.451.333h-.226A25.8,25.8,0,0,1,53.4,49.129l-.328.333-.565.113h.113l-2.231.446-.672-.22-1.225.446L45.811,49.8,43.354,48.57l-1.113-1.564-.565-1.451L41.344,44v-1.9l.113-.22-.113-.226v-.779l.779-2.8.785-1.338.892-2.01.666-1.118.226-.22.339-.892.666-.559.333-.785.678-1.005.328-.333,1.231-.559.446-.559.785-.333.892-.672.22-.113,1.118-1,1.005-.785.785-1.118.446-.446.553-.666.446-.339.678-.22.22-.339.553-.553.892-.339.559-.22c2.462-1.79,5.032-3.688,7.709-5.252l.22-.226,1.124-.779,1.451-.559c.107,0,.22,0,.22-.113l1.344-.892.779-.446.333-.107,1.564-.226c1.225-.452,2.457-.9,3.688-1.231l1.005-.559h1.113l.672-.22.339.22a18.639,18.639,0,0,1,2.564.113l.113-.113.339-.107.22.107L83,11.049l.113-.113.666.22v-.107H83.9l-.119.22.339.226h.333l.113.22h.107l.672.333.113.113c.565.452,1.005.785,1.118,1.344l.339.113-.119.22h.119l-.119.113v.559l.119.446-.226.779-.226.333v.672l-.44,1.677-.9,1.451L84,20.983l-1.231.785-1,.672L77.86,24.45l-.553.446-.785.22a73.051,73.051,0,0,1-8.149,4.8l-.113.226-3.242,1.564-1.451,1.005-2.9,1.225-2.123.785-3.016.559-1.785.113h-.779l-.672-.333-.22-.565.22-.333.785-1.564,1.559-1.451,1.451-.553h.892l.785.22.892.226H60.11l1.333-.226,1.457-.559h.446l.22-.339L66.8,28.8l3.016-1.451,1.451-.779.565-.672,1.451-.559.226-.446,1.672-.559.446-.446,1.451-1.118,5.026-4.241.446-.559.22-.779L83,16.854l.559-1.677-.113-.107-.107-.226-.226-.559-.559-.666-.779-.339-.785-.22H79.763l-.785.113-.446-.113A41.207,41.207,0,0,0,70.377,16.3l-1.333.672-.339.333-.559.446-.452-.107c-.107.107-.107.107-.22.107v.226l-.672.22-.22.226h-.22L63.9,19.757l-1.225,1.005-.779.785-1.118.333-.446.226c-1.005.666-1.9,1.451-2.9,2.231L56.863,25l-1.446,1.344-.785.779L53.4,28.245l-1.559,1.564-1.564,1.785-.333.339-.672,1.005-.779,1.113-1.118,1.118Z" transform="translate(192.141 50.824)" fill="#fff"/>
      <path id="パス_7" data-name="パス 7" d="M99.315,35.319l.113-.22.22-.339,2.01-2.457.446-.892.333-.333.113-.226.339-.22,1.333-1.451.452-.565V28.4l.113.113.328-1.118-.107-.113-.559-.107h-1.005l-1.338.333-3.242,1.225-.779.226-.553.113-3.247,2.01h-.107l-.892.559-.785.333-.785.446L89.15,33.647,86.581,35.1l-1.005.446-1.672.892-.559.22-1.338.785-.678.226-2,1.225-.672.446-.666.559-1.005.333-1.011.446-2.677,1.457-.22.22-1.124.672h-.22v.113h-1l-1.35.553h-.892a4.368,4.368,0,0,1-1.113.446l-.446.339-2.236.779-.446.113-1.677.666-.22.113-.333.113h-.339l-.666-.113H60.9c-1.785.226-3.242-.113-3.688-1.338-.446-1.451,0-3.129.785-4.913l.446-1.338.333-.113L58.886,38l.446-.672.22-.446.226-.113v.113L60,36.324l.779-1.118,1.231-.892.22-.22.892-1.457.452-.553.892-.672L65.8,30.293l5.032-4.467v-.107h.113l1.446-1.231.339-.339,1.9-1.559.892-.559,2.908-2.123.107-.113,1.344-1.451.553-.553L80.883,17l.226-.113.779.113.339-.22.779-.226.446-.113.559-.107L84.457,16v-.22l.892-.339,3.575-1.785L89.6,13.1l.446-.226.9-.22.22.113.226-.113,1-.333h.339l.559-.339.779-.107.666-.226.785-.22.446-.113,1.118.333.672-.113h.672l.44.113h.226v.113h.446l.339.22.107.226.446.113.22.553v1.005l-.328.226c-.113.333-.446.559-1.231,1.338a.648.648,0,0,1-.785,0l-1.225.339-.779.113H94.284L92.5,15.666v.113h-.446v-.113h-.22l-.785.113h-.785l-1.559.666-1.785.785-2.57,1.113-1.79.785a16.645,16.645,0,0,0-1.9,1.231c-.107.107-.107.107-.107,0l-1.011.779-.113.113-.226.107-5.021,3.688-.446.446-1.005,1.118-.785.779-.779.446-1.005.559-.333.333-1.005,1.118-.22.226-.232.333-1.338,1.677-.333.22-.22.226-.339.22-.22.452-.339.446h-.22l-.226.559-.446.553-.22.446-.565.559-.553.672-1.118,1.344V38l.113.672-.113.22v.226l-.22.22-.452.333-.333.452-.559.666-.446.672v.22l-.107.226v.672l.22.333.333.559.339.22,2.344-.892,1.005-.22,1.564-.559h.107l.559-.113c1.457-.559,2.908-1.231,4.36-1.9l.553-.339.785-.446.559-.446h.892c1.226-.553,2.57-1.113,3.8-1.785l.553-.446.785-.339V36.1l.22-.113.333-.333.452-.113,1.672-.785.9-.446.779-.446L86.248,32.3l.779-.559,3.129-1.451.666-.22,2.016-1.005,1-.785,2.016-1.005.553-.446.9-.559.553-.446,1.338-.892,1.451-.892,3.467-.785h1.338l1.011.226.774.446.446.333a1.262,1.262,0,0,1,.9.785v.113l.226.113v.446l-.119.333h.226l-.107.22-.119-.107-.22.22-.22.339-.226.446-.666.553a3.131,3.131,0,0,1-.565.672l-.779,1.231-.672.559-.333.107-1.338,1.564-.226.226v.107l-.226.113-.666.9-.226.333-.22.446-.892,1.225a2.649,2.649,0,0,0-.446.785l-.339.892-.107.113a1.509,1.509,0,0,0-.226,1.118c0,.333-.113.113.333.22.113,0,.22.113.339.113l.553-.113h.785l.22-.107h.785l.559-.113.226.113c.779-.113,1.446-.339,2.451-.559l.892-.226.785-.339h.666l3.914-1.113.333-.226,1.231-.333v.113l1.451-.446.892-.446.446-.113.446-.333,3.682-1.005v-.226l.339.226,1.005-.339.333-.333,5.365-1.564h.553l2.8-.892a.4.4,0,0,1,.333.113h.226l.107.779-.446.333h-.892l-1.9.446-1.338.672h-.446l-1.79.446-.892.339-2.57,1.225-1.9.779-2.123.672-2.451.892-.452.226-1.118.446-.553.339-.9.333h-.113l-.779.333-.892.559-.339.113-.22.22-2.9,1.005v.226l-.113-.113-.892.333-.113.226-1.9.666-1.677.565-.559.446-.107.107-.113-.22-.339.113-.22.22-.226-.113-.107.113-.785.226H98.751l-.22-.113h-.779l-.559-.226-.446-.22-.339-.446.113-.565-.113-.446a2.307,2.307,0,0,1,.113-1.451l.333-.779.113-.446.785-1.005.333-.559.892-1.118Z" transform="translate(265.047 52.571)" fill="#fff"/>
      <path id="パス_8" data-name="パス 8" d="M238.635,58.225l1-1.9.22-.339.9-1.672,2.349-4.354.892-1.677v-.113l.22-.779,1.231-1.79a10.679,10.679,0,0,0,1-1.9l1.231-2.457,1.677-3.129.446-.559.339-.553.22-.785,1.451-2.231,1.225-2.123,1.344-1.79-.446-.107c-1.005.666-2.683,2.79-3.021,2.9-1.785,1.225-3.569,2.344-5.359,3.462l-2.564,2.344-.226.226-.666.553-4.467,2.462-.892.446-.226.666-.785.785-.22.107-.226.339-.666.446-.672.113-.9.113-.553.22-.339.559-.446.559-1.785.446-1.118.559-1.451.779h-.22l-.785.446-1.451,1.118-2.79,1.564-.892.446-2.8,1.451-.779.339-.892.559-2.908,1.446-.892.559-1.005.559-1.338.672-.559.107L208.7,58l-1.011.553-1.9,1.005-1.005.559-.672.113a10.1,10.1,0,0,0-1.9.892l-.107.113-1.005.446-1.338.785-.559.446-1.231.107c-3.795,1.677-7.59,3.129-11.5,4.58-1.338.559-3.343,1.231-5.805,2.123l-1.677.892L174.305,72.3l-6.929,1.451a71.622,71.622,0,0,1-10.154,2.01l-.565.113-1.451.107H155.1a7.893,7.893,0,0,1-1.57.113l-.22.113h-1.231v.113h-.22v-.226a11.57,11.57,0,0,1-3.688-.559,5.673,5.673,0,0,1-2-1.005l-.446-.226h-.232l-.553-.446-.446-.446v-.666l.107-.113a12.248,12.248,0,0,1-1.113-1.338V71.18c-.119-.113-.226-.226-.226-.339l-.333-.333-.333-.226-.339-.553-.333-.113-.113-.226h.113l-.446-.446-.226-.333c-.107,0-.107,0-.226-.113h-.22l-.113-.333c-.22-.226-.22-.333-.22-.672a35.29,35.29,0,0,0,.22-3.575l-.113-.779V60.794l-.107-.446v-.672l-.672-.446-.22-.333v-.559l.22-.565h.672l-.113-.553.22-.559.113-.113a8.519,8.519,0,0,1,.785-2.9l.779-1.564v-.446l.22.113.672-1.005h-.107v-.333l.22-.672.226-1.118.892-1.225h.113v-.339l.446-.333.22-.559-.22-.113.22-.22v.22l1.118-.666h.226l.44-.226.452-.333v-.339l.446-.113.452-.333,1.113-.559.446-1,.559-1.005,1.118-.446,1.672-.785c2.457-2.01,5.026-3.908,7.709-5.805l.333-.339.672-.559.22.113.672-.559v-.22l.446-.333h.446l4.58-3.016.107-.113.339-.226,1.338-.779.113-.113.672-.446.553-.446h-.333l.113-.452.446-.22h.113v.113l-.113.339.22-.232.452-.107.226-.113.107-.333.113-.113h.226l2-.892,3.355-1.9V23.16l.333-.113.672-.113,1.446-1.231.9-.559h.333l1.451-.666,1.564-.785.226-.22h.446l.779-.333,2.569-1.344.559-.226.22-.22h.119l2-1.005h.446l.226-.22.779-.452.452-.107,2.225-1.118.678-.22.779-.565,1.451-.446c3.016-1.225,5.359-2.344,7.375-3.236l.553-.113.672-.446h.107l2.682-1.338.779-.785.785-.333.672-.113h.666l.446-.22h.559c.119-.113.119-.113.226-.113l.333-.446.333-.333.672-.226h.452l.22-.22h1.118l.553-.226,3.467-1.005,1.677-.892.328-.113,2.016-.446h.333l.666-.226,1.005-.22.119-.113h.22l1.451-.226.672-.22.333-.226h.22l.113-.107.333-.113.113-.226.113-.107.559-.113V.593l.113-.107.107.226h1.338l.9-.226.333-.113.892-.113V.373l.339-.113L236.4.147,237.511.04l2.123.446L241.2.26l.774.226.339.107h.339l.107-.107h.113l-.113.226.339.113.446.446v.446a6.738,6.738,0,0,0,1.451.22c.446,0,.553.226.553.672v.333l.226.226.333.779.226,1.677L247,7.077l.785,2.57-.333,1.9-2.349,1.785-.559.22h-.666l-1.344-1.338.339-1.785v-.333l-.339-.333V8.974l.339-1.451.113-1.231-.113-1V3.948l-.672-.333-1-.339h-.892l-.565-.107-1.225-.452-1.011-.666-.107.113-.226-.113V1.938h-.113l-.107.113-.785.446-1.225.446-.672.226h-.22l-.226.107-.226-.107-.44-.339-.565-.113-.779-.333-.779.559-.226.113h-.22l-.672.22-.22.339-.452.446-.892.333-.446-.113-.446-.22-3.688,1.231-.22.333-.22-.113-2.016.672-.666.446-.339.107-1.672.446-.452.113-.333-.113-.113.113-.666.113-2.8.892-1.672.779-1.677.339-.107.226-2.016.666-.553.339-.785.333-1.005.333-.892.339-.333.22-.226.113-2.118.779-2.123,1.005-1.564,1.118h-.452l-1.451.892-4.913,2.457-2.344,1.344L187.6,20.591l-.232.333-2.79,1.338-.779.9-1.124.553-.328-.22-1.118.892-1.344.892-.328.113-.452.446-3.908,2.01c-.107,0-.107.113-.226.226v.22l-.107-.22c-.113.107-.226.22-.339.22l-6.144,4.134-1.005,1.005-.892.446h-.107L163.474,36l-.113.333-.9.559h-.333c-.559.559-1.225,1.005-1.9,1.564l-1.113,1.225-.565.113-.113.559v.333l-.22.113-.107.226-.565.553-1.005.672-.446.446-1.225.446-.452.226a64.346,64.346,0,0,0-6.133,6.252l.107.446v.559l-.446.113-.226.559-.892.446-1.113,1.338-.232.113-1.446,2.457c-.113.113-.113.113-.113.226l-.107.333-.457.892-.107.559-.333,1.005-.452.446-.22.559-.107.113V59.9l-.226.9-.339,1a13.148,13.148,0,0,0-.22,1.9l.113.113-.113.333v.446l.113.226v.553a5.589,5.589,0,0,0,1,2.682l.452.113.333.113.226.22h.113l.107.113.226.446.333.333.226.559.226.333,1.005.559.107-.22h.446l.666.333.119.226.107.333a13.426,13.426,0,0,0,2.016.559l.892-.113.441.113h.339l.446.226.107.107a25.975,25.975,0,0,0,4.247.339h.22l.339-.559.672.113.892-.113,1.118.113,1.226.333c.22,0,.446-.113.672-.113l1.79-.333.892-.113,1.005-.113.22.113.785-.22q3.007-.508,6.359-1.344l.339-.333.785-.113.333-.226.333.113c2.57-.666,5.139-1.338,7.822-2.231l.666-.559.226-.333,2-.339,1.344-.559,2.123-.559c3.908-1.451,7.816-3.123,11.831-4.913l.226-.107.226-.339h.22l4.247-2h.333l.785-.565.672-.22L210.6,55.1l1.677-.892.22-.22,1.9-.9.44-.446,1.005-.333.9-.559.774-.672.565-.333,2.9-1.564,1.118-.559,3.795-2.01.446-.22,1.785-.785.226-.333.22-.113.226.113,5.252-3.242.666-.553.446-.113,4.134-2.682v-.22l.226-.113.107-.226.678-.22,1.113-.672c.779-.446,1.564-1.005,2.344-1.564l.892-.892v-.226l.672-.22,3.688-2.57,1-1.451.559-.779,1.011-.452.333-.779,2.9-2.79L255.5,24.5l1.225-1.231,1.338-1.564,3.8-3.462,1.677-2.231.892-1.564,1.333-1.677L267,11.764l.672-.333.339-.226.666-.553a5.243,5.243,0,0,1,2.457-1.57,1.587,1.587,0,0,1,.779.226l.113-.333.672.22.333.565-.672,2.231-1.225,1.225.113.672-.339.892L269.791,15.9l-.226.779-.333.113.107.672h-.553l-.452.333-.22.559-.333.559-.785.113-1.338,1.451.107.22-1.333,2.016-.672.107-.446.672-.113.22-2.457,3.914v.446l-.559.666-.107.672-.339.892-.226.333-1.005.672-.22.559-1.118.892-1.79,2.9-.774,1.564-.892,1.338-.339,1.564-1.011,1.118-.892,1.005-.22.113-2.123,3.349-.666.892-3.242,4.806-1.225,2.231h-.113l-.779,1.564L242.1,56.435c-1.457,2.8-3.242,6.037-4.027,7.15l-.892,1.564.113.559-.113.446-.892.559-2.231,3.8-.333.333a9.133,9.133,0,0,0-.9,1.344l1.118-.226a63.494,63.494,0,0,1,11.73-1.785c.22.107.553,0,.774,0l2.575-.446h1.338l2.677.22.22.113,3.355.113h.672l6.031.333h1.451l.672.113,1.451-.113.446.113.107.22-.107.339-.339.113h-2l-.339.113-4.574-.226-.113.113-.452-.113h-1.226c-.333,0-.565.113-.785,0l-.22.113h-.559l-4.687.113-.226.107-1.005.113-.785-.22a79.522,79.522,0,0,0-12.063,1.672l-6.918,1.672-3.688,5.811-6.257,8.268-.666.666c0,.113-.113.113-.226.226l-.559.892-.22.22c-2.8,3.462-5.585,6.816-8.488,10.165l.113.107-3.016,3.467-.559.333-2.9,3.016-.779,1.225-.446.559L202,111.05l-.779.892-2.683,2.231-.446.672-2.123,1.785c-5.026,4.693-5.252,5.026-8.042,7.488l-2.57,2.344-.779.666v.113h-.113l-5.693,4.8h-.113l-9.606,7.929-.553.785-.559.553h-.452c-4.58,3.688-9.493,7.375-13.842,10.5l-.339.446-.553.22-5.145,3.908h.113v.113l-.333.446h-.452l-1.9,1.118-.22.333-.559.672-1.9.672-1.118.779-.559.226-.333.22-.226.226h-.22l.113-.113h-.226l-10.5,6.139-.666.113a128.277,128.277,0,0,1-16.756,8.155c-1.9.666-3.795,1.231-5.693,1.79a32.034,32.034,0,0,1-3.021,1.113c-1.22.226-1.672-.22-2.79.113a41.448,41.448,0,0,1-7.477.446,4.956,4.956,0,0,1-3.355,0,4.436,4.436,0,0,1-1.564-.559A28.734,28.734,0,0,1,75.8,173.03l-1.005-.9-.226.119-.441-.226-.339-.226v.113h-.226l.113-.113-.113-.22-.107-.339-.452-.446-.333-1.225-1.113-1.451-.226-.9v-.446l-.446-1.559-.226-.672-.107.333-.452-.22v-.672l.113.113.22.113-.107-.226.107-.446-.107-.226-.226-.22-.113-.226.113-.113.333-2.677.452-1.231a35.286,35.286,0,0,1,.892-4.913v-.779l.226-.785.22-.892.446-.666.226-.446h.107a24.584,24.584,0,0,1,4.7-8.042l.44-.559,1.9-2.236.333-.446.779-1.113,1.564-.892.779-.785.892-1.564.672-.333,4.913-5.252.672-.22.559-1.011,1.225-1c.892-.785,1.564-1.451,2.8-2.57l1.113-.672,3.129-2.231.892-1.231,1.005-.553,2.123-.9a10.973,10.973,0,0,1,2.123-1.118l.672-.559,5.472-3.236,2-1.118,4.021-2.457.446-.113.226-.333,2.123-.559c5.133-2.677,6.257-3.242,8.482-4.467l.892-.22a41.4,41.4,0,0,1,4.693-2.123l7.262-3.016,1.338-.779,2.57-.892,1.338-.452,6.144-2.344,5.585-1.9a11.277,11.277,0,0,0,2.8-1.231l1.559-.446h1.005a10.7,10.7,0,0,1,2.231-.672c1.457-.446,2.123-.666,4.36-1.446.553-.226,1.231-.339,1.9-.559l1.118-.672.779-.113,2.457-.559,11.724-3.462.785-.559.785.113,7.477-2.231,3.242-1.005L202.333,80l2.349-1.451,1.785-.333,3.349-1.005L215.4,75.98l5.139-1.118,3.016-.892,4.128-.666a2.567,2.567,0,0,0,.892-.226l1.124-.333,1-1.338.9-1.457,1.225-1.9,1.9-3.129.226-.666,1.79-2.682.328-1.005c1.457-2.231,1.457-2.344,1.57-2.344M200.662,82.011l-6.37,2.118-4.348,1.344L185.7,86.7l-4.134,1-5.021,1.79-2.016.892h-.892l-.333-.113-1.785.785-4.36,1.451-3.569.559-3.129.892a8.24,8.24,0,0,1-1.564.559l-3.242,1.118-.553.666-4.134.779c-.452.113-.779.339-2.123.9l-2.123.672-.892.666-2.231.559c-1.79.672-3.575,1.338-5.472,2.236l-2.344,2.01-.452.107-2.231.785-3.8,1.677-9.713,5.021-3.462,2.123-.452,1.005-2.118.892-4.467,2.344-5.7,4.467-.553.672-1.118.333-.779.785-1.677.892-.892.446c-1.005.672-1.118.785-2.57,1.785l-2.123,1.79a89.183,89.183,0,0,0-9.047,8.268l-.107.22-.9.779-.553.9-.565.666-.328.113-1.79,2.344a48.37,48.37,0,0,0-4.8,8.381v1.672l-.678.559-.22.333a30.469,30.469,0,0,0-.892,3.016l.22.446v1.005l-.333.333-.22.339v3.908l.107.333-.107.226v.559a20.106,20.106,0,0,0,.779,2.79l.113.113.892.666.672.339.113.226.107.113.113.333v.559l.107.446.119.892,1.451,1.338.553.113.672.553.113.339a21.461,21.461,0,0,0,8.708,3.349l1.457.226h1.113a5.283,5.283,0,0,1,2.682-.113c1-.333,2.231,0,2.9-.779.559.333,1.564-.339,2.564,0a9.7,9.7,0,0,1,4.027-.559c1.338-.339,2.457-1.118,3.795-1.118.339.672,1.451.113,1.79.779a16.5,16.5,0,0,1,3.789-2.9c2.349-1.005,5.032-1.451,7.488-2.231l4.354-2.01a10.542,10.542,0,0,0,3.575-1.677,2.548,2.548,0,0,0,1.559-.446c1.231-.666,2.349-2.01,3.8-2.123.446-.333.666-1.225,1.451-.779l4.693-2.9.339-.452,1.22-.666.339-.226.226-.107c2.683-1.79,5.472-3.575,9.154-6.257l7.822-5.805,5.8-4.241,2.682-2.236.333-.113,4.586-3.682,2.9-2.457c.553-.339,1-.785,6.7-6.031l12.17-11.17,7.037-7.6,6.365-6.026,1.344-1.231c.779-1.005,1.677-1.9,2.457-2.79l4.913-5.7.9-1.118.328-.446,1.79-2.344,5.139-6.811a1.982,1.982,0,0,0,.553-.785l.226-.22.785-1.457.441-1.113,2.462-3.016-5.472,1.231-3.575,1.225-2.57,1.225-.559.339-.779-.339L213.5,79l-6.031,1.231Z" transform="translate(325.283 0.186)" fill="#fff"/>
      <path id="パス_9" data-name="パス 9" d="M140.8,26.822l-.446.892c-.113.226,0,.559-.113.892l-.672,1.124-.774,1.113-1.011.672-1.113,1.113-.446.559-.565.565-.892.666-.22.113a49.825,49.825,0,0,1-6.59,4.687v.226h-.339l-1.225.779v.113l-.226.226h-.446c-.107.107-.107.107-.22.107v.339h-.446l-.892.666h-.119l-.553.559-.779.22-.452.565-.779.559-.446.107-1.231.113-.446.226-.672.107h-.22c-1.785.672-3.355,1.344-4.913,1.79l-.446.333-.339.113-.446.559-.328.113-.785-.226h-.785L108.3,46.7l-2-.226v-.107c-.119,0-.339.107-.446.107a6.938,6.938,0,0,1-1.677-.446c-.446-.333-2.79-1.451-2.9-2.231V42.792l-.333.113-.119-.672.785-2.01.779-1.9.446-.672,1.344-1.338.779-.559.226-.333,1.892-1.338,1.677-1.677.339-.559.446-.446L112,29.5l.666-.559.553-.113.226-.226.9-.553.22-.339.113.226,2.682-2.01.553-.559.339-.107,1.005-.678.779-.892,1.005-.892,1.559-.559,1.451-1.225.9-.446,1.005-.559c1.118-.672,2.123-1.451,3.129-2.01l-1.564-.226A15.147,15.147,0,0,1,125.4,18l-.339.113-.113.107-.333-.107h-1.338a31.591,31.591,0,0,1-3.467.333H119.7l-2.57.113-1.344-.339-.672-.446-.328-.553.107-.785.892-1.338.9-.339,1.113-.22,1.118-.113.892.333,1.677.446a30.791,30.791,0,0,1,5.359.446l1.231-.22,1.79.113,2.118-.339.333.113,1.9-.22a4.751,4.751,0,0,0,1.011-.559l1.005-.672.892-.446.328-.113.565-.333.892-.113,1.005-.107a8.185,8.185,0,0,1,2.344-.113l.785-.113.333.333a3.352,3.352,0,0,1,1.225.672l3.134-.333.107-.113,1.344-.333,1.666-.113,1.79-.559.672-.113,1.113-.107h2.242l.892-.113,1.333.113h.119a6.318,6.318,0,0,0,1.451-.113c.553,0,1.225-.119,1.9-.119l.446-.107.226-.113h.22l.226.22h.666l.672-.22h.785l1,.113h.226l.779-.113.672.339h.333l.446-.119.892.119.446.113a23.606,23.606,0,0,1,3.129.666l.446.333h.446l.339.446a18.331,18.331,0,0,1,1.9,1.231h.226l.333.333.559.226.339.666.441.672v.339l-.666.553-.339.785L176.539,19.9l-.446.672v.113c-.107.113-.226.22-.226.333l-.44.672-.672.22v-.892l.22-.333v-.226a8.775,8.775,0,0,1,.672-1.451l.22-.559.785-2.01c0-.107-.113-.22-.113-.446l-.333-.559-1.118-.559-.892-.666-1.677-.452a36.178,36.178,0,0,0-7.37-.553h-1.672l-1.344.107a22.854,22.854,0,0,0-2.9.339c-4.913.333-8.381.779-11.617,1.225l-.22.113-1.011.22-.553.339-1.79-.113c-1.785.22-3.569.559-5.58.785l-.892.333h-.892l-2.016.226-.553.333a26.432,26.432,0,0,1,2.9,1.113h.22l.339.339.22.113.446.333.892.559,1.344,1.451.333.779.559,1.344-.113,2.01a9.16,9.16,0,0,1-.446,1.672m-2.677-.779V25.37l.446-1.005.107-1.564v-.113l-.553-1.113-.678-.672-.774-.559-.9-.559L135,19.452l-1.005-.333-.892-.559-.672-.226a.371.371,0,0,1-.22-.113c-1.451.9-2.8,2.01-4.806,3.355l-1.005.779-.779.672L121.6,25.37l-1.118.785-.779.446-2.236,1.451-.107.107-.565.446-1.677.9-1.333.892-1.231.779-.553.452-1.57,1.113-.107.113L109.087,34.3l-1.005,1.338-.553.785c-.119,0-.119.113-.226.113a9.8,9.8,0,0,0-1.79,2.79v.226L105.4,40l-.226.559v.666l-.113.226-.113.333a3.086,3.086,0,0,0,.9,2.123h.22l.672.446c.22,0,.446.113.666.113,3.688.22,4.467-.113,8.155-1.338a42.031,42.031,0,0,0,4.8-1.79l.113-.226h.333l1.338-.666.9-.892,1.9-1.005.452-.113h.22l3.462-2.344.333-.339.226-.113c.892-.666,1.785-1.446,2.677-2.231l.339-.446.22-.339.672-.553.666-.785.339-.559.446-.107.226-.446.328-.339.226-.333H136a17.373,17.373,0,0,0,2.123-3.462m4.354-12.176c-.785-.446-2.236.113-3.355.559Z" transform="translate(468.542 53.027)" fill="#fff"/>
      <path id="パス_10" data-name="パス 10" d="M150.689,26.822l-.446.892c-.113.226,0,.559-.113.892l-.672,1.124-.774,1.113-1.011.672-1.113,1.113-.446.559-.565.565-.892.666-.22.113a49.82,49.82,0,0,1-6.59,4.687v.226h-.339l-1.225.779v.113l-.226.226h-.446c-.107.107-.107.107-.22.107v.339h-.446l-.892.666h-.119l-.553.559-.779.22-.452.565-.779.559-.446.107-1.231.113-.446.226-.672.107h-.22c-1.785.672-3.355,1.344-4.913,1.79l-.446.333-.339.113-.446.559-.328.113-.785-.226h-.785l-2.123-.113-2-.226v-.107c-.119,0-.339.107-.446.107a6.938,6.938,0,0,1-1.677-.446c-.446-.333-2.79-1.451-2.9-2.231V42.792l-.333.113-.119-.672.785-2.01.779-1.9.446-.672,1.344-1.338.779-.559.226-.333,1.892-1.338,1.677-1.677.339-.559.446-.446,2.462-1.9.666-.559.553-.113.226-.226.9-.553.22-.339.113.226,2.683-2.01.553-.559.339-.107,1.005-.678.779-.892,1.005-.892,1.559-.559,1.451-1.225.9-.446,1.005-.559c1.118-.672,2.123-1.451,3.129-2.01l-1.564-.226a15.147,15.147,0,0,1-2.118.226l-.339.113-.113.107-.333-.107H133.16a31.593,31.593,0,0,1-3.467.333h-.107l-2.57.113-1.344-.339L125,17.775l-.328-.553.107-.785.892-1.338.9-.339,1.113-.22,1.118-.113.892.333,1.677.446a30.791,30.791,0,0,1,5.359.446l1.231-.22,1.79.113,2.118-.339.333.113,1.9-.22a4.752,4.752,0,0,0,1.011-.559l1.005-.672.892-.446.328-.113.565-.333.892-.113,1.005-.107a8.185,8.185,0,0,1,2.344-.113l.785-.113.333.333a3.353,3.353,0,0,1,1.225.672l3.134-.333.107-.113,1.344-.333,1.666-.113,1.79-.559.672-.113,1.113-.107h2.242l.892-.113,1.333.113h.119a6.319,6.319,0,0,0,1.451-.113c.553,0,1.225-.119,1.9-.119l.446-.107.226-.113h.22l.226.22h.666l.672-.22h.785l1,.113h.226l.779-.113.672.339h.333l.446-.119.892.119.446.113a23.6,23.6,0,0,1,3.129.666l.446.333h.446l.339.446a18.325,18.325,0,0,1,1.9,1.231h.226l.333.333.559.226.339.666.44.672v.339l-.666.553-.339.785L186.426,19.9l-.446.672v.113c-.107.113-.226.22-.226.333l-.44.672-.672.22v-.892l.22-.333v-.226a8.772,8.772,0,0,1,.672-1.451l.22-.559.785-2.01c0-.107-.113-.22-.113-.446l-.333-.559-1.118-.559-.892-.666-1.677-.452a36.178,36.178,0,0,0-7.37-.553h-1.672l-1.344.107a22.855,22.855,0,0,0-2.9.339c-4.913.333-8.381.779-11.617,1.225l-.22.113-1.011.22-.553.339-1.79-.113c-1.785.22-3.569.559-5.58.785l-.892.333h-.892l-2.016.226-.553.333a26.433,26.433,0,0,1,2.9,1.113h.22l.339.339.22.113.446.333.892.559,1.344,1.451.333.779.559,1.344-.113,2.01a9.165,9.165,0,0,1-.446,1.672m-2.677-.779V25.37l.446-1.005.107-1.564v-.113l-.553-1.113-.678-.672-.774-.559-.9-.559-.779-.333-1.005-.333-.892-.559-.672-.226a.371.371,0,0,1-.22-.113c-1.451.9-2.8,2.01-4.806,3.355l-1.005.779-.779.672-4.021,2.344-1.118.785-.779.446-2.236,1.451-.107.107-.565.446L125,29.5l-1.333.892-1.231.779-.553.452-1.57,1.113-.107.113L118.974,34.3l-1.005,1.338-.553.785c-.119,0-.119.113-.226.113a9.8,9.8,0,0,0-1.79,2.79v.226l-.107.446-.226.559v.666l-.113.226-.113.333a3.086,3.086,0,0,0,.9,2.123h.22l.672.446c.22,0,.446.113.666.113,3.688.22,4.467-.113,8.155-1.338a42.03,42.03,0,0,0,4.8-1.79l.113-.226h.333l1.338-.666.9-.892,1.9-1.005.452-.113h.22l3.462-2.344.333-.339.226-.113c.892-.666,1.785-1.446,2.677-2.231l.339-.446.22-.339.672-.553.666-.785.339-.559.446-.107.226-.446.328-.339.226-.333h.226a17.368,17.368,0,0,0,2.123-3.462m4.354-12.176c-.785-.446-2.236.113-3.355.559Z" transform="translate(514.491 53.027)" fill="#fff"/>
      <path id="パス_11" data-name="パス 11" d="M178.95,96.994l-1.005.333-.666.785-.339.446-1.118.333-1.785.785-1.451.779-.666.113-.339.113-.339.333v.22l-.107-.107v-.113h-.446l-1.338.666-1.005.113c-.226,0-.339.113-.565.113l-.785.113-2-.113-1.005-1.118-.107-.22-.785-1.118-.892-1.677.107-.559-.553-1.113.333-2.9c-.113-1.231.333-2.01.441-3.355V89.4l.232-.666-.113-.113V86.5l.666-2.01.113-.779.226-.892.107-.339.226-.333.113-.226a.107.107,0,0,1,.107-.113l-.107-.666.107-.446.446-.672.9-2.344.113-.559.113-.446.22-.446.107.107.565-1.113.107-.339v-.107l.113-.559.226-.446.22-.226.119-.22-.226-.226.333-.559V72.2l.446-1.118-.446-1.451-.107-.446-.457-1.118-.327-.446a.243.243,0,0,1-.226-.226l-.559-.892-2.231,2.462L161.974,71.2l-2.564,1.9-1.79,1.564-1.005,1.005-.22.333-.226.113-3.242,3.236-.333.113-1.118,1.118-.559.446c-.892.666-1.672,1.451-2.457,2.123l-.892,1.338-.785,1.005-1.446.892-1.231,1.344-.666.446-.9.666-1.226.672-.559.446-.785.559-1,.559L135.725,93.2l-.107.22-.113.333h-.333l-.892.446-.226-.107c-3.123,1.9-6.365,3.236-9.267,3.236a15.883,15.883,0,0,1-2.9-1.113c-.113-.339-.226-.446-.226-.672h-.107l-.785-1.344-.113-2,.22-1.457.452-1.113.779-1.231.113-.666.672-.785,1.226-2.57v-.22l.452-.785,2.118-2.01.672-.666.107-1.231.226-.333.559-.446,4.913-4.354h.113c1.338-1.344,2.79-2.682,4.128-3.8l.113-.113,1.011-.892.666-.333,1.564-1.118.559-.559.666-.446,1.011-.559,1.225-.559,1.226-1.113.226-.113h.22a32.752,32.752,0,0,1,4.021-1.9l.339-.339.333-.22h.446l1.231-.446,1.226-.892.446-.113h.785a15.064,15.064,0,0,0,2.01-.785,9.992,9.992,0,0,1,4.8.113h.779l.785.339h.785c.22,0,.327.107.44.333l1.011,2.344.446-.559.107-.779,1.005-.226,2.57-2.457.559-.892.779-.333,2.682-2.575,1.451-1.892,1.9-1.9,1.9-2.123,2.344-2.457,3.016-3.462v-.113h.107l1.9-2.236,1.344-1.785.892-1.225.559-.452.333-.779,1.231-1.344v-.333l.779-.446.339-.779,1.112-1.231,2.344-2.79.446-.559.113-.226h.113l2.236-2.9.446-.666.446-.446.22-.452.785-1.005v-.22l.446-.226.226-.559.666-.892,1.9-2.57.785-.892.446-.672,1.9-2.457.565-.779,2-2.457,1.338-1.344.559-.666V9.77l1.677-2.231.333-1.005.339-.672,1.333-.666.339-.559.226-.226V3.852l.22-.333V3.3l.339-.565V2.621l.226.113.441-.446h.226V2.174l.666-.553.785-.226.446-.22.226.107.779-.22.113-.113h.559l.333.113.892.113.559,1,.333.672L220.718,5.2,219.266,6.98h.113l.785.339.22.779-.9.892-1.225,1.451-.559.892-.339.113-.22.339-.446-.113-1.564.446-1.451.446h-.226L212,14.35l-.892.892-.666,1.118-1.338.446-1.79,1.9-.892,1.231-.339.22-.672.9-.892.779-2.79,3.8-1.559,2.231-1.677,2.01-.113.333-1.118,2.123-.559.559-.446.785-.785,1.225-.107-.113-.785,1.231-.553,1.338-.226.446-.333.339-2.79,3.682v.22h-.119l-.892,1.118V43.5l-3.908,5.133-.441.446L183.2,51.99V52.1h-.119c-3.01,4.247-5.359,7.816-6.472,9.493V61.7l-.22.22-.339.452-.339.553v.113l-.22.113a82.922,82.922,0,0,0-4.354,7.6l-.113.107c-.113.226-.226.339-.226.452h.113v.22l-.22.333.107.446-.226,1.124.226.22-.333.226.107.107-.328.226v.559l-.565,1.559h-.44l-.119.226-.666.892-.107-.113h-.452l-.333.565-1.005,2.677h-.113l-.339.892-.22,1.79-.672,1.672-.333,2.123-.446,2.123-.446.892-.226.553a4.7,4.7,0,0,0,0,1.231c-.22,3.467.785,5.359,2.344,6.257l.892.22.119.113a5.524,5.524,0,0,0,1.338.22l.785-.333L170.795,98l.226-.226,1.225-.666.672-.113h1.564a47.272,47.272,0,0,0,7.037-3.8l1.451-1.005.779-.446.22-.113.119-.226.22-.22.785-.565,1.118-.553,1.333-.785,2.908-2.344,1.231-.559,1.785-1.451.559-.446,1.672-1.225.559-.226.559-.446,1.451-1.005v-.113l.333-.226,1.57-1.559,1.112-.446,1.005-.559.113-.113,2.9-2.344.226-.226,1.338-.892.22-.333.113-.113h.333l.226-.226.22-.446.339-.22h.333l.113-.113h.672l.44.779-.328.446-.565.113a.109.109,0,0,0-.107.113h-.113l-7.7,6.139-.339.559-.333.226-.559.339-.446.22c-1.9,1.451-3.8,2.79-5.7,4.134L191.9,87.947l-.113.226-.559.22-.672.785-.666.22-6.477,4.354-.559.559-1.451,1.011-.113.107h-.22l-.672.446-.113.339-.333.107.446-.107v.333l-.446.446H179.5l.119-.559-.119.113ZM131.376,79.459l-1.118,1.231-1.005.892-.559,1.451-.892.779-.672,1.118-.339,1.564.119,1.338-.226.339v.446l-.785,1.225-.22,1.344-.107,1.785.107,1.338.113.333.226.226.666.113h.559l.559-.226a4.926,4.926,0,0,1,1.113-.446l.9-.892,1.005-.672.779-.446,1.451-.446,1.344-.666c.113,0,.22-.113.333-.226,1.785-1.118,3.462-2.231,4.913-3.349l.113-.226,1.338-.892a6.1,6.1,0,0,0,1.005-.785l.9-.779.446-.666,1.672-1.564.779-.672.339-.559.446-.113,1.677-.892c2.451-2.231,5.134-4.913,8.6-8.155l2.344-2.118.119-.333,1.785-1.9,1.005-1.113v.22l.785-.446.666-1.225.779-1.124-.672-1.446-1-1.005-.452-.226-.22-.22c-2.57-.559-6.144.446-8.934,1.672l-2.01,1.118-.892.339-.785.22a3.589,3.589,0,0,1-.666.333c-2.908,1.564-4.913,2.01-10.165,6.478l-1.451,1.564-1.005,1.451-1.118,1.005v.226l-.107.333-1.011.666-.779.785-.892,1.005-.446.446h-.113v.333Zm35.736-12.842.113.113.226.333.554.559.22.559.672.107.22.339v.107l.9-.892v-.22h.113l.113-.333h.107v.22h.113l.672-1.225.107-.226.226-.559.333-.446.119-1.118.328-.22.339-.559.666-.333.333-.672.119-.113,1.225-2.01v-.113l.559-.892.9-1.338.328-.333c1.9-2.8,3.8-5.585,5.811-8.268-2.457,2.462-5.811,5.918-8.94,9.273l-1.559,2.01-.785.666h-.22l-4.247,4.693a1.265,1.265,0,0,0,.339.892" transform="translate(560.713 4.411)" fill="#fff"/>
      <path id="パス_12" data-name="パス 12" d="M213.7,123.049c-.339,0-.666.113-1.005.113l-.553.113c-1.011.22-1.9.333-2.8.446l-.666.339H207.11l-.892.446-1.451.22-.785.113-1.785-.113c-.339,0-.666.113-1.005.113l-.226.113h-.44c-3.134.333-6.257.666-9.273.892h-.113l-2.118.333-.565.113-.892.22-.559.113-1.225-.113-1.672-.107-3.693-.446-3.682-.226-.333-.113-8.488-.779-.446.113-1.785.107-.226.113-1.785-.446-.226-.113-.559-.107a11.321,11.321,0,0,0-1.9-.113,29.467,29.467,0,0,1-4.36-.785h-.107l-.446-.113-.892-.333-.113-.113-1.677-.666-1.9-.559-2.57-1.451-.22-.333-4.919-2.683c-.666-.339-1.333-1.677-2-2.01a5.618,5.618,0,0,1-2.01-2.683,27.207,27.207,0,0,1-1.011-3.8l-.22-.559-.113-1.005.113-1.005v-.339l-.113-.553.333-1.118-.107-.892.226-.446.22-1.005,1.005-2.8.226-.446,1-2.231.113-.339.118-.22.441-.446h.333l.446.113v.446l-.22.22a.359.359,0,0,1-.107.226c-.119.333-.565.666-.785,1.118V97.7a.411.411,0,0,0-.107.333.325.325,0,0,1-.118.22l-.559,1.677-.107.113-.446,1.225.22.559v.559l-.113.113-.226.559-.22.333h.113l-.113.113h-.107v.22l-.113.226v.446l-.113,1.559-.113.678v1.225a15.186,15.186,0,0,0,.785,3.242l.446.892.22.333.226.559.339.333.22.446a22.451,22.451,0,0,0,2.79,2.9l.333.113,1.124.892.892.446.327.226,1.231.666.785.452a17.915,17.915,0,0,0,2.564,1.118l2.349.779,2.9.779,1.672.446h.559l.672.339h.22l.446.107a94.3,94.3,0,0,0,11.171,1.344l1.011-.113h.892l2.564.226,2.344-.113h1.784l1.124.226.892-.113h1.005c1.9,0,3.569-.113,4.8-.113l.559-.22.672.107.559-.107,1.338-.113.226.113,2.225-.226h.119l.779-.113a5.409,5.409,0,0,0,1.344-.113l.327-.113.339.113.446-.113,1.57-.113,1.113-.107,1.005-.339h.226l.22-.107,2.123-.113.779-.226h1.118l.559-.107.44-.226.452.113.559-.113.892-.446.446.113.22.22v.113l1.79-.333h.107l.339-.226.333-.107H212.7l1.451-.226.22-.113.119-.113,2.123-.22.107-.113,1.005-.446h1.231l.22.113.446-.113.779-.333,1.57-.113,2.79-.559,2-.339,1.005-.22.452-.892v-.559l-.113-.446V115.9l.113-.446.113-.672.446-1.338.333-2.123.446-.892.226-.339.107-.22.672-2.123v-.559l.22-.333h.119c.553-1.564,1.112-3.129,1.785-4.687l.113-.678.446-.892.22-.333.446-.892.339-.892.226-.672v-.22l.22-.565h.107l.226-.333.22-.22v-.339l.119-.22.22-.113,1.005-2.118.226-.226.22-1.79.113-.333.666-.559,2.016-3.129.44-1,.565-.672.328-.446.339-.672.553-.446c0-.107.119-.107.119-.107v-.226l.22-.559.339-.226.22-.22v-.226l.333-.559.118-.446,1.333-2.118.226-.226.339-.559.892-1.451.22-.113.446-.666.559-.672.672-1.118V74.69l.107-.22.226-.113.113-.113,2.231-3.343.339-.452,1.559-2.231.565-.672.779-1.231.333-.446,1.451-1.9v-.559l.339-.107.107-.339.226-.553.113-.226-.226.226-.113-.113v-.113l.226-.559.559-.113v.333l.333-.666.672-.672L258.6,59.5l.113-.333.666-.892,1.564-1.231,1.005-1.225.107-.113,3.693-4.806.22-.553.779-.785.333-.785h.119l.22-.553,1.118-1.564.22-.333,2.79-4.36,1.011-1.559.553-1.564,1.005-1.231.892-.666,2.236-3.575.446-.892,1.338-2.236.446-.892,1.79-2.57L282.271,25l1.118-1.9v-.9l.333-2.344,1.9-3.8,2.344-1.564h1.57l.774-.446a.481.481,0,0,1,.785.22,4.2,4.2,0,0,1,0,1.677l.113.113-.226,1.113h.559V17.4h-.333l-.559.553-.113.785L290.2,20.08l-1.9,2.682-1.338,3.908-1.344,1.564-.892.672-1.338,1.559-1.005,1.57-1.231,1.338h.892v.779l-.892.779h-.446l.339-.779-.565.559-.892.779-.333.226-.107.785-.339.333-.554.333-.226.226L272,45.883l-7.375,9.939.113.107-.446,1.564-1.005,1.118-.446.226-.785.446-5.359,7.257-.22.559-2.123,2.79-1.785,2.349L251.448,73.8l-.113.113-2,2.9-.119.446v-.107l-.892,1.785-.892,1.9-.559.892L245.636,83.4l-1.451,1.231a105.444,105.444,0,0,0-6.026,10.16l-.672,1.564-2.236,5.918-.666,1.79v.553l-.107.559-.339,1.457-.785.779-.333.892-1.113,6.139.107,2.908-.107.333.892-.22.779-.113,1.451-.339h.113l2.451-.666,1.9-.446,2.01-.779,2.457-.452,1.231-.446h.666a9.219,9.219,0,0,1,1.677-.446l.339-.113.774-.22c2.236-.559,4.467-1.344,6.7-2.01l.565-.226,2.677-.779,1.005-.339,3.462-1.113,1.79-.785,4.128-1.225,2.682-1.011,3.123-1.113.785-.226.892-.333,1.226-.559.565-.113a3.994,3.994,0,0,1,1.22-.446l.226-.22,6.139-2.9h.339L287.3,99.6l.113-.226h.22l4.134-1.9h.446l.666-.113,1.344-.672,1.338-.22.113-.226,1.344-.559.892-.446,2.79-1.113h.333l2.457-1.457,2.462-1.005,3.236-1.338c1.005-.559,2.01-1.005,3.016-1.451l.22-.22.446-.226.113.113,2.57-1.344-.107-.892.107-.22h.113l.226.107.328-.107h.226v.107l.446.339c1.677-.785,3.242-1.785,4.913-2.683l1.231-.672.892-.779,2.118-1.225.785-.785,2.683-1.677,1.457-1.113,3.9-2.344,3.8-3.016,1.113-.559,1.231-.9,3.462-2.231.559-.446.107-.333.446-.892.226-.339.779-.785,1.231-.446.559.226.226.113.892-.785.333-.446.559-.559v-.666l.446.113.339-1.57.892-1.672.559-.446,1.446-1.451,1.9-.559v.113l.559-.9.22-.333v-.22l1.011-1.677.327-.666.672-.9.22-.559.113-.446.339-.333.226-.559v-.446l.22-.446.333-.226h.339a12.109,12.109,0,0,1,.892-1.677l-.113-.22L361.227,48l.113-.113h.113l.113-.333-.226-.333-.113.113h-.339V47l.339-.446-.113-.22V46.1h-.107l-.226-.113-.113-.22.113-.113.226-.113-.119-.107h.226l-.107-.113-.119-.226.339-.333v-.113l.339.226.107-.452.113-.333v-.226l-.113-.107h.113v-.892l-.22-1.79-.339-2.123-.113-.446-.107-.553-.119-.113-.22-1.118-.892-1.451-.553-2.01-.119-.333-.666-1.231-.446-.785a19.751,19.751,0,0,0-1.231-1.559l-.559-.559-.446-.559-.554-.779-2.016-1.677L352.293,25l-1.005-1.005-1.451-1.118h-.107l-.339-.113-.892-.672-.892-.22-.672-.226-.22-.446-.339-.113-.559-.333-.333-.113-.113-.446a91.952,91.952,0,0,0-8.934-4.241l-.559-.113-2.01-.892-.333-.113-4.467-1.79-.22-.107-4.134-1.451-1.011-.113-1-.226-1.231-.666-1.9-.446-2.462-.785-.44-.113-1.225-.446-.9-.113-.553-.107-1.457-.446-1.9-.226-2.79-.666-1.79-.226-1.118-.226-1.113-.107-2.016-.113-.446-.333-1.338-.113-.892-.333c-.113-.226-.559-.339-1.005-.339h-.22l-1.344-.22-.666.22-2.124-.559h-.333l-2.349-.226-6.144-.446h-1.559l-.666.113h-.678l-1.564-.113h-3.575l-.553.113-2.564-.333c-1.35,0-2.575.113-3.8.113l-1.124.779-.892.559-.44.113L266.3,5.68l-1.226-.339-.339-.672-.113-.333c-1.118,0-2.118.113-3.236.22l-1,.452-.565.113-1.451.22-1.005-.446L248.991,5.9l-8.042,1.338-.107.226L236.036,8.8l-.666.559V9.136l-1.57.785-1.892.559-.339.559-.446-.339-2.57,1.677-2.01.333-.446.559h-1.005l-.779.559-2.682.892h-.113l-.333.113-1.005.559-1.672.559-1.344,1.559-4.128,1.677-2.242,1.344-1.451,1.225-.22.113.113.22v.226h.226l-.226.226.226.446V23.1l-.119.107c.339.339.226.892-.333.892h-.333l-.559.226v.113L208,24.327H207.9l-.113-.113-.226-.113-.22.339-.119.107-.666-.22-.226-.333c-2.677-.113-3.575.333-4.241-.672l-1.118-.446-.22-.559v-.559l.339-.446c-.119-.226-.119-.446.22-.672l1.784-1.225,2.01-1.79,3.467-1.451-.339-.22L208,15.393l-.107-.559.446-.446.446-.22-.22-.113h.107l.22.113.226-.113h.446l.672-.226h1.446l2.016-.559,1.005.113h.672c.107-.113.107-.113.22-.113l.446-.446,2.349-.672,2.79-1.113,1.451-.446,2.908-.785.22-.107.22.107.452-.22a19.2,19.2,0,0,0,2.344-.785c1.559-.333,1.785-.559,2.123-.559l.666-.446,1.118-.113h.113l1-.446,1.118-.333.672-.113h.785a19.689,19.689,0,0,0,2.231-.446l1.231-.779h1.005l2.677-.226a4.982,4.982,0,0,0,1.79-.446l.446.113a.981.981,0,0,1,.553-.113l.559-.339,1.338-.107.892-.226,1.79-.113a11.975,11.975,0,0,0,2.79-.446l3.462-.333.113-.113.785-.333h.446l.672-.226h1.451l2-.553,1.457.107,1.005.113h2.57c1.338,0,2.677-.113,4.128-.22l.666-.113h2.016l1-.113,2.8.113,3.117-.113.565.113h3.9l.9.113h.779l.672.107c.9,0,1.79.113,2.682.113h.785l.22.113,4.687.333h.226l.446-.113h.785l.892.226h3.129l.666-.226.226.113.22.339v.446c.113.107.333,0,.554.107l.226-.107L305.95,4h1.005l.779.107,1.79.446,1.785.339,1.333.226.785.22.672.113L315.1,5.9l.785.113.554.333.666.113h-.22L320.8,7.684c1.113.446,2.231.785,3.349,1.118h1.564l.559.333,1.446.565,3.129.779h.119l.441.113.672.107.446.226.666-.226.339.113.333.672,1.118.446,2.677,1.338h.119l1.112.672,2.344,1.338,1.9,1.231,1.005.553,1.118.892a8.5,8.5,0,0,0,1.451.785l2.451,1.564.565.113.328.446a2.457,2.457,0,0,0,.678.446l.446.22.22.226.672.333.446.452.666.446.785.446.333.333.22.779a39.887,39.887,0,0,1,3.129,3.129l.559.226.226.22.333.559.452.226,1.112,1.672.553,1.118a33.633,33.633,0,0,1,1.9,3.575l.339.333.107.672V36.5a8.458,8.458,0,0,1,.559,1.559l.113.113v.113l.226,1.338h.107l.22.9v.333c0,.559.119,1.113.119,1.672l.22.113-.22.226c0,.22-.119.446-.119.666h.119l.22.113.333.446-.107.785-.226.666-.339.339c.119,1.785.339,4.241-.328,5.246-2.57,3.908-4.467,7.6-7.262,10.719v.226h-.226l-.666.785-.892.892L354.2,65.09l-.785.446-.226.113-.779.446-.559.559-.446.333h.333l-.107.339-.446.22h-.119l-.44.226-.339-.113-.113.333h-.333l-1.677,1.118-.333.333-.892.672-.559.553-1.451.9-.553.559-3.247,2.231-.892.672-.328.339.107.107v.559l-.107.559-.452.559.113.446-1.677,1.672-.226.113-.328.226.107.226h-.107v-.113l-.678.333h-.107l-.339-.113-.22.113h-.333l-.22-.113-.226.113-.785.226-.339.446-.441.446-.779.22-1.124.113-1.113.333-.446.226-1.338.892-.339.446-.339.113-1.784.446-1.338.785-.22.107-.113.113-.559.446-.785.446-2.457,1.677-.333.446-.333.107h-.226l-.333-.333v-.113l-2.236,1.124-.22.333-.559.446-.892.113c-.113,0-.333.107-.452.107v.113l-.441.226-.339.333-.226.333-1.22.559-.232-.113-.666.446-4.693,2.349-1.785.333-2.908,1.338-.22.226-.672.446-.22.113v-.113l-.113.113-.446.22-.553.113-.226.22-1.451.678-.226.22-1.005.446-.666.333h-.339l-1.005.446-.113.226h-.333l-1.344.333-1.333.672-.892.113a12.8,12.8,0,0,0-2.242.892v.107l-.22.232-.785.107-.779.339-3.8,1.559-1.113.226-2.908,1.113-.666.339-1.231.333-1.564.559-2.344.892-.339.339V107.3l-3.908,1.338-.333.113v.113h-.107l-5.252,1.677-.446.333-.672.333h-.779a1.558,1.558,0,0,0-.672.226l-.559.446-1.564.113-1.338.333v.22l-2.236.559h-.113l-10.719,3.016-.559.339-.779.22-1.231.333-1.672.452-5.478,1.338-1,.559H233.8l-2,.113a3.388,3.388,0,0,0-1.118.22l-.113.559-1.005,1.9-.333,1.451-1.005,1.005h-.672l-.446-.107-.226-.559-.113-.226v-.339l-.107.226v-.226l.107-.107.565-2.683v-.107h-.339l-1.338.553H225.2l-1.338.452-1.457.333-1.113.333-1.79.446-.779.226-2.344.107-.785.226ZM312.981,88.43h-.113v-.113Z" transform="translate(643.32 8.733)" fill="#fff"/>
      <path id="パス_13" data-name="パス 13" d="M219.77,35.319l.113-.22.22-.339,2.011-2.457.446-.892.333-.333.113-.226.339-.22,1.333-1.451.452-.565V28.4l.113.113.328-1.118-.107-.113-.559-.107H223.9l-1.338.333-3.242,1.225-.779.226-.553.113-3.247,2.01h-.107l-.892.559-.785.333-.785.446-2.564,1.231-2.57,1.451-1.005.446-1.672.892-.559.22-1.338.785-.678.226-2,1.225-.672.446-.666.559-1.005.333-1.011.446-2.677,1.457-.22.22-1.124.672h-.22v.113h-1l-1.35.553h-.892a4.368,4.368,0,0,1-1.113.446l-.446.339-2.236.779-.446.113-1.677.666-.22.113-.333.113h-.339l-.666-.113h-.113c-1.785.226-3.242-.113-3.688-1.338-.446-1.451,0-3.129.785-4.913l.446-1.338.333-.113.113-.446.446-.672.22-.446.226-.113v.113l.226-.559.779-1.118,1.231-.892.22-.22.892-1.457.452-.553.892-.672,1.333-1.118,5.032-4.467v-.107h.113l1.446-1.231.339-.339,1.9-1.559.892-.559,2.908-2.123.107-.113,1.344-1.451.553-.553.446-.785.226-.113.779.113.339-.22.779-.226.446-.113.559-.107.446-.339v-.22l.892-.339,3.575-1.785.672-.559.446-.226.9-.22.22.113.226-.113,1-.333h.339l.559-.339.779-.107.666-.226.785-.22.446-.113,1.118.333.672-.113h.672l.441.113h.226v.113h.446l.339.22.107.226.446.113.22.553v1.005l-.328.226c-.113.333-.446.559-1.231,1.338a.648.648,0,0,1-.785,0l-1.225.339-.779.113h-2.016l-1.785-.226v.113h-.446v-.113h-.22l-.785.113h-.785l-1.559.666-1.785.785-2.57,1.113-1.79.785a16.63,16.63,0,0,0-1.9,1.231c-.107.107-.107.107-.107,0L200,21.138l-.113.113-.226.107-5.02,3.688-.446.446-1.005,1.118-.785.779-.779.446-1.005.559-.333.333-1.005,1.118-.22.226-.232.333-1.338,1.677-.333.22-.22.226-.339.22-.22.452-.339.446h-.22l-.226.559-.446.553-.22.446-.565.559-.553.672-1.118,1.344V38l.113.672-.113.22v.226l-.22.22-.452.333-.333.452-.559.666-.446.672v.22l-.107.226v.672l.22.333.333.559.339.22,2.344-.892,1.005-.22,1.564-.559h.107l.559-.113c1.457-.559,2.908-1.231,4.36-1.9l.553-.339.785-.446.559-.446h.892c1.225-.553,2.569-1.113,3.8-1.785l.553-.446.785-.339V36.1l.22-.113.333-.333.452-.113,1.672-.785.9-.446.779-.446L206.7,32.3l.779-.559,3.129-1.451.666-.22,2.016-1.005,1-.785,2.016-1.005.553-.446.9-.559.553-.446,1.338-.892,1.451-.892,3.467-.785h1.338l1.011.226.774.446.446.333a1.263,1.263,0,0,1,.9.785v.113l.226.113v.446l-.119.333h.226l-.107.22-.119-.107-.22.22-.22.339-.226.446-.666.553a3.127,3.127,0,0,1-.565.672l-.779,1.231-.672.559-.333.107-1.338,1.564-.226.226v.107l-.226.113-.666.9-.226.333-.22.446-.892,1.225a2.651,2.651,0,0,0-.446.785l-.339.892-.107.113a1.509,1.509,0,0,0-.226,1.118c0,.333-.113.113.333.22.113,0,.22.113.339.113l.553-.113h.785l.22-.107h.785l.559-.113.226.113c.779-.113,1.446-.339,2.451-.559l.892-.226.785-.339h.666l3.914-1.113.333-.226,1.231-.333v.113l1.451-.446.892-.446.446-.113.446-.333,3.682-1.005v-.226l.339.226,1.005-.339.333-.333,5.365-1.564h.553l2.8-.892a.4.4,0,0,1,.333.113h.226l.107.779-.446.333h-.892l-1.9.446-1.338.672h-.446l-1.79.446-.892.339-2.57,1.225-1.9.779-2.124.672-2.451.892L235.4,37l-1.118.446-.553.339-.9.333h-.113l-.779.333-.892.559-.339.113-.22.22-2.9,1.005v.226l-.113-.113-.892.333-.113.226-1.9.666-1.677.565-.559.446-.107.107-.113-.22-.339.113-.22.22-.226-.113-.107.113-.785.226h-1.231l-.22-.113h-.779l-.559-.226-.446-.22-.339-.446.113-.565-.113-.446a2.307,2.307,0,0,1,.113-1.451l.333-.779.113-.446.785-1.005.333-.559.892-1.118Z" transform="translate(824.844 52.571)" fill="#fff"/>
      <path id="パス_14" data-name="パス 14" d="M225.544,24.811l2.683-1.451.446-.446.333-.22,1.005-.232.339-.22.226-.226.44-.107,2.9-1.451.446-.339.9-.779.333.113.666-.446.339-.113.892-.333.226-.226.559-.339.779-.22h.333l1.118-.559c.113,0,.559-.333,1.005-.446l.113-.22,1.225-.672.339-.113.113-.113.553-.107.672-.672h.559l.107.226a1.908,1.908,0,0,0,.565-.226l2.118-1.118.446.113,1.118-.559.672-.446.779-.113.559-.446.892-.333.339-.113,1.225.226.559-.226h.892c2.124-.333,3.688,0,3.914,1.338v.113h.22l.559.559v.559h.333l.226.226-.226.22-.333.113-.226.559v1.113l-1.338,2.123-.559,2.9-.779,1.344-.785.446-.779,1.225-.779,1.338-.565.892h.565l.22.565-.559.779h-.559v-.559l-.226.339-.553.446-.446.779v.333l-.339.113c-.107.113-.22.226-.22.333V30.4l-.339.333-2.451,3.908-.119.113a7.256,7.256,0,0,1-.774,1.118l-.119.446h-.107l-.785,1.225v.113l-.113.333-.333.452v.333l-.446.333v.446l-1.113,1.011L244.3,42.007l-.553,1.344-.226.107-.446.672-.559.672-2.9,4.128-.446.226-.226.446-1.113,1.79-.565.333c0,.113-.107.22-.22.333l-.559,1.118-.446.339-.446.779v.113l-.113.107-.44.892v.226l-.339.113-.226.22-.333.672-.892,1.113-.559.678-.559.779-.113.333-1.338.892L228.9,62.9l-.226.666-.779,1.118-1.011,1.113-3.456,4.58-.339,1.118-.446.446-.779.113-.22-.113-.785,1.344-1.118,1-.22.113-1.79,2.123-1.005,1.231v-.113L215.5,79.088l-.113.333-.892,1.344-.672.892-.559.446-2.01,2.79v.113l-.559,1.225-.892.785q-2.677,3.685-5.026,7.7l-.107,1.118-.672.779-.113.672-.339.226h-.107l-2.344,5.139L199.747,105l-1.451,3.016-1.113,2.451-.559,1.124-.785,2.118-.107.333v.339l-.119.333-.107.672-.113.333-.113.446.113.446-.333.339-.339,2-.113.452-.446,1.225-.107.446-.446,1.344-.446.666-.113.672-.333.559h-.232v2.9l.452,2.01.333,1.338.22,1.564v1.005l-.22.446v.339l-.107,1.9-1.005,1.564h-.339l-.333-.226-.339-.672-.22.333-.559-.107-.333-.226-.119-.113.339-.553.226-2.682v-.672l-.113-.559-.226-2v-.892l.339-1.457v-.446l.333-.666v-.446l.226-.339a15.814,15.814,0,0,1,.554-2.457,12.719,12.719,0,0,0,.565-1.9v-.559l.22-.559a.105.105,0,0,0,.107-.107l-.107-1.011.107-.446.452-.779.226-.226a63.915,63.915,0,0,1,2.118-6.585,12.521,12.521,0,0,1,.779-2.123l1.005-3.242.452-.666.779-1.231.779-1.672.339-.672c1.338-2.457,2.683-4.913,4.128-7.257l.559-1.231.446-.559,1.231-1.9.22-.446.672-1.005,1.005-1.451.565-1.005.441-.559c.113,0,.113-.113.226-.226l.333-.553.446-.672,2.8-3.908.107-.113v-.22l.226-.113,1.005-1.231v-.226l.553-.553.232-.559.666-.672.672-1.005.553-.892.339-.339.666-.779.565-1.118.892-1,.559-.446,5.806-7.262.22-.892,1.118-1.005.446-.339,1.344-2.01.333-.22.441-.446.339-.559,1.011-1.344.666-.779.779-.892,2.344-3.129.113-.113.339-.666,1.559-2.344.565-1.011,2.118-2.9,1.118-1.677,3.129-4.36,2.677-4.467.785-1.113.779-1.451,2.683-3.8,1.559-2.57,1.344-1.672.107-.226.672-1.564.113-.446.339-.779-.119-.226h-.333V20.79h.333l-.559-1.672-.22-1.677.22-.785.119-.446-.565-.333-2.451-.226-2.683.226c-2.457.892-4.8,2.01-7.15,3.016l-7.144,3.569-1.011.565-.44.113-.226.107-.113.226-1.564.779h-.333l-.779.559-.672.226-.339.22-.327.446-.452.226h-.446l-.226.107v.226l-.553.333-.22.333-.565-.107-.333.226-2.01,1.225-.559.113-2.457,1.451-.892.333-1.344.779-.553.113-2.01,1.231-.333.333-.446.113-.232.226-.446.333-.22.113-.446.107-.779.452-.9.333-.892.559-.226.333-1.005.559-2.231.339-1.564.779-.672.22h-.446l-.22.113v.226l-.333-.113.107-.113h-.22a16.449,16.449,0,0,1-2.123.672l-1.785.666-1.564.559-.892.226h-1.011l-.446-.226-.328-.333-1.124-1.677c0-.107-.107-.22-.107-.333-.446-1.231-.119-3.242,1.231-6.365.44-1.118,1.112-2.236,1.672-3.349a15.273,15.273,0,0,1,1.9-2.908l.44-.666.452-1.231.774-1.451.226-.672.672-1.446,2.123-2.236,1.338-2.123.785-.672.446-.333.22-.446-.22-.226h.328v.226l.452-.113v-.113l.22-.446,1.118-.779,1.225-.226.118.113.333-.22c.226-.113.333-.113.559.107.113.113.22.226.22.339a.343.343,0,0,1,.113.22h.107l-.107,1.118-.333,1.005-.785,1.118-1,1.451-.892,1.338v.113l-.9.672-.559.446-5.918,5.58-.339.452c-.666,1-1.451,2.01-2.118,3.123l-.892,1.564-.226,1.005-.226.785-.22.333-.559.779-.113.339-.22.107h-.113a4.3,4.3,0,0,0-.226,2.57c.339,1.564,2.016,2.123,6.144.785l1.005-.333.226-.226,1.451-.672.553-.113h.339l.333-.22H206l3.242-1.9.892-.339,1.118-.22.559-.333,1.451-1.011.892-.22.779-.339.226-.22h.226L222.2,26.6l.113-.113.553-.446,1.005-.446.339-.553h.333Z" transform="translate(882.603 51.13)" fill="#fff"/>
    </g>
  </g>
</svg>
