<svg xmlns="http://www.w3.org/2000/svg" xmlns:xlink="http://www.w3.org/1999/xlink" width="782.545" height="129.04" viewBox="0 0 782.545 129.04"><defs><style>.a{clip-path:url(#a);}</style><clipPath id="a"><rect width="782.545" height="129.04"/></clipPath></defs><g class="a"><path d="M91.659,32.947l.843-.916.077-.151.151-.232-.077-.456.077-.228.533-.232.383-.456,1.071-.843,1.144-.916h.155l.456-.46v-.151l.081-.383.456-.537.305-.077h.155l1.071-1.144.839-1.148,1.225-1.3,1.372-1.759.309-.611.615-.688.379-.228,1.144-1.071.692-.765,1.678-1.6,1.148-1.608,2.447-2.06.151-.077.309-.228.151-.232.232-.537.456-.228.232-.077.155-.228h-.387l-.305-.077-.305.077-.151-.077h-.232l-.305.077-.073.077-.537.305-.077.077-.228.073-.077.077-.533.387-1.225.151-1.91.611c-1.914,1.148-3.75,2.219-5.733,3.286l-.232.155-.305.151c-4.125,2.142-8.485,4.206-12.768,6.193l-1.3.916-.151.232-.228.073h-.383l-.387.232H84.09l-.073.077-.765.305-.309.077-2.06.839-.765.305-.688.46-.533.077-.309.073a4.617,4.617,0,0,1-.916.383v.077l-.228.151h-.228c-2.219.92-4.434,1.685-6.653,2.6l-.155.151-1.832.692h-.151l-.232.077-.537.305-3.437,1.067-2.524.916-.228.155-.993.383L59.4,34.1l-.533.232-.692.305-.916.151-1.067.46-1.917.305-.151.151-.611.077-.762.537-.081.228-.228-.151-.456-.232a1.083,1.083,0,0,1-.46.155l-.155.077H51.3l-.537.305-.228.151h-.537l-1.144.305-.077.077-4.434,1.376H43.8l-1.91.611-.228.155-.305.155h-.92l-1.3.228-4.585,6.572v.155l-.46.916-.456.46-.232.151-1.682,2.524-.077.151-.228.305c-.533.769-1.071,1.453-1.527,2.219l-.232.383-.688.92a10.783,10.783,0,0,0-.765,1.222l-.073.228-.688,1.071-.305.305v.232l-.305.456-.305.305v.155l-.232.383-.383.305-2.138,3.437v.155l-.46.765v.077l-.383.611V64.9l-.46.228-.383.839-.843.692h-.073l-.305.993L20.72,68.8l-.843.765-.46.688-1.071,2.3-.228.684-.993,1.453-.155.843L15.9,77.364l-.383,1.148-1.071,2.6-1.071,2.83-.533.688-.232.916-1.372,2.447-.615,1.527v.077c-.305,1.071-.684,1.987-1.071,2.98v.155l.387.151.073.232H9.788l.684,1.222.383,1.3-.077.611-.224,1.225-1.3.916-.916-.151-.92-.228-.379-.46-.151-.533-.309.073L6.5,96.858H6.73L6.8,96.63v-.387l-.073-.762.155-.383a12.981,12.981,0,0,1,.3-2.219l-.077-.762.387-.843.073-.151.688-1.987v-.309l.077-.228-.077-.383.232-.379.151-.615.155-.305.379-.46.993-2.215.077-.305.077-.46.305-.916.228-.383.081-.456.151-.309,1.222-3.669v-.383l.155-.456-.077-.537.155-.305.228-.533.151-.309.537-2.826-.155-.92.228-.456.232-.843.151-1.071v-.456l.081-.305.228-3.672V62.84l-.155-.916-.383-.843-.073-.611v-.765l-.081-.383A8.221,8.221,0,0,0,10.244,55.5l-.611-.228-.305-.305a.076.076,0,0,0-.077-.077l-.533.077-.92-.688L6.653,53.59,5.2,53.056l-.537-.309-.456-.228L3.9,52.291a5.874,5.874,0,0,1-2.447-1.682H1.225L.155,49.079l-.077-.073.077-.077L0,48.394l.537-.464H.615l.073-.073.155-.232L.92,47.7l.073-.077.537-.151.383-.383.155-.077.305-.383v-.151l.228-.228.3-.383.464-.228H3.44v-.077h.232l.073-.155v-.155l.081-.077v.077l.456-.077v.077h.305l.151.081h.387l.379-.081.611-.456H7.341c.073,0,.073,0,.155-.077l.151-.077H7.72l1.914-.611.155-.077.684-.383.305-.228.688-.151.309.073.151.155,1.836-.383.232-.151.53-.077c2.447-.537,5.049-1,7.724-1.453l.383-.155.228-.151.155.077.305-.155.765-.077.762-.228H25l.688-.155.843-.073.379-.155.155-.077.839.155,3.29-.533a.286.286,0,0,0,.155-.077l.151-.077.073.077.688-.155.692-.383.305-.155.456-.151.232-.155H34.1l.155-.073.456.151,1,.077c1.222-.228,2.37-.533,3.437-.765l.46-.839.839-1.148.92-1.376.684-1.3.232-.305v-.155l1.991-2.9v-.232l.151-.228,1.759-2.524v-.305l-.077-.305.383-.611.456-.228.232-.077.228-.456.151-.232.081-.151H47.7l.155-.228.533-1-.077-.228.232-.46-.077-.228.077-.077.077-.228L49,21.942l.155-.843.456-.456h.155l1.45-3.058.537-.688v-.46l.232-.456v-.537l.155-.611.151-.305.533-.537.151-.383.232-.379.456-.46.081-.228.379-.765.305-.688.232-.688.151-.305.155-.533.151-.232-.073-.46.073-.228.537-.228.383-.46.611-.533.073-.077V7.264l.081-.077L56.57,6.038l.151-1.3.081-.537.53-1.376,1.075-.993h.762l.611.305.155.383v.151l.155-.228h.456l.537.228.232,1.991-.769,1.759-.073.383v.456l-.611.993-.92,1.225L57.8,10.627l-.765.916v.077l-.155.228.232.387v.305l-.305.839-.46.688-.077.46-.537.073-.305.46-.305.383L52.67,19.189l-.073.46-.456.383-.232.533-.537.92-.305.379-.305.46-.073.077c-.081.073-.155.151-.155.228l-.383.839-.537.769h-.073v.073l.155.155-.081.077h-.073l-.305.379h-.077l-.383.383H48.7l-.762,1.222-.155.155v.383l-.305.305.073.077-.151.077-1.832,2.6h.073L42.967,34.4l-.615.537-1.832,2.9.456-.151,2.98-.765v-.077l.533-.305.692-.073,1.144-.309,1.376-.305,1.682-.46.228-.151.769-.305.916-.383.456-.155.077-.073,1.376-.077c.916-.228,1.836-.533,2.752-.839l.151-.155h.155l.843-.232.224-.151,1-.46,3.286-1.071,1.071-.379.383-.077.155-.077v.077l.537-.155,3.058-1.222,1.067-.383.916-.077,3.9-1.376.305-.305.456-.305.769-.077,1.222-.765,1.45-.305.309-.073h.077a10.068,10.068,0,0,1,1.372-.537l.843-.456.843-.537,1.527-.46,2.064-.762.3-.155,2.528-1.071.073-.151.232-.155.533-.383,2.37-.839c.077,0,.155-.077.228-.077l.305-.383h.46c2.142-.993,4.2-2.064,6.344-3.135l.92-.688.684-.456.537-.228.305-.232,3.6-2.142.073-.073.383-.155,3.44-1.682.155-.228.228-.155.843-.46.456-.073.155.073.228-.151.611-.383.077-.077.151-.228.232-.077.383-.232,2.907-1.983.305-.383.151-.533V5.81l.228-.077.305-.151L115.2,5.5l1.225-.383.151-.073.611-.765,1-1.531.684-.533,1.45-1.376L122.546,0l.835.537.615.611-.077.611L123,2.675l-.305.537-.151.232a15.826,15.826,0,0,1-2.834,2.594l-.379.769-1.144,1.067-.615.611H117.5l-.383.843-.684.537-.232.456-.232.077-.073.077-.232.073H115.2l-.537.383-.305.155-1.6,1.682v.077l-.46.611h-.224l-1.991,1.987-.456.611-.155.232-.155.073-.916.92-.228.305-.383.228-1.222,1.225-1.225,1.45-1.071.611-.688.615-.611.611-1,1.376-.3.305-.92.993-.228.077-.533.533c-.615.611-1.148,1.222-1.6,1.759l-.309.611-.155.383-.611.305-.762.843-.537.533-.379.537-.305.383-.383.456h-.081l-.916,1.071-.073.151-.077.305-1.527,1.531.073.155h-.155l-.228.228-.155.228h-.073v.155l-1.991,2.292-2.292,2.83-.073.305-.232.077c0,.077-.073.151-.151.228v.155l-.383.379c-.993,1.3-2.064,2.6-2.984,3.9l.081.155v.228l-.232.533-.305.305-.077.309-.46.073-.228.305-.228.232-1.222,1.453-.537.916-.383.456v.077l-.077.077-.228.305-.155.228-.305.309a1.743,1.743,0,0,0-.305.456l-.228.232L77.29,54.2l-.077.309-.692.99H76.37c-.533.843-1.071,1.6-1.527,2.447v.305l-1.91,2.6-.232.383v.228h-.155l-.228.228-.46.765v.151l-.611.769q-1.948,2.975-3.9,6.189v.077l-.228.383-.077.383-.379.305c-.615.993-1.225,1.987-1.763,3.058h.081l-.081.305h-.228c0,.077,0,.151-.077.151l.077.305-.456.383c-1.225,2.3-2.374,4.739-3.363,7.113l-.077.228-.155.151L59.4,85.544v.228l-.151.155a30.668,30.668,0,0,0-1.225,3.518l-.077.611-.077.537V91.2l-.456,1.91v.151l-.46.92-.077.839.155.155-.155.151-.155.46-.3,1.682v1.148l-.077.305h-.077V101.6l.077.077.155.684.073.232.077.305-.077.155.151.533.232.305.077.916.228.692.228,1.222-.073.151.073.155.158.383v.383l.151.611.228.232.456.073.232.232.155.456-.081.46-.305.073H58.1l.155.46-.155.46V111l-.232.155-.456-.305-.305-1.071-.155-.228.077-.232a.449.449,0,0,1-.077-.305l-.151-.305v-.232l-.232-.379-.073-.537-.305-.379-.155-.765v-.839a12.334,12.334,0,0,1-.688-5.2v-.46l-.232-.305-.073-.232.305-.533v-.688l.305-1.376.456-1.454.232-.151V94.64l.155-.611.305-.916.228-1.3.151-.765.077-.228v-.46l.228-.993.158-.611L58.024,87a18.184,18.184,0,0,1,.688-2.292v-.228l.228-.464.765-1.678-.151-.537.073-.228.46-.232.077-.151c.456-1.071,1.067-2.292,1.678-3.518l.232-.688.232-.305.073-.839.155-.228.383-.537.379-.305.232-.46L63.761,74c.684-1.222,1.372-2.524,2.134-3.746l.081-.228.228-.383.151-.151.688-1.3.537-1.376.762-1.222.309-.232.916-1.3.155-.228.916-1.454V62.3l.151-.533.309-.383.151-.533.232-.537.228-.228.533-.383.537-.765c.99-1.6,2.064-3.135,3.131-4.739l.232-.533.533-.843.537-.533.383-.46-.081-.073V51.22l-.151.077v-.155h.151l.081-.155.073-.228.155-.305.533-.765.383-1.222.46-.383.151-.155.383-.456.305-.46.309-.305-.232-.077.077-.228.155-.151.151-.077v.077l-.077.228.537-.533.073-.232.232-.073.843-1.075.224-.305.46-.533.383-.533.993-1.148.073-.232,2.3-2.752.232-.305.379-.456.077-.155.537-.762.305-.077.073-.228.993-1.148.155-.077.383-.383.155-.305.305-.305h.073l.232-.383.305-.305.077-.305.379-.456ZM9.405,46.786c-.155,0-.305.155-.387.155l-.224.151H8.64L7.5,48.008l-1.38,1.225-.839.383-.383.611v.228l.155.077v.077l.077.151.305.228.456.309h.537l.533.383.383.688,1.067.611.309.077.916.533.309.228.073.077,1.225.615.533.684a13.814,13.814,0,0,1,1.987,2.3l.383.151.155.305v.305l-.077.232a11.336,11.336,0,0,1,.762,1.755,23.127,23.127,0,0,1,.46,6.2l.077.228.077.533-.232.688v.765l.155.843-.232.916-.228.839.073.155-.151.993-.151.155c-.155,1.3-.46,2.594-.688,3.974l.611-1.225v-.46l.155-.611.151-.305.537-.533.151-.383.228-.383.383-.383a.576.576,0,0,1,.155-.305l.379-.765.309-.688.46-.684.151-.305.155-.537.151-.232-.077-.456.077-.228.305-.232.383-.456.839-.688.615-1,.077-.228.228-.305.155-.383h-.081l.081-.305.305-.688.379-.611.383-.305.387-.077L22.63,62l.383-.688v-.762l.228-.155.537-.077c.916-1.376,1.832-2.826,2.826-4.2l.151-.46.232-.305.228-.155.383-.533L30.5,50.455v-.305l.151-.228.232-.077,1.3-1.836,1.91-2.83.077-.073.456-.537v-.151l1.3-1.987.387-.383L37,41.282l.228-.305v-.151l.305-.537.151-.151c-1.144.228-2.215.456-3.363.611H34.25l-.232.077-1.832.379h-.46l-.688.077-.3.077h-.313v.077l-.611.151-.456.077-1.376.305-.151-.077-1.148.383-1.225.232-1.91.383-.533.228-.537.151-.228.077-2.98.765-.151.077h-.232l-2.6.611-.224.151-.309.228-.533.232-.383-.155-.309-.077-.151.077-.305.081-.073.073h-.158l-.684.383h-.537l-.228.305-.155.077-.155.228h-.151l-.073.077-.46.077-.92.228Z" transform="translate(0 0)"/><path d="M51.373,27.745l.077-.151.151-.232,1.376-1.682.305-.611.228-.228.077-.155.232-.151.912-.993.309-.387v-.151l.077.077.224-.765-.073-.077-.383-.073H54.2l-.916.228-2.219.839-.533.155-.379.077-2.223,1.376h-.073l-.611.383-.537.228-.537.305-1.755.843-1.759.993-.688.305-1.144.611-.383.151-.916.537-.464.155-1.372.839-.46.305-.456.383-.688.228-.692.305-1.832,1-.151.151-.769.46H32.49V33.1h-.684l-.924.379h-.611a2.99,2.99,0,0,1-.762.305l-.305.232-1.531.533-.305.077-1.148.456-.151.077-.228.077h-.232l-.456-.077h-.077c-1.222.155-2.219-.077-2.524-.916a4.977,4.977,0,0,1,.537-3.363l.305-.916.228-.077.077-.305.305-.46.151-.305.155-.077v.077l.155-.383L25,27.668l.843-.611.151-.151.611-1,.309-.379.611-.46.912-.765,3.444-3.058v-.073h.077l.99-.843.232-.232,1.3-1.067.611-.383L37.078,17.2l.073-.077.92-.993.379-.379.305-.537.155-.077.533.077.232-.151.533-.155.305-.077.383-.073.305-.232V14.37l.611-.232,2.447-1.222.46-.383.305-.155.615-.151.151.077.155-.077L46.63,12h.232l.383-.232.533-.073.456-.155.537-.151.305-.077.765.228.46-.077h.46l.3.077h.155v.077h.305l.232.151.073.155.305.077.151.379v.688l-.224.155c-.077.228-.305.383-.843.916a.444.444,0,0,1-.537,0l-.839.232-.533.077h-1.38l-1.222-.155v.077H46.4v-.077h-.151l-.537.077h-.537l-1.067.456-1.222.537-1.759.762-1.225.537a11.391,11.391,0,0,0-1.3.843c-.073.073-.073.073-.073,0l-.692.533-.077.077-.155.073-3.437,2.524-.305.305-.688.765-.537.533-.533.305-.688.383-.228.228L30.5,24l-.151.155-.158.228-.916,1.148-.228.151-.151.155-.232.151-.151.309-.232.305h-.151l-.155.383-.305.379-.151.305-.387.383-.379.46-.765.92v.151l.077.46-.077.151v.155l-.151.151-.309.228-.228.309-.383.456-.305.46V32.1l-.073.155v.46l.151.228.228.383.232.151,1.6-.611.688-.151,1.071-.383h.073l.383-.077c1-.383,1.991-.843,2.984-1.3l.379-.232.537-.305.383-.305h.611c.839-.379,1.759-.762,2.6-1.222l.379-.305.537-.232v-.073l.151-.077.228-.228.309-.077,1.144-.537.615-.305.533-.305,2.064-1.071.533-.383L45.1,24.3l.456-.151,1.38-.688.684-.537L49,22.24l.379-.305L50,21.552l.379-.305.916-.611.993-.611,2.374-.537h.916l.692.155.53.305.305.228a.864.864,0,0,1,.615.537v.077l.155.077v.305l-.081.228h.155l-.073.151-.081-.073-.151.151-.151.232-.155.305-.456.379a2.142,2.142,0,0,1-.387.46l-.533.843-.46.383-.228.073-.916,1.071-.155.155V25.6l-.155.077-.456.615-.155.228-.151.305-.611.839a1.813,1.813,0,0,0-.305.537l-.232.611-.073.077a1.033,1.033,0,0,0-.155.765c0,.228-.077.077.228.151.077,0,.151.077.232.077l.379-.077h.537l.151-.073h.537l.383-.077.155.077c.533-.077.99-.232,1.678-.383L56.8,29.2l.537-.232h.456l2.679-.762.228-.155.843-.228V27.9l.993-.305.611-.305.305-.077.305-.228,2.52-.688v-.155l.232.155.688-.232.228-.228L71.1,24.765h.379l1.914-.611a.276.276,0,0,1,.228.077h.155l.073.533-.305.228h-.611l-1.3.305-.916.46h-.305l-1.225.305-.611.232-1.759.839-1.3.533-1.453.46-1.678.611-.309.155-.765.305-.379.232-.615.228h-.077l-.533.228-.611.383-.232.077-.151.151-1.987.688v.155l-.077-.077-.611.228-.077.155-1.3.456-1.148.387-.383.305-.073.073-.077-.151-.232.077-.151.151-.155-.077-.073.077-.537.155h-.843l-.151-.077H50.3l-.383-.155-.305-.151-.232-.305.077-.387-.077-.305a1.58,1.58,0,0,1,.077-.993l.228-.533.077-.305L50.3,29.2l.228-.383.611-.765Z" transform="translate(64.276 32.417)"/><path d="M45.5,36.231l.993-.843,2.756-2.37.3-.228h.077l2.219-1.914,1.3-1.067.228-.383,1.225-.765,2.288-1.836.309-.305.3-.456h.313l.224-.228.46-.387.456-.383h.081c.077,0,.077-.073.151-.073l.305-.46.688-.611.155-.228,1.759-1.453v-.077h.151l.383-.383.077-.228,2.447-2.064.3-.155,1.071-.839.155-.228.155-.155h.155l.53-.46.232-.305.151-.073V17.2l.232-.228.077-.155,2.06-2.064v-.077H70.5l.533-.611.155-.151,2.443-2.374.615-.684L75.393,9.4a.27.27,0,0,1,.155-.077l.228-.383h.232l.155.228.151.155-.151.305-.081.077c-.688.916-1.527,1.832-2.366,2.752l-1.38,1.453-.073.228-.383.383-.228.305L71.5,14.9l-.46.383v.077h-.077L69.965,16.5l-.073.077-.232.155c-.151.155-.228.305-.383.383l-.228.305-.383.533-.305.155-.228.077-1.376,1.3v.073l-.305.158-.537.533-.762.839-2.219,2.219-.383.151-.537.305-4.967,4.357-.073.155-.611.765-.993.688-.843.993-.46.383-.688.533-.916.537-.46.305-.46.456-.379.232-.232.228A33.908,33.908,0,0,0,48.1,36.076L46.5,37.912l-.383.228L43.972,39.9l-.305.383-.456.537-.533.305-.309.073v.077l-.533.305-.151.228-.232.232-.073.533-.305.155-.158.228v.151l-.456.46.077.077-.077.073-.077-.151-.3.151-.232.232H39.77l-.151.077-.615.46-.762.073-.387.232-.305-.077-.611.077-.151.073h-.537l-.228-.151h-.077l-.151-.228-.228-.155.073-.533-.379-.92c0-.077.073-.151.073-.305l-.228-.151-.077-1.453-.077-1.3.077-.537L34.8,38.6l.155-.228.309-.305.151-.305.155-.387.073-.305.232-.762.224-.765.232-.765.077-.155.615-1.832-.081-.46.155-.305.228-.537.155-.151.611-1.91.383-1.914.228-1.527.537-1.453v-.46l.228-1.144.46-.843.379-.151h.305l.615-.843,1.6-1.222.309.155.3.305-.077.379c.155.077.155.232.155.383a1.3,1.3,0,0,1-.228.46l.073.611-.839,2.447-.993,2.064-.077.916-.46.688-.383.537-.073.228-.155.155-.3.379-.46,1.071h.073l-.073.077-.232.533a8.8,8.8,0,0,0-.456.843l-.077.077-.077.611-.533.839v.155l-.228.456-.309,1v.305l-.073.151c-.611,2.068-1.608,5.81-.843,6.116a1.469,1.469,0,0,0,.611.077l.077-.077.305-.151h.232l.762-.305.993-.765,1.453-.843.305-.151.228-.155.92-.762.228-.232.688-.684.765-.769.383-.456.456-.155Z" transform="translate(99.723 25.617)"/><path d="M44.784,28.594v.383l-.383.383-.228.305c-.081,0-.081.073-.081.151v.228l-.3.464-.077,1.91a2.25,2.25,0,0,0,.155,1.527c.456.537.224.537,2.138,1.148l1.3.305H48.3l1.148-.155,5.578-1.222,1.075-.456,2.98-1,.611-.383L60,32.035h.155l4.585-1.91h.305l.537-.309.688-.151,2.52-.916.305-.077c2.752-1.148,3.823-1.836,6.5-3.058L77.272,25l.077-.155.46-.228,1.372-.46,1.453-.611V23.4h.232l.916-.456.077-.155,4.129-2.524.383-.073a16.373,16.373,0,0,0,1.678-1.148.293.293,0,0,1,.464.077v-.077l.305-.228.305.077.224.688-.379.151-.688.228-.383.155-1.759,1.225-.379.533h-.383l-.309.151c-.688.46-1.45.843-2.138,1.225l-.077.073-.533.305-.309.232h-.228l-2.447,1.222-.073.155-.309.077-.611.305-.151.077-1.075.684-2.9,1.225c-.916.46-1.832.993-2.752,1.376l-.228.228-3.819,1.836-.309.228-.155-.228-.839.533-.916.155-.611.305h-.077c-.993.456-1.987.839-2.98,1.225l-1.148.611-2.37,1.144-.611.155-.92.151-1.3.383-.765.077-.305.151-.305.232-.993.228h-.155a17.659,17.659,0,0,1-3.058.688l-.224.228-.387.077h.077l-1.527.305-.46-.151-.839.305L44.4,37.54,42.72,36.7l-.762-1.071-.387-.993-.228-1.067v-1.3l.077-.151-.077-.155v-.533l.533-1.914.537-.916.611-1.376.456-.765.155-.151.232-.611.456-.383.228-.537.464-.688.224-.228.843-.383.305-.383.537-.228.611-.46.151-.077.765-.684.688-.537.537-.765.305-.305.379-.456.305-.232.464-.151.151-.232.379-.379.611-.232.383-.151c1.685-1.225,3.444-2.524,5.277-3.6l.151-.155.769-.533.993-.383c.073,0,.151,0,.151-.077l.92-.611.533-.305.228-.073,1.071-.155c.839-.309,1.682-.615,2.524-.843l.688-.383h.762l.46-.151.232.151a12.759,12.759,0,0,1,1.755.077l.077-.077.232-.073.151.073.228-.073.077-.077.456.151v-.073h.081l-.081.151.232.155h.228l.077.151H71l.46.228.077.077c.387.309.688.537.765.92l.232.077-.081.151h.081L72.455,13v.383l.081.305-.155.533-.155.228v.46l-.3,1.148-.615.993-.765.762-.843.537-.684.46-2.679,1.376-.379.305-.537.151a50,50,0,0,1-5.578,3.286l-.077.155-2.219,1.071-.993.688-1.987.839-1.453.537-2.064.383-1.222.077H49.3l-.46-.228-.151-.387.151-.228.537-1.071,1.067-.993.993-.379h.611l.537.151.611.155h1l.912-.155,1-.383H56.4l.151-.232,2.215-.762,2.064-.993.993-.533.387-.46.993-.383.155-.305,1.144-.383.305-.305.993-.765,3.44-2.9.305-.383.151-.533.155-.232.383-1.148-.077-.073-.073-.155-.155-.383-.383-.456-.533-.232-.537-.151h-.839l-.537.077-.305-.077A28.207,28.207,0,0,0,61.217,14.6l-.912.46-.232.228-.383.305-.309-.073c-.073.073-.073.073-.151.073v.155l-.46.151-.151.155h-.151l-1.685.916-.839.688-.533.537-.765.228-.305.155c-.688.456-1.3.993-1.987,1.527l-.387.456-.99.92-.537.533-.843.765L48.53,23.855l-1.071,1.222-.228.232-.46.688-.533.762-.765.765Z" transform="translate(118.479 31.339)"/><path d="M85.975,27.745l.077-.151.151-.232,1.376-1.682.305-.611.228-.228.077-.155.232-.151.912-.993.309-.387v-.151l.077.077.224-.765-.073-.077-.383-.073H88.8l-.916.228-2.219.839-.533.155-.379.077-2.223,1.376h-.073l-.611.383-.537.228-.537.305-1.755.843-1.759.993-.688.305-1.144.611-.383.151-.916.537-.464.155-1.372.839-.46.305-.456.383-.688.228-.692.305-1.832,1-.151.151-.769.46h-.151V33.1h-.684l-.924.379h-.611a2.99,2.99,0,0,1-.762.305l-.305.232-1.531.533-.305.077-1.148.456-.151.077-.228.077h-.232l-.456-.077h-.077c-1.222.155-2.219-.077-2.524-.916a4.977,4.977,0,0,1,.537-3.363L58,29.964l.228-.077.077-.305.305-.46.151-.305.155-.077v.077l.155-.383.533-.765.843-.611.151-.151.611-1,.309-.379.611-.46.912-.765,3.444-3.058v-.073h.077l.99-.843.232-.232,1.3-1.067.611-.383L71.68,17.2l.073-.077.92-.993.379-.379.305-.537.155-.077.533.077.232-.151.533-.155.305-.077.383-.073.305-.232V14.37l.611-.232,2.447-1.222.46-.383.305-.155.615-.151.151.077.155-.077L81.232,12h.232l.383-.232.533-.073.456-.155.537-.151.305-.077.765.228.46-.077h.46l.3.077h.155v.077h.305l.232.151.073.155.305.077.151.379v.688l-.224.155c-.077.228-.305.383-.843.916a.444.444,0,0,1-.537,0l-.839.232-.533.077h-1.38l-1.222-.155v.077H81v-.077h-.151l-.537.077h-.537l-1.067.456-1.222.537-1.759.762-1.225.537a11.392,11.392,0,0,0-1.3.843c-.073.073-.073.073-.073,0l-.692.533-.077.077-.155.073-3.437,2.524-.305.305-.688.765-.537.533-.533.305-.688.383-.228.228L65.1,24l-.151.155-.158.228-.916,1.148-.228.151-.151.155-.232.151-.151.309-.232.305h-.151l-.155.383-.305.379-.151.305-.387.383-.379.46-.765.92v.151l.077.46-.077.151v.155l-.151.151-.309.228-.228.309-.383.456-.305.46V32.1l-.073.155v.46l.151.228.228.383.232.151,1.6-.611.688-.151,1.071-.383h.073l.383-.077c1-.383,1.991-.843,2.984-1.3l.379-.232.537-.305.383-.305h.611c.839-.379,1.759-.762,2.6-1.222l.379-.305.537-.232v-.073l.151-.077.228-.228.309-.077,1.144-.537.615-.305.533-.305,2.064-1.071.533-.383,2.142-.993.456-.151,1.38-.688.684-.537,1.38-.688.379-.305.615-.383.379-.305.916-.611.993-.611,2.374-.537h.916l.692.155.53.305.305.228a.864.864,0,0,1,.615.537v.077l.155.077v.305l-.081.228h.155l-.073.151-.081-.073-.151.151-.151.232-.155.305-.456.379a2.143,2.143,0,0,1-.387.46l-.533.843-.46.383-.228.073-.916,1.071-.155.155V25.6l-.155.077-.456.615-.155.228-.151.305-.611.839a1.813,1.813,0,0,0-.305.537l-.232.611-.073.077a1.033,1.033,0,0,0-.155.765c0,.228-.077.077.228.151.077,0,.151.077.232.077l.379-.077h.537l.151-.073h.537l.383-.077.155.077c.533-.077.99-.232,1.678-.383L91.4,29.2l.537-.232h.456l2.679-.762.228-.155.843-.228V27.9l.993-.305.611-.305.305-.077.305-.228,2.52-.688v-.155l.232.155.688-.232.228-.228,3.672-1.071h.379l1.913-.611a.276.276,0,0,1,.228.077h.155l.073.533-.305.228h-.611l-1.3.305-.916.46h-.305l-1.225.305-.611.232-1.759.839-1.3.533-1.453.46-1.678.611-.309.155-.765.305-.379.232-.615.228h-.077l-.533.228-.611.383-.232.077-.151.151-1.987.688v.155l-.077-.077-.611.228-.077.155-1.3.456-1.148.387-.383.305-.073.073-.077-.151-.232.077-.151.151-.155-.077-.073.077-.537.155h-.843l-.151-.077H84.9l-.383-.155-.305-.151-.232-.305.077-.387-.077-.305a1.58,1.58,0,0,1,.077-.993l.228-.533.077-.305L84.9,29.2l.228-.383.611-.765Z" transform="translate(163.434 32.417)"/><path d="M185.43,39.868l.684-1.3.151-.232.615-1.144,1.608-2.98.611-1.148v-.077l.151-.533.843-1.225a7.311,7.311,0,0,0,.684-1.3l.843-1.682,1.148-2.142.305-.383.232-.379.151-.537.993-1.527.839-1.453.92-1.225-.305-.073c-.688.456-1.836,1.91-2.068,1.987-1.222.839-2.443,1.6-3.669,2.37l-1.755,1.6-.155.155-.456.379-3.058,1.685-.611.305-.155.456-.537.537-.151.073-.155.232-.456.305-.46.077-.615.077-.379.151-.232.383-.305.383-1.222.305-.765.383-.993.533h-.151l-.537.305-.993.765-1.91,1.071-.611.305-1.914.993-.533.232-.611.383-1.991.99-.611.383-.688.383-.916.46-.383.073-.916.464-.692.379-1.3.688-.688.383-.46.077a6.915,6.915,0,0,0-1.3.611l-.073.077-.688.305-.916.537-.383.305-.843.073c-2.6,1.148-5.2,2.142-7.874,3.135-.916.383-2.288.843-3.974,1.453l-1.148.611L141.4,49.5l-4.743.993a49.027,49.027,0,0,1-6.951,1.376l-.387.077-.993.073h-.073a5.4,5.4,0,0,1-1.075.077l-.151.077h-.843v.077h-.151V52.1a7.92,7.92,0,0,1-2.524-.383,3.883,3.883,0,0,1-1.372-.688l-.305-.155h-.159l-.379-.305-.305-.305v-.456l.073-.077a8.385,8.385,0,0,1-.762-.916v-.077c-.081-.077-.155-.155-.155-.232l-.228-.228-.228-.155-.232-.379-.228-.077-.077-.155h.077l-.305-.305-.155-.228c-.073,0-.073,0-.155-.077h-.151l-.077-.228c-.151-.155-.151-.228-.151-.46a24.156,24.156,0,0,0,.151-2.447l-.077-.533v-1.6l-.073-.305v-.46l-.46-.305-.151-.228v-.383l.151-.387h.46l-.077-.379.151-.383.077-.077a5.831,5.831,0,0,1,.537-1.987l.533-1.071v-.305l.151.077.46-.688h-.073v-.228l.151-.46.155-.765.611-.839h.077v-.232l.305-.228.151-.383-.151-.077.151-.151v.151l.765-.456h.155l.3-.155.309-.228v-.232l.305-.077.309-.228.762-.383.305-.684.383-.688.765-.305,1.144-.537c1.682-1.376,3.44-2.675,5.277-3.974l.228-.232.46-.383.151.077.46-.383v-.151l.305-.228h.305l3.135-2.064.073-.077.232-.155.916-.533.077-.077.46-.305.379-.305h-.228l.077-.309.305-.151h.077v.077l-.077.232.151-.158.309-.073.155-.077.073-.228.077-.077h.155l1.372-.611,2.3-1.3v-.228l.228-.077.46-.077.99-.843.615-.383h.228l.993-.456,1.071-.537.155-.151h.305l.533-.228,1.759-.92.383-.155.151-.151h.081l1.372-.688h.305l.155-.151.533-.309.309-.073L156.3,9.9l.464-.151.533-.387.993-.305c2.064-.839,3.669-1.6,5.049-2.215l.379-.077.46-.305h.073l1.836-.916.533-.537.537-.228.46-.077h.456l.305-.151h.383c.081-.077.081-.077.155-.077l.228-.305.228-.228.46-.155h.309l.151-.151h.765l.379-.155,2.374-.688,1.148-.611.224-.077,1.38-.305h.228l.456-.155.688-.151.081-.077h.151l.993-.155.46-.151.228-.155H180l.077-.073L180.3.805l.077-.155.077-.073L180.841.5V.419l.077-.073.073.155h.916l.615-.155.228-.077.611-.077V.268l.232-.077L183.9.113l.762-.073,1.454.305,1.075-.155.53.155.232.073h.232l.073-.073h.077L188.256.5l.232.077.305.305v.305a4.612,4.612,0,0,0,.994.151c.305,0,.379.155.379.46v.228l.155.155.228.533.155,1.148.456.993.537,1.759-.228,1.3L189.86,9.136l-.383.151h-.456l-.92-.916.232-1.222V6.921l-.232-.228V6.156l.232-.993.077-.843-.077-.684v-.92l-.46-.228-.684-.232h-.611l-.387-.073-.839-.309-.692-.456-.073.077-.155-.077V1.339h-.077l-.073.077-.537.305-.839.305-.46.155h-.151l-.155.073-.155-.073-.3-.232-.387-.077-.533-.228-.533.383-.155.077h-.151l-.46.151-.151.232-.309.305-.611.228-.305-.077-.305-.151-2.524.843-.151.228-.151-.077-1.38.46-.456.305-.232.073-1.144.305-.309.077-.228-.077-.077.077-.456.077-1.914.611-1.144.533-1.148.232-.073.155-1.38.456-.379.232-.537.228-.688.228-.611.232-.228.151-.155.077-1.45.533-1.453.688-1.071.765h-.309l-.993.611L153.778,12.5l-1.6.92-1.678.688-.158.228-1.91.916-.533.615-.769.379-.224-.151-.765.611-.92.611-.224.077-.309.305-2.675,1.376c-.073,0-.073.077-.155.155v.151l-.073-.151c-.077.073-.155.151-.232.151l-4.206,2.83-.688.688-.611.305h-.073l-1.987,1.453-.077.228-.615.383h-.228c-.383.383-.839.688-1.3,1.071l-.762.839-.387.077-.077.383v.228l-.151.077-.073.155-.387.379-.688.46-.305.305-.839.305-.309.155a44.046,44.046,0,0,0-4.2,4.279l.073.305v.383l-.305.077-.155.383-.611.305-.762.916-.159.077-.99,1.682c-.077.077-.077.077-.077.155l-.073.228-.313.611-.073.383-.228.688-.309.305-.151.383-.073.077v.073l-.155.615-.232.684a9,9,0,0,0-.151,1.3l.077.077-.077.228v.305l.077.155v.379a3.825,3.825,0,0,0,.684,1.836l.309.077.228.077.155.151h.077l.073.077.155.305.228.228.155.383.155.228.688.383.073-.151h.305l.456.228.081.155.073.228a9.191,9.191,0,0,0,1.38.383l.611-.077.3.077h.232l.305.155.073.073a17.78,17.78,0,0,0,2.907.232h.151l.232-.383.46.077.611-.077.765.077.839.228c.151,0,.305-.077.46-.077l1.225-.228.611-.077.688-.077.151.077.537-.151q2.058-.348,4.353-.92l.232-.228.537-.077.228-.155.228.077c1.759-.456,3.518-.916,5.354-1.527l.456-.383.155-.228,1.372-.232.92-.383,1.454-.383c2.675-.993,5.35-2.138,8.1-3.363l.155-.073.155-.232h.151l2.907-1.372h.228l.537-.387.46-.151,2.9-1.453,1.148-.611.151-.151,1.3-.615.3-.305.688-.228.615-.383.53-.46.387-.228,1.987-1.071.765-.383,2.6-1.376.305-.151,1.222-.537.155-.228.151-.077L178.7,31l3.6-2.219.456-.379.305-.077,2.83-1.836v-.151l.155-.077.073-.155.464-.151.762-.46c.533-.305,1.071-.688,1.6-1.071l.611-.611v-.155l.46-.151,2.524-1.759.684-.993.383-.533.692-.309.228-.533,1.987-1.91.46-.688.839-.843.916-1.071,2.6-2.37,1.148-1.527.611-1.071L204,8.753l.843-.688.46-.228.232-.155.456-.379a3.589,3.589,0,0,1,1.682-1.075,1.086,1.086,0,0,1,.533.155l.077-.228.46.151.228.387-.46,1.527-.839.839.077.46-.232.611-.762.765-.155.533-.228.077.073.46h-.379l-.309.228-.151.383-.228.383-.537.077-.916.993.073.151-.912,1.38-.46.073-.305.46-.077.151-1.682,2.679v.305l-.383.456-.073.46-.232.611-.155.228-.688.46-.151.383-.765.611-1.225,1.987-.53,1.071-.611.916-.232,1.071-.692.765-.611.688-.151.077-1.454,2.292-.456.611-2.219,3.29-.839,1.527h-.077l-.533,1.071-.688.839c-1,1.914-2.219,4.132-2.756,4.894l-.611,1.071.077.383-.077.305-.611.383-1.527,2.6-.228.228a6.251,6.251,0,0,0-.615.92l.765-.155a43.462,43.462,0,0,1,8.029-1.222c.151.073.379,0,.53,0l1.763-.305h.916l1.832.151.151.077,2.3.077h.46l4.129.228h.994l.46.077.993-.077.305.077.073.151-.073.232-.232.077h-1.372l-.232.077-3.131-.155-.077.077-.309-.077h-.839c-.228,0-.387.077-.537,0l-.151.077h-.383l-3.209.077-.155.073-.688.077-.537-.151a54.434,54.434,0,0,0-8.257,1.144l-4.735,1.144-2.524,3.978-4.283,5.659-.456.456c0,.077-.077.077-.155.155l-.383.611-.151.151c-1.914,2.37-3.823,4.666-5.81,6.958l.077.073-2.064,2.374-.383.228-1.987,2.064-.533.839-.305.383-.92.92-.533.611-1.836,1.527-.305.46-1.454,1.222c-3.44,3.212-3.6,3.44-5.5,5.126l-1.759,1.6-.533.456v.077h-.077l-3.9,3.286h-.077L137.8,95.824l-.379.537-.383.379h-.309c-3.135,2.524-6.5,5.049-9.475,7.19l-.232.305-.379.151-3.522,2.675h.077v.077l-.228.305h-.309l-1.3.765-.151.228-.383.46-1.3.46-.765.533-.383.155-.228.151-.155.155h-.151l.077-.077h-.155l-7.186,4.2-.456.077a87.808,87.808,0,0,1-11.47,5.582c-1.3.456-2.6.843-3.9,1.225a21.928,21.928,0,0,1-2.068.762c-.835.155-1.144-.151-1.91.077a28.371,28.371,0,0,1-5.118.305,3.393,3.393,0,0,1-2.3,0,3.036,3.036,0,0,1-1.071-.383,19.669,19.669,0,0,1-8.331-3.669l-.688-.615-.155.081-.3-.155-.232-.155v.077H72.44l.077-.077-.077-.151-.073-.232-.309-.305-.228-.839-.762-.993-.155-.615v-.305l-.305-1.067-.155-.46-.073.228-.309-.151v-.46l.077.077.151.077-.073-.155.073-.305-.073-.155-.155-.151-.077-.155.077-.077.228-1.832.309-.843a24.154,24.154,0,0,1,.611-3.363v-.533l.155-.537.151-.611.305-.456.155-.305h.073a16.828,16.828,0,0,1,3.216-5.5l.3-.383,1.3-1.531.228-.305.533-.762,1.071-.611.533-.537.611-1.071.46-.228,3.363-3.6.46-.151.383-.692.839-.684c.611-.537,1.071-.993,1.914-1.759l.762-.46,2.142-1.527.611-.843.688-.379,1.453-.615a7.512,7.512,0,0,1,1.453-.765l.46-.383,3.746-2.215,1.372-.765,2.752-1.682.305-.077.155-.228,1.454-.383c3.514-1.832,4.283-2.219,5.806-3.058l.611-.151a28.339,28.339,0,0,1,3.212-1.453l4.971-2.064.916-.533,1.759-.611.916-.309,4.206-1.6,3.823-1.3a7.719,7.719,0,0,0,1.914-.843l1.067-.305h.688a7.328,7.328,0,0,1,1.527-.46c1-.305,1.453-.456,2.984-.99.379-.155.843-.232,1.3-.383l.765-.46.533-.077,1.682-.383,8.025-2.37.537-.383.537.077,5.118-1.527,2.219-.688.839-.155,1.608-.993,1.222-.228,2.292-.688,3.823-.843,3.518-.765,2.064-.611,2.826-.456a1.757,1.757,0,0,0,.611-.155l.769-.228.684-.916.615-1,.839-1.3,1.3-2.142.155-.456,1.225-1.836.224-.688c1-1.527,1-1.6,1.075-1.6M159.437,56.15l-4.36,1.45-2.977.92-2.907.843-2.83.684-3.437,1.225-1.38.611h-.611l-.228-.077-1.222.537-2.984.993-2.443.383-2.142.611a5.64,5.64,0,0,1-1.071.383l-2.219.765-.379.456-2.83.533c-.309.077-.533.232-1.453.615l-1.454.46L121.9,68l-1.527.383c-1.225.46-2.447.916-3.746,1.531l-1.6,1.376-.309.073-1.527.537-2.6,1.148-6.649,3.437-2.37,1.453-.309.688-1.45.611-3.058,1.6-3.9,3.058-.379.46-.765.228-.533.537-1.148.611-.611.305c-.688.46-.765.537-1.759,1.222L86.2,88.487a61.044,61.044,0,0,0-6.193,5.659l-.073.151-.615.533-.379.615-.387.456-.224.077-1.225,1.6a33.111,33.111,0,0,0-3.286,5.737v1.144l-.464.383-.151.228a20.855,20.855,0,0,0-.611,2.064l.151.305v.688l-.228.228-.151.232v2.675l.073.228-.073.155v.383a13.764,13.764,0,0,0,.533,1.91l.077.077.611.456.46.232.077.155.073.077.077.228v.383l.073.305.081.611.993.916.379.077.46.379.077.232a14.691,14.691,0,0,0,5.961,2.292l1,.155h.762a3.616,3.616,0,0,1,1.836-.077c.684-.228,1.527,0,1.987-.533.383.228,1.071-.232,1.755,0a6.641,6.641,0,0,1,2.756-.383,11.027,11.027,0,0,1,2.6-.765c.232.46.993.077,1.225.533a11.3,11.3,0,0,1,2.594-1.987c1.608-.688,3.444-.993,5.126-1.527l2.98-1.376a7.216,7.216,0,0,0,2.447-1.148,1.744,1.744,0,0,0,1.067-.305c.843-.456,1.608-1.376,2.6-1.453.305-.228.456-.839.993-.533l3.212-1.987.232-.309.835-.456.232-.155.155-.073c1.836-1.225,3.746-2.447,6.266-4.283l5.354-3.974,3.97-2.9,1.836-1.531.228-.077,3.139-2.52,1.987-1.682a59.114,59.114,0,0,0,4.585-4.129l8.331-7.646,4.817-5.2,4.357-4.125.92-.843c.533-.688,1.148-1.3,1.682-1.91l3.363-3.9.615-.765.224-.305,1.225-1.6,3.518-4.662a1.357,1.357,0,0,0,.379-.537l.155-.151.537-1,.3-.762,1.685-2.064-3.746.843-2.447.839-1.759.839-.383.232-.533-.232-1.071.155-4.129.843Z" transform="translate(200.578 0.115)"/><path d="M128.188,21.959l-.305.611c-.077.155,0,.383-.077.611l-.46.769-.53.762-.692.46-.762.762-.305.383-.387.387-.611.456-.151.077a34.106,34.106,0,0,1-4.511,3.209V30.6h-.232l-.839.533v.077l-.155.155h-.305c-.073.073-.073.073-.151.073v.232h-.305l-.611.456h-.081l-.379.383-.533.151-.309.387-.533.383-.305.073-.843.077-.305.155-.46.073H112.9c-1.222.46-2.3.92-3.363,1.225l-.305.228-.232.077-.305.383-.224.077-.537-.155h-.537l-1.453-.077-1.372-.155v-.073c-.081,0-.232.073-.305.073a4.749,4.749,0,0,1-1.148-.305c-.305-.228-1.91-.993-1.987-1.527v-.688l-.228.077-.081-.46.537-1.376.533-1.3.305-.46.92-.916.533-.383.155-.228,1.295-.916,1.148-1.148.232-.383.305-.305,1.685-1.3.456-.383.379-.077.155-.155.615-.379.151-.232.077.155,1.836-1.376.379-.383.232-.073.688-.464.533-.611.688-.611,1.067-.383.993-.839.615-.305.688-.383c.765-.46,1.453-.993,2.142-1.376l-1.071-.155a10.368,10.368,0,0,1-1.45.155l-.232.077-.077.073L117.105,16h-.916a21.624,21.624,0,0,1-2.374.228h-.073l-1.759.077-.92-.232-.46-.305-.224-.379.073-.537.611-.916.615-.232.762-.151.765-.077.611.228,1.148.305a21.077,21.077,0,0,1,3.669.305l.843-.151,1.225.077,1.45-.232.228.077,1.3-.151a3.253,3.253,0,0,0,.692-.383l.688-.46.611-.305.224-.077.387-.228.611-.077.688-.073a5.6,5.6,0,0,1,1.6-.077l.537-.077.228.228a2.3,2.3,0,0,1,.839.46l2.145-.228.073-.077.92-.228,1.14-.077,1.225-.383.46-.077.762-.073h1.535l.611-.077.912.077h.081a4.325,4.325,0,0,0,.993-.077c.379,0,.839-.081,1.3-.081l.305-.073.155-.077h.151l.155.151h.456l.46-.151h.537l.684.077H146l.533-.077.46.232h.228l.305-.081.611.081.305.077a16.159,16.159,0,0,1,2.142.456l.305.228h.305l.232.305a12.547,12.547,0,0,1,1.3.843h.155l.228.228.383.155.232.456.3.46v.232l-.456.379-.232.537-.688,1.222-.305.46v.077c-.073.077-.155.151-.155.228l-.3.46-.46.151v-.611l.151-.228V17.6a6.01,6.01,0,0,1,.46-.993l.151-.383.537-1.376c0-.073-.077-.151-.077-.305l-.228-.383-.765-.383-.611-.456-1.148-.309a24.764,24.764,0,0,0-5.045-.379h-1.144l-.92.073a15.644,15.644,0,0,0-1.987.232c-3.363.228-5.737.533-7.952.839l-.151.077-.692.151-.379.232-1.225-.077c-1.222.151-2.443.383-3.819.537l-.611.228h-.611l-1.38.155-.379.228a18.091,18.091,0,0,1,1.987.762h.151l.232.232.151.077.305.228.611.383.92.993.228.533.383.92-.077,1.376a6.27,6.27,0,0,1-.305,1.144m-1.832-.533v-.46l.305-.688.073-1.071V19.13l-.379-.762-.464-.46-.53-.383-.615-.383-.533-.228-.688-.228-.611-.383-.46-.155a.254.254,0,0,1-.151-.077c-.993.615-1.913,1.376-3.29,2.3l-.688.533-.533.46-2.752,1.6-.765.537-.533.305-1.531.993-.073.073-.387.305L110.6,23.8l-.912.611-.843.533-.379.309-1.075.762-.073.077-.843.993L105.79,28l-.379.537c-.081,0-.081.077-.155.077a6.706,6.706,0,0,0-1.225,1.91v.155l-.073.305-.155.383v.456l-.077.155-.077.228a2.113,2.113,0,0,0,.615,1.453h.151l.46.305c.151,0,.305.077.456.077,2.524.151,3.058-.077,5.582-.916A28.771,28.771,0,0,0,114.2,31.9l.077-.155h.228l.916-.456.615-.611,1.3-.688.309-.077h.151l2.37-1.6.228-.232.155-.077c.611-.456,1.222-.99,1.832-1.527l.232-.305.151-.232.46-.379.456-.537.232-.383.305-.073.155-.305.224-.232.155-.228h.155a11.892,11.892,0,0,0,1.454-2.37m2.98-8.334c-.537-.305-1.531.077-2.3.383Z" transform="translate(288.915 32.698)"/><path d="M138.075,21.959l-.305.611c-.077.155,0,.383-.077.611l-.46.769-.53.762-.692.46-.762.762-.305.383-.387.387-.611.456-.151.077a34.1,34.1,0,0,1-4.511,3.209V30.6h-.232l-.839.533v.077l-.155.155h-.305c-.073.073-.073.073-.151.073v.232H127.3l-.611.456h-.081l-.379.383-.533.151-.309.387-.533.383-.305.073-.843.077-.305.155-.46.073h-.151c-1.222.46-2.3.92-3.363,1.225l-.305.228-.232.077-.305.383-.224.077-.537-.155h-.537l-1.453-.077-1.372-.155v-.073c-.081,0-.232.073-.305.073A4.749,4.749,0,0,1,113,35.107c-.305-.228-1.91-.993-1.987-1.527v-.688l-.228.077-.081-.46.537-1.376.533-1.3.305-.46.92-.916.533-.383.155-.228,1.3-.916,1.148-1.148.232-.383.305-.305,1.685-1.3.456-.383.379-.077.155-.155.615-.379.151-.232.077.155,1.836-1.376.379-.383.232-.073.688-.464.533-.611.688-.611,1.067-.383.993-.839.615-.305.688-.383c.765-.46,1.453-.993,2.142-1.376l-1.071-.155a10.368,10.368,0,0,1-1.45.155L127.3,16l-.077.073L126.992,16h-.916a21.626,21.626,0,0,1-2.374.228h-.073l-1.759.077-.92-.232-.46-.305-.224-.379.073-.537.611-.916.615-.232.762-.151.765-.077.611.228,1.148.305a21.077,21.077,0,0,1,3.669.305l.843-.151,1.225.077,1.45-.232.228.077,1.3-.151a3.253,3.253,0,0,0,.692-.383l.688-.46.611-.305.224-.077.387-.228.611-.077.688-.073a5.6,5.6,0,0,1,1.6-.077l.537-.077.228.228a2.3,2.3,0,0,1,.839.46l2.145-.228.073-.077.92-.228,1.14-.077,1.225-.383.46-.077.762-.073h1.535l.611-.077.912.077h.081a4.325,4.325,0,0,0,.993-.077c.379,0,.839-.081,1.3-.081l.305-.073.155-.077h.151l.155.151h.456l.46-.151h.537l.684.077h.155l.533-.077.46.232h.228l.305-.081.611.081.305.077a16.158,16.158,0,0,1,2.142.456l.305.228h.305l.232.305a12.544,12.544,0,0,1,1.3.843h.155l.228.228.383.155.232.456.3.46v.232l-.456.379-.232.537-.688,1.222-.305.46v.077c-.073.077-.155.151-.155.228l-.3.46-.46.151v-.611l.151-.228V17.6a6.006,6.006,0,0,1,.46-.993l.151-.383.537-1.376c0-.073-.077-.151-.077-.305l-.228-.383-.765-.383-.611-.456-1.148-.309a24.764,24.764,0,0,0-5.045-.379H153.6l-.92.073a15.645,15.645,0,0,0-1.987.232c-3.363.228-5.737.533-7.952.839l-.151.077-.692.151-.379.232-1.225-.077c-1.222.151-2.443.383-3.819.537l-.611.228h-.611l-1.38.155-.379.228a18.094,18.094,0,0,1,1.987.762h.151l.232.232.151.077.305.228.611.383.92.993.228.533.383.92-.077,1.376a6.273,6.273,0,0,1-.305,1.144m-1.832-.533v-.46l.305-.688.073-1.071V19.13l-.379-.762-.464-.46-.53-.383-.615-.383-.533-.228-.688-.228L132.8,16.3l-.46-.155a.254.254,0,0,1-.151-.077c-.993.615-1.914,1.376-3.29,2.3l-.688.533-.533.46-2.752,1.6-.765.537-.533.305L122.1,22.8l-.073.073-.387.305-1.148.615-.912.611-.843.533-.379.309-1.075.762-.073.077-.843.993-.688.916-.379.537c-.081,0-.081.077-.155.077a6.7,6.7,0,0,0-1.225,1.91v.155l-.073.305-.155.383v.456l-.077.155-.077.228a2.113,2.113,0,0,0,.615,1.453h.151l.46.305c.151,0,.305.077.456.077,2.524.151,3.058-.077,5.582-.916a28.769,28.769,0,0,0,3.286-1.225l.077-.155h.228l.916-.456.615-.611,1.3-.688.309-.077h.151l2.37-1.6.228-.232.155-.077c.611-.456,1.222-.99,1.832-1.527l.232-.305.151-.232.46-.379.456-.537.232-.383.305-.073.155-.305.224-.232.155-.228h.155a11.89,11.89,0,0,0,1.454-2.37m2.98-8.334c-.537-.305-1.531.077-2.3.383Z" transform="translate(317.248 32.698)"/><path d="M160.557,66.693l-.688.228-.456.537-.232.305-.765.228-1.222.537-.993.533-.456.077-.232.077-.232.228V69.6l-.073-.073v-.077H154.9l-.916.456-.688.077c-.155,0-.232.077-.387.077l-.537.077L151,70.056l-.688-.765-.073-.151-.537-.765-.611-1.148.073-.383-.379-.762.228-1.987a12.838,12.838,0,0,1,.3-2.3v-.305l.158-.456-.077-.077V59.506l.456-1.376.077-.533.155-.611.073-.232.155-.228.077-.155a.073.073,0,0,1,.073-.077l-.073-.456.073-.305.305-.46.615-1.6.077-.383.077-.305.151-.305.073.073.387-.762.073-.232v-.073l.077-.383.155-.305.151-.155.081-.151-.155-.155.228-.383v-.228l.305-.765-.305-.993-.073-.305-.313-.765-.224-.305a.166.166,0,0,1-.155-.155l-.383-.611-1.527,1.685-1.148,1.527-1.755,1.3L145.957,51.4l-.688.688-.151.228-.155.077-2.219,2.215-.228.077-.765.765-.383.305c-.611.456-1.144.993-1.682,1.453l-.611.916-.537.688-.99.611-.843.92-.456.305-.615.456-.839.46-.383.305-.537.383-.684.383-2.223,1.453-.073.151-.077.228h-.228l-.611.305-.155-.073a12.961,12.961,0,0,1-6.344,2.215,10.872,10.872,0,0,1-1.987-.762c-.077-.232-.155-.305-.155-.46h-.073l-.537-.92-.077-1.372.151-1,.309-.762.533-.843.077-.456.46-.537.839-1.759V57.9l.309-.537,1.45-1.376.46-.456.074-.843.155-.228.383-.305,3.363-2.98h.077c.916-.92,1.91-1.836,2.826-2.6l.077-.077.692-.611.456-.228,1.071-.765.383-.383.456-.305.692-.383.839-.383.839-.762.155-.077h.151a22.419,22.419,0,0,1,2.752-1.3l.232-.232.228-.151h.305l.843-.305.839-.611.305-.077h.537a10.309,10.309,0,0,0,1.376-.537,6.839,6.839,0,0,1,3.286.077h.534l.537.232h.537c.151,0,.224.073.3.228l.692,1.6.305-.383.073-.533.688-.155,1.759-1.682.383-.611.534-.228,1.836-1.763.993-1.3,1.3-1.3,1.3-1.453,1.6-1.682,2.064-2.37V30h.074l1.3-1.531.92-1.222.611-.839.383-.309.228-.533.843-.92v-.228l.533-.305.232-.533.762-.843,1.6-1.91.305-.383.077-.155h.077l1.531-1.987.305-.456.305-.305.151-.309.537-.688v-.151l.305-.155.155-.383.456-.611,1.3-1.759.537-.611.305-.46,1.3-1.682.387-.533,1.372-1.682.916-.92.383-.456V6.987l1.148-1.527.228-.688.232-.46.912-.456.232-.383.155-.155V2.936l.151-.228V2.557l.232-.387V2.093l.155.077.3-.305h.155V1.788l.456-.379.537-.155.305-.151.155.073.533-.151.077-.077h.383l.228.077.611.077.383.684.228.46-.916,1.608-.993,1.222h.077l.537.232.151.533-.615.611-.839.993-.383.611-.232.077-.151.232L186.4,8.29l-1.071.305-.993.305h-.155l-.994,1.222-.611.611-.456.765-.916.305-1.225,1.3-.611.843-.232.151-.46.615-.611.533-1.91,2.6-1.067,1.527-1.148,1.376-.077.228-.765,1.453-.383.383-.305.537-.537.839-.073-.077-.537.843-.379.916-.155.305-.228.232-1.91,2.52v.151h-.081l-.611.765v.232l-2.675,3.514-.3.305-1.453,1.991v.073h-.081c-2.06,2.907-3.668,5.35-4.43,6.5v.077l-.151.151L158.57,43l-.232.379v.077l-.151.077a56.762,56.762,0,0,0-2.98,5.2l-.077.073c-.077.155-.155.232-.155.309h.077v.151l-.151.228.074.305-.155.769.155.151-.228.155.073.073-.224.155v.383l-.387,1.067h-.3l-.081.155-.456.611-.073-.077h-.309l-.228.387-.688,1.832h-.077l-.232.611-.151,1.225-.46,1.144-.228,1.453-.305,1.454-.305.611-.155.379a3.22,3.22,0,0,0,0,.843c-.151,2.374.537,3.669,1.6,4.283l.611.151.081.077a3.781,3.781,0,0,0,.916.151l.537-.228,1.067-.228.155-.155.839-.456.46-.077H157.5a32.359,32.359,0,0,0,4.817-2.6l.993-.688.533-.305.151-.077.081-.155.151-.151.537-.387.765-.379.912-.537,1.991-1.6.843-.383,1.222-.993.383-.305,1.144-.839.383-.155.383-.305.993-.688v-.077l.228-.155,1.075-1.067.761-.305.688-.383.077-.077,1.987-1.6.155-.155.916-.611.151-.228.077-.077h.228l.155-.155.151-.305.232-.151h.228l.077-.077h.46l.3.533-.224.305-.387.077a.075.075,0,0,0-.073.077h-.077l-5.273,4.2-.232.383-.228.155-.383.232-.305.151c-1.3.993-2.6,1.91-3.9,2.83l-1.222.839-.077.155-.383.151-.46.537-.456.151-4.434,2.98-.383.383-.994.692-.077.073h-.151l-.46.305-.077.232-.228.073.305-.073v.228l-.305.305h-.309l.081-.383-.081.077Zm-32.564-12-.765.843-.688.611-.383.993-.611.533-.46.765-.232,1.071.081.916-.155.232v.305l-.537.839-.151.92-.073,1.222.073.916.077.228.155.155.456.077h.383l.383-.155a3.372,3.372,0,0,1,.762-.305l.615-.611.688-.46.533-.305.993-.305.92-.456c.077,0,.151-.077.228-.155,1.222-.765,2.37-1.527,3.363-2.292l.077-.155.916-.611a4.174,4.174,0,0,0,.688-.537l.615-.533.305-.456,1.144-1.071.533-.46.232-.383.305-.077,1.148-.611c1.678-1.527,3.514-3.363,5.884-5.582l1.6-1.45.081-.228,1.222-1.3.688-.762V46.2l.537-.305.456-.839.534-.769-.46-.99-.684-.688-.309-.155-.151-.151c-1.759-.383-4.206.305-6.116,1.144l-1.376.765-.611.232-.537.151a2.457,2.457,0,0,1-.456.228,26.711,26.711,0,0,0-6.958,4.434l-.993,1.071-.688.993-.765.688v.155l-.073.228-.692.456-.533.537-.611.688-.305.305h-.077v.228ZM152.455,45.9l.077.077.155.228.379.383.151.383.46.073.151.232v.073l.615-.611v-.151h.077l.077-.228h.073v.151h.077l.46-.839.073-.155.155-.383.228-.305.081-.765.224-.151.232-.383.456-.228.228-.46.081-.077.839-1.376v-.077l.383-.611.615-.916.224-.228c1.3-1.914,2.6-3.823,3.978-5.659-1.682,1.685-3.978,4.051-6.119,6.347l-1.067,1.376-.537.456h-.151l-2.907,3.212a.866.866,0,0,0,.232.611" transform="translate(345.75 2.72)"/><path d="M189.953,84.821c-.232,0-.456.077-.688.077l-.379.077c-.692.151-1.3.228-1.917.305l-.456.232h-1.071l-.611.305-.994.151-.537.077-1.222-.077c-.232,0-.456.077-.688.077l-.155.077h-.3c-2.145.228-4.283.456-6.347.611h-.077l-1.45.228-.387.077-.611.151-.383.077-.839-.077-1.144-.073-2.528-.305-2.52-.155-.228-.077-5.81-.533-.305.077-1.222.073-.155.077-1.222-.305-.155-.077-.383-.073a7.749,7.749,0,0,0-1.3-.077,20.169,20.169,0,0,1-2.984-.537h-.073l-.305-.077L149.9,84.9l-.077-.077-1.148-.456-1.3-.383-1.759-.993-.151-.228L142.1,80.924c-.456-.232-.912-1.148-1.372-1.376a3.845,3.845,0,0,1-1.376-1.836,18.624,18.624,0,0,1-.692-2.6l-.151-.383-.077-.688.077-.688v-.232l-.077-.379.228-.765-.073-.611.155-.305.151-.688.688-1.914.155-.305.684-1.527.077-.232.081-.151.3-.305h.228l.305.077v.305l-.151.151a.246.246,0,0,1-.073.155c-.081.228-.387.456-.537.765v.077a.282.282,0,0,0-.074.228.223.223,0,0,1-.081.151L140.109,69l-.073.077-.305.839.151.383v.383l-.077.077-.155.383-.151.228h.077l-.077.077h-.073V71.6l-.077.155v.305l-.077,1.067-.077.464v.839a10.394,10.394,0,0,0,.537,2.219l.305.611.151.228.155.383.232.228.151.305a15.368,15.368,0,0,0,1.91,1.987l.228.077.769.611.611.305.224.155.843.456.537.309a12.264,12.264,0,0,0,1.755.765l1.608.533,1.987.533,1.144.305h.383l.46.232h.151l.305.073a64.547,64.547,0,0,0,7.646.92l.692-.077h.611l1.755.155,1.6-.077h1.221l.769.155.611-.077h.688c1.3,0,2.443-.077,3.286-.077l.383-.151.46.073.383-.073.916-.077.155.077,1.523-.155h.081l.533-.077a3.7,3.7,0,0,0,.92-.077l.224-.077.232.077.305-.077,1.075-.077.762-.073.688-.232h.155l.151-.073,1.453-.077.533-.155h.765l.383-.073.3-.155.309.077.383-.077.611-.305.305.077.151.151v.077l1.225-.228h.073l.232-.155.228-.073h.843l.993-.155.151-.077.081-.077,1.453-.151.073-.077.688-.305h.843l.151.077.305-.077.533-.228,1.075-.077,1.91-.383,1.372-.232.688-.151.309-.611v-.383l-.077-.305v-.611l.077-.305.077-.46.305-.916L200.5,76.8l.305-.611.155-.232.073-.151.46-1.453v-.383l.151-.228h.081c.379-1.071.762-2.142,1.222-3.209l.077-.464.305-.611.151-.228.305-.611.232-.611.155-.46v-.151l.151-.387h.073l.155-.228.151-.151V66.4l.081-.151.151-.077.688-1.45.155-.155.151-1.225.077-.228.456-.383,1.38-2.142.3-.684.387-.46.224-.305.232-.46.379-.305c0-.073.081-.073.081-.073v-.155l.151-.383.232-.155.151-.151V57.3l.228-.383.081-.305.912-1.45.155-.155.232-.383.611-.993.151-.077.305-.456.383-.46.46-.765v-.155l.073-.151.155-.077.077-.077,1.527-2.288.232-.309,1.067-1.527.387-.46.533-.843.228-.305.993-1.3V44l.232-.073.073-.232.155-.379.077-.155-.155.155-.077-.077v-.077l.155-.383.383-.077v.228l.228-.456.46-.46.383-.688.077-.228.456-.611,1.071-.843.688-.839.073-.077,2.528-3.29.151-.379.533-.537.228-.537h.081l.151-.379.765-1.071.151-.228,1.91-2.984.692-1.067.379-1.071.688-.843.611-.456,1.531-2.447.305-.611.916-1.531.305-.611,1.225-1.759.688-1.222.765-1.3v-.615l.228-1.6,1.3-2.6,1.6-1.071h1.075l.53-.305a.329.329,0,0,1,.537.151,2.872,2.872,0,0,1,0,1.148l.077.077-.155.762h.383v.155h-.228l-.383.379-.077.537-.228.916-1.3,1.836-.916,2.675-.92,1.071-.611.46-.916,1.067-.688,1.075-.843.916h.611v.533l-.611.533h-.305l.232-.533-.387.383-.611.533-.228.155-.073.537-.232.228-.379.228-.155.155L229.858,32l-5.049,6.8.077.073-.305,1.071-.688.765-.305.155-.537.305-3.668,4.967-.151.383-1.454,1.91-1.222,1.608-.765,1.067-.077.077-1.372,1.987-.081.305V53.4l-.611,1.222-.611,1.3-.383.611-.843,1.148-.993.843a72.179,72.179,0,0,0-4.125,6.954l-.46,1.071L204.7,70.6l-.456,1.225v.379l-.073.383-.232,1-.537.533-.228.611-.762,4.2.073,1.991-.073.228.611-.151.533-.077.993-.232h.077l1.678-.456,1.3-.305,1.376-.533,1.682-.309.843-.305h.456a6.31,6.31,0,0,1,1.148-.305l.232-.077.53-.151c1.531-.383,3.058-.92,4.589-1.376l.387-.155,1.832-.533.688-.232,2.37-.762,1.225-.537,2.826-.839,1.836-.692,2.138-.762.537-.155.611-.228.839-.383.386-.077a2.734,2.734,0,0,1,.835-.305l.155-.151,4.2-1.987h.232l.765-.305.077-.155h.151l2.83-1.3h.305l.456-.077.92-.46.916-.151.077-.155.92-.383.611-.305,1.91-.762h.228l1.682-1,1.685-.688,2.215-.916c.688-.383,1.376-.688,2.064-.993l.151-.151.305-.155.077.077,1.759-.92-.073-.611.073-.151h.077l.155.073.224-.073h.155v.073l.305.232c1.148-.537,2.219-1.222,3.363-1.836l.843-.46L265.4,57l1.45-.839.537-.537,1.836-1.148,1-.762,2.671-1.6,2.6-2.064.762-.383.843-.615,2.37-1.527.383-.305.074-.228.305-.611.155-.232.534-.537.843-.305.383.155.155.077.611-.537.228-.305.383-.383v-.456l.305.077.232-1.075.611-1.144.383-.305.99-.993,1.3-.383V40.1l.383-.615.151-.228v-.151l.692-1.148.224-.456.46-.615.151-.383.077-.305.232-.228.155-.383v-.305l.151-.305.228-.155h.232a8.284,8.284,0,0,1,.611-1.148l-.077-.151-.077-.077.077-.077h.077l.077-.228-.155-.228-.077.077H290.7v-.232l.232-.305-.077-.151v-.155h-.073l-.155-.077-.077-.151.077-.077.155-.077-.081-.073h.155l-.073-.077-.081-.155.232-.228v-.077l.232.155.073-.309.077-.228V30.62l-.077-.073h.077v-.611l-.151-1.225-.232-1.453-.077-.305-.073-.379L290.7,26.5l-.151-.765-.611-.993-.379-1.376-.081-.228-.456-.843-.305-.537a13.523,13.523,0,0,0-.843-1.067L287.5,20.3l-.305-.383-.379-.533-1.38-1.148-.611-.533-.688-.688-.994-.765h-.073l-.232-.077-.611-.46-.611-.151-.46-.155L281,15.1l-.232-.077-.383-.228-.228-.077-.077-.305a62.944,62.944,0,0,0-6.116-2.9l-.383-.077-1.376-.611-.228-.077-3.058-1.225-.151-.073-2.83-.993-.692-.077-.684-.155-.843-.456-1.3-.305-1.685-.537-.3-.077-.839-.305-.615-.077L258.6,6.39l-1-.305-1.3-.155-1.91-.456-1.225-.155-.765-.155-.762-.073-1.38-.077-.305-.228-.916-.077-.611-.228c-.077-.155-.383-.232-.688-.232h-.151l-.92-.151-.456.151-1.454-.383h-.228l-1.608-.155-4.206-.305h-1.067l-.456.077h-.464l-1.071-.077h-2.447l-.379.077-1.755-.228c-.924,0-1.763.077-2.6.077l-.769.533-.611.383-.3.077-.843.155-.839-.232-.232-.46-.077-.228c-.765,0-1.45.077-2.215.151l-.684.309-.387.077-.994.151-.688-.305-5.733.688-5.5.916-.073.155-3.29.916L204.785,7V6.846l-1.075.537-1.3.383-.232.383-.305-.232-1.759,1.148-1.376.228-.305.383h-.688l-.533.383-1.836.611H195.3l-.228.077-.688.383-1.144.383-.92,1.067L189.5,13.727l-1.535.92-.993.839-.151.077.077.151v.155h.155l-.155.155.155.305v.077l-.081.073c.232.232.155.611-.228.611h-.228l-.383.155v.077l-.077-.077h-.073l-.077-.077-.155-.077-.151.232-.081.073-.456-.151-.155-.228c-1.832-.077-2.447.228-2.9-.46l-.765-.305-.151-.383v-.383l.232-.305c-.081-.155-.081-.305.151-.46l1.221-.839,1.376-1.225,2.374-.993-.232-.151-.155-.383-.073-.383.305-.305.305-.151-.151-.077h.073l.151.077.155-.077h.305l.46-.155h.99l1.38-.383.688.077h.46c.073-.077.073-.077.151-.077l.305-.305,1.608-.46,1.91-.762.993-.305,1.991-.537.151-.073.151.073.309-.151a13.144,13.144,0,0,0,1.6-.537c1.067-.228,1.222-.383,1.453-.383l.456-.305.765-.077h.077l.684-.305.765-.228.46-.077h.537A13.476,13.476,0,0,0,207,4.937l.843-.533h.688l1.832-.155a3.41,3.41,0,0,0,1.225-.305l.305.077a.671.671,0,0,1,.379-.077l.383-.232.916-.073.611-.155,1.225-.077a8.2,8.2,0,0,0,1.91-.305l2.37-.228.077-.077.537-.228h.305l.46-.155h.993l1.372-.379,1,.073.688.077h1.759c.916,0,1.832-.077,2.826-.151l.456-.077h1.38l.684-.077,1.917.077,2.134-.077.387.077h2.671l.615.077h.533l.46.073c.615,0,1.225.077,1.836.077h.537l.151.077,3.208.228h.155l.305-.077h.537l.611.155h2.142l.456-.155.155.077.151.232v.305c.077.073.228,0,.379.073l.155-.073,1.38.305h.688l.533.073,1.225.305,1.222.232.912.155.537.151.46.077.688.305.537.077.379.228.456.077h-.151l2.679.839c.762.305,1.527.537,2.292.765h1.071l.383.228.99.387,2.142.533h.081l.3.077.46.073.305.155.456-.155.232.077.228.46.765.305,1.832.916h.081l.761.46,1.6.916,1.3.843.688.379.765.611a5.815,5.815,0,0,0,.993.537l1.678,1.071.387.077.224.305a1.681,1.681,0,0,0,.464.305l.305.151.151.155.46.228.305.309.456.305.537.305.228.228.151.533a27.3,27.3,0,0,1,2.142,2.142l.383.155.155.151.228.383.309.155.761,1.144.379.765a23.024,23.024,0,0,1,1.3,2.447l.232.228.073.46v.155a5.79,5.79,0,0,1,.383,1.067l.077.077V26.8l.155.916H293l.151.615v.228c0,.383.081.762.081,1.144l.151.077-.151.155c0,.151-.081.305-.081.456h.081l.151.077.228.305-.073.537-.155.456-.232.232c.081,1.222.232,2.9-.224,3.591-1.759,2.675-3.058,5.2-4.971,7.337v.155H287.8l-.456.537-.611.611-.611.916-.537.305-.155.077-.533.305-.383.383-.305.228h.228l-.073.232-.305.151h-.081l-.3.155-.232-.077-.077.228h-.228l-1.148.765-.228.228-.611.46-.383.379-.993.615-.379.383-2.223,1.527-.611.46-.224.232.073.073v.383l-.073.383-.309.383.077.305-1.148,1.144-.155.077-.224.155.073.155h-.073v-.077l-.464.228h-.073l-.232-.077-.151.077h-.228l-.151-.077-.155.077-.537.155-.232.305-.3.305-.533.151-.769.077-.762.228-.305.155-.916.611-.232.305-.232.077-1.221.305-.916.537-.151.073-.077.077-.383.305-.537.305-1.682,1.148-.228.305-.228.073h-.155l-.228-.228v-.077l-1.531.769-.151.228-.383.305-.611.077c-.077,0-.228.073-.309.073v.077l-.3.155-.232.228-.155.228-.835.383-.158-.077-.456.305-3.212,1.608-1.222.228-1.991.916-.151.155-.46.305-.151.077v-.077l-.077.077-.305.151-.379.077-.155.151-.994.464-.155.151-.688.305-.456.228h-.232l-.688.305-.077.155h-.228l-.92.228-.912.46-.611.077a8.761,8.761,0,0,0-1.535.611v.073l-.151.158-.537.073-.533.232-2.6,1.067-.762.155-1.991.762-.456.232-.843.228-1.071.383-1.6.611L231,74.2v-.155l-2.675.916-.228.077v.077h-.073l-3.6,1.148-.305.228-.46.228h-.533a1.066,1.066,0,0,0-.46.155l-.383.305-1.071.077-.916.228v.151l-1.531.383h-.077l-7.337,2.064-.383.232-.533.151-.843.228L208.454,81l-3.75.916-.684.383h-.309l-1.372.077a2.32,2.32,0,0,0-.765.151l-.077.383-.688,1.3-.228.993-.688.688h-.46l-.305-.073-.155-.383-.077-.155v-.232l-.073.155v-.155l.073-.073.387-1.836v-.073h-.232l-.916.379h-.305l-.916.309-1,.228-.762.228-1.225.305-.533.155-1.6.073-.537.155Zm67.959-23.7h-.077v-.077Z" transform="translate(396.688 5.385)"/><path d="M206.43,27.745l.077-.151.151-.232,1.376-1.682.305-.611.228-.228.077-.155.232-.151.912-.993.309-.387v-.151l.077.077.224-.765-.074-.077-.383-.073h-.688l-.916.228-2.219.839-.533.155-.379.077-2.223,1.376h-.073l-.611.383-.537.228-.537.305-1.755.843-1.759.993-.688.305-1.144.611-.383.151-.916.537-.464.155-1.372.839-.46.305-.456.383-.688.228-.692.305-1.832,1-.151.151-.769.46h-.151V33.1h-.684l-.924.379h-.611a2.99,2.99,0,0,1-.762.305l-.305.232-1.531.533-.305.077-1.148.456-.151.077-.228.077h-.232l-.456-.077h-.077c-1.222.155-2.219-.077-2.524-.916a4.977,4.977,0,0,1,.537-3.363l.305-.916.228-.077.077-.305.305-.46.151-.305.155-.077v.077l.155-.383.533-.765.843-.611.151-.151.611-1,.309-.379.611-.46.912-.765,3.444-3.058v-.073h.077l.99-.843.232-.232,1.3-1.067.611-.383,1.991-1.453.073-.077.92-.993.379-.379.305-.537.155-.077.533.077.232-.151.533-.155.305-.077.383-.073.305-.232V14.37l.611-.232,2.447-1.222.46-.383.305-.155.615-.151.151.077.155-.077.684-.228h.232l.383-.232.533-.073.456-.155.537-.151.305-.077.765.228.46-.077h.46l.3.077h.155v.077h.305l.232.151.073.155.305.077.151.379v.688l-.224.155c-.077.228-.305.383-.843.916a.444.444,0,0,1-.537,0l-.839.232-.533.077h-1.38l-1.222-.155v.077h-.305v-.077h-.151l-.537.077h-.537l-1.067.456-1.222.537-1.759.762-1.225.537a11.384,11.384,0,0,0-1.3.843c-.073.073-.073.073-.073,0l-.692.533-.077.077-.155.073-3.437,2.524-.305.305-.688.765-.537.533-.533.305-.688.383-.228.228L185.56,24l-.151.155-.158.228-.916,1.148-.228.151-.151.155-.232.151-.151.309-.232.305h-.151l-.155.383-.305.379-.151.305-.387.383-.379.46-.765.92v.151l.077.46-.077.151v.155l-.151.151-.309.228-.228.309-.383.456-.305.46V32.1l-.073.155v.46l.151.228.228.383.232.151,1.6-.611.688-.151,1.071-.383h.073l.383-.077c1-.383,1.991-.843,2.984-1.3l.379-.232.537-.305.383-.305h.611c.839-.379,1.759-.762,2.6-1.222l.379-.305.537-.232v-.073l.151-.077.228-.228.309-.077,1.144-.537.615-.305.533-.305,2.064-1.071.533-.383,2.142-.993.456-.151,1.38-.688.684-.537,1.38-.688.379-.305.615-.383.379-.305.916-.611.994-.611,2.373-.537h.916l.692.155.53.305.305.228a.864.864,0,0,1,.615.537v.077l.155.077v.305l-.081.228H213l-.073.151-.081-.073-.151.151-.151.232-.155.305-.456.379a2.142,2.142,0,0,1-.387.46l-.533.843-.46.383-.228.073-.916,1.071-.155.155V25.6l-.155.077-.456.615-.155.228-.151.305-.611.839a1.814,1.814,0,0,0-.305.537l-.232.611-.073.077a1.033,1.033,0,0,0-.155.765c0,.228-.077.077.228.151.077,0,.151.077.232.077l.379-.077h.537l.151-.073h.537l.383-.077.155.077c.533-.077.99-.232,1.678-.383l.611-.155.537-.232h.456l2.679-.762.228-.155.843-.228V27.9l.993-.305.611-.305.305-.077.305-.228,2.52-.688v-.155l.232.155.688-.232.228-.228,3.672-1.071h.379l1.914-.611a.276.276,0,0,1,.228.077h.155l.073.533-.305.228h-.611l-1.3.305-.916.46h-.305l-1.225.305-.611.232-1.759.839-1.3.533-1.454.46-1.678.611-.309.155-.765.305-.379.232-.615.228h-.077l-.533.228-.611.383-.232.077-.151.151-1.987.688v.155l-.077-.077-.611.228-.077.155-1.3.456-1.148.387-.383.305-.073.073-.077-.151-.232.077-.151.151-.155-.077-.073.077-.537.155h-.843l-.151-.077h-.533l-.383-.155-.305-.151-.232-.305.077-.387-.077-.305a1.579,1.579,0,0,1,.077-.993l.228-.533.077-.305.537-.688.228-.383.611-.765Z" transform="translate(508.62 32.417)"/><path d="M214.3,20.454l1.836-.993.305-.305.228-.151.688-.158.232-.151.155-.155.3-.073,1.987-.993.305-.232.615-.533.228.077.456-.305.232-.077.611-.228.155-.155.383-.232.534-.151h.228l.765-.383c.077,0,.383-.228.688-.305l.077-.151.839-.46.232-.077.077-.077.379-.073.46-.46h.383l.073.155a1.306,1.306,0,0,0,.387-.155l1.45-.765.305.077.765-.383.46-.305.533-.077.383-.305.611-.228.232-.077.839.155.383-.155h.611c1.454-.228,2.524,0,2.679.916v.077h.151l.383.383v.383h.228l.155.155-.155.151-.228.077-.155.383v.762l-.916,1.453-.383,1.987-.533.92-.537.305-.533.839-.534.916-.387.611h.387l.151.387-.383.533h-.383v-.383l-.155.232-.379.305-.305.533v.228l-.232.077c-.073.077-.151.155-.151.228v.232l-.232.228L230.59,27.18l-.081.077a4.965,4.965,0,0,1-.53.765l-.081.305h-.073l-.537.839v.077l-.077.228-.228.309v.228l-.305.228v.305l-.762.692-.769.99-.379.92-.155.073-.305.46-.383.46-1.987,2.826-.305.155-.155.305-.762,1.225-.387.228c0,.077-.073.151-.151.228l-.383.765-.305.232-.305.533v.077l-.077.073-.3.611v.155l-.232.077-.155.151-.228.46L219.58,43l-.383.464-.383.533-.077.228-.916.611L216.6,46.524l-.155.456-.533.765-.692.762-2.366,3.135-.232.765-.305.305-.533.077-.151-.077-.537.92-.765.684-.151.077-1.225,1.453-.688.843v-.077l-.839.993-.077.228-.611.92-.46.611-.383.305-1.376,1.91v.077l-.383.839-.611.537q-1.832,2.522-3.44,5.273l-.074.765-.46.533-.077.46-.232.155h-.073l-1.6,3.518-.92,1.6-.994,2.064-.762,1.678-.383.769-.537,1.45-.073.228v.232l-.081.228-.073.46-.077.228-.077.305.077.305-.228.232L193.2,84.9l-.077.309-.305.839-.073.305-.305.92-.305.456-.077.46-.228.383h-.159v1.987l.309,1.376.228.916.151,1.071v.688l-.151.305v.232l-.073,1.3-.688,1.071h-.232l-.228-.155-.232-.46-.151.228-.383-.073L190,96.9l-.081-.077.232-.379.155-1.836v-.46l-.077-.383-.155-1.372V91.78l.232-1v-.305l.228-.456v-.305l.155-.232a10.829,10.829,0,0,1,.379-1.682,8.707,8.707,0,0,0,.387-1.3V86.12l.151-.383a.072.072,0,0,0,.073-.073l-.073-.692.073-.305.309-.533.155-.155a43.747,43.747,0,0,1,1.45-4.507,8.57,8.57,0,0,1,.533-1.453l.688-2.219.309-.456.533-.843.534-1.144.232-.46c.916-1.682,1.836-3.363,2.826-4.967l.383-.843.305-.383.843-1.3.151-.305.46-.688.688-.993.387-.688.3-.383c.077,0,.077-.077.155-.155l.228-.379.305-.46,1.914-2.675.073-.077V58.45l.155-.077.688-.843v-.155l.379-.379.159-.383.456-.46.46-.688.379-.611.232-.232.456-.533.387-.765.611-.684.383-.305,3.974-4.971.151-.611.765-.688.305-.232.92-1.376.228-.151.3-.305.232-.383.692-.92.456-.533.533-.611,1.6-2.142.077-.077.232-.456,1.067-1.6.387-.692,1.45-1.983.765-1.148,2.142-2.984,1.832-3.058.537-.762.533-.993,1.836-2.6,1.067-1.759.92-1.144.073-.155.46-1.071.077-.305.232-.533-.081-.155h-.228V17.7h.228l-.383-1.144-.151-1.148.151-.537.081-.305-.387-.228-1.678-.155-1.836.155c-1.682.611-3.286,1.376-4.894,2.064l-4.89,2.443-.692.387-.3.077-.155.073-.077.155-1.071.533h-.228l-.534.383-.46.155-.232.151-.224.305-.309.155h-.305l-.155.073v.155l-.379.228-.151.228-.387-.073-.228.155-1.376.839-.383.077-1.682.993-.611.228-.92.533-.379.077-1.376.843-.228.228-.305.077-.159.155-.305.228-.151.077-.305.073-.533.309-.615.228-.611.383-.155.228-.688.383-1.527.232-1.071.533-.46.151h-.305l-.151.077v.155l-.228-.077.073-.077h-.151a11.259,11.259,0,0,1-1.454.46l-1.222.456-1.071.383-.611.155h-.692l-.305-.155-.224-.228-.769-1.148c0-.073-.073-.151-.073-.228-.305-.843-.081-2.219.843-4.357.3-.765.762-1.531,1.144-2.292a10.453,10.453,0,0,1,1.3-1.991l.3-.456.309-.843.53-.993.155-.46.46-.99,1.453-1.531.916-1.453.537-.46.305-.228.151-.305-.151-.155h.224v.155l.309-.077V12.12l.151-.305.765-.533.839-.155.081.077.228-.151c.155-.077.228-.077.383.073.077.077.151.155.151.232a.234.234,0,0,1,.077.151h.073l-.073.765-.228.688-.537.765-.684.993-.611.916v.077l-.615.46-.383.305L197.411,20.3l-.232.309c-.456.684-.993,1.376-1.45,2.138l-.611,1.071-.155.688-.155.537-.151.228-.383.533-.077.232-.151.073h-.077a2.94,2.94,0,0,0-.155,1.759c.232,1.071,1.38,1.453,4.206.537l.688-.228.155-.155.993-.46.379-.077h.232l.228-.151h.228l2.219-1.3.611-.232.765-.151.383-.228.993-.692.611-.151.533-.232.155-.151h.155l4.662-2.524.077-.077.379-.305.688-.305.232-.379h.228Z" transform="translate(544.236 31.528)"/></g></svg>