<svg xmlns="http://www.w3.org/2000/svg" width="44.275" height="65.635" viewBox="0 0 44.275 65.635">
  <g id="挙手アイコン" transform="translate(-83.314)">
    <path id="パス_209" data-name="パス 209" d="M121.543,5.1a6,6,0,0,0-1.8.275,6.044,6.044,0,0,0-8.969-3.438,6.041,6.041,0,0,0-10.436,3.441A6.044,6.044,0,0,0,92.7,11.2c0,1.6-.007,6.244-.009,10.709a7.535,7.535,0,0,0-3.8-1.056h0a5.483,5.483,0,0,0-4.618,2.287c-.8,1.158-1.509,3.182-.356,6.269a135.658,135.658,0,0,0,9.554,21.936c1.872,3.473,2.573,4.773,2.573,7.366V59.77a5.873,5.873,0,0,0,5.866,5.866h14.2a5.873,5.873,0,0,0,5.866-5.866v-.858a11.915,11.915,0,0,1,1.506-4.251,36.154,36.154,0,0,0,4.1-17.149V11.145A6.053,6.053,0,0,0,121.543,5.1Zm2.875,32.414c0,12.563-5.608,16.687-5.608,21.4v.858a2.7,2.7,0,0,1-2.7,2.7h-14.2a2.7,2.7,0,0,1-2.7-2.7V58.714c0-7.021-4.311-7.515-12.316-30.383-1.134-3,.24-4.305,1.994-4.305a4.551,4.551,0,0,1,3.936,2.467c1.739,4.1,2.367,6.344,2.7,6.344.141,0,.229-.4.328-1.22-.008-.443.012-20.414.012-20.414a2.874,2.874,0,0,1,5.748,0V22.8a11.643,11.643,0,0,1,1.851-.151V6.042a2.873,2.873,0,0,1,5.746,0V23.354q.921.18,1.851.385V7.079a2.875,2.875,0,0,1,5.75,0V24.934c.653.134,1.272.268,1.854.409v-14.2a2.874,2.874,0,1,1,5.748,0Z" transform="translate(0 0)" fill="#fff"/>
  </g>
</svg>
