<svg xmlns="http://www.w3.org/2000/svg" width="78" height="59.104" viewBox="0 0 78 59.104">
  <path id="パス_251" data-name="パス 251" d="M74.945,79.566l-10.813,9.42-.045.948a7.671,7.671,0,0,1-.513,2.084c-.167.413-.357.825-.557,1.238L50.755,82.676a2.243,2.243,0,0,0-1.739-.524,77.413,77.413,0,0,0-18.07,4.927,5.293,5.293,0,0,1-2.007.491,1.662,1.662,0,0,1-.747-.145,1.22,1.22,0,0,1-.579-.6,2.77,2.77,0,0,1-.279-1.261,3.038,3.038,0,0,1,.524-1.739c.346-.446.77-1.059,1.349-1.851A45.629,45.629,0,0,1,32.663,77.8,22.519,22.519,0,0,1,37.4,73.892a11.611,11.611,0,0,1,6.142-1.706,23.215,23.215,0,0,1,3.333.3,21.939,21.939,0,0,0,3.232.357,5.824,5.824,0,0,0,2.263-.4h.011a19.8,19.8,0,0,0,3.646-2.163,61,61,0,0,0,4.949-4.1c.268-.234.513-.468.736-.68L58.67,62.255c-.67.624-1.539,1.4-2.476,2.2-.958.825-2,1.661-2.976,2.352a13.941,13.941,0,0,1-2.553,1.515,1.467,1.467,0,0,1-.557.067,19.99,19.99,0,0,1-2.575-.3,26.587,26.587,0,0,0-3.991-.357,15.8,15.8,0,0,0-4.314.58,16.114,16.114,0,0,0-4.314-.58,26.41,26.41,0,0,0-3.98.357,19.929,19.929,0,0,1-2.585.3,1.44,1.44,0,0,1-.547-.067,14.574,14.574,0,0,1-2.742-1.649,54.313,54.313,0,0,1-4.57-3.791c-.346-.312-.659-.6-.937-.858L16.5,65.264c.658.614,1.515,1.405,2.474,2.241,1.07.913,2.263,1.894,3.467,2.775a19.775,19.775,0,0,0,3.645,2.163,5.863,5.863,0,0,0,2.263.4,20.578,20.578,0,0,0,3.244-.357c.077-.011.145-.011.211-.023A35.554,35.554,0,0,0,27.936,76.4c-.925,1.081-1.695,2.1-2.319,2.932-.6.825-1.07,1.494-1.282,1.761a7.327,7.327,0,0,0-1.46,4.47,6.971,6.971,0,0,0,1.415,4.3,5.566,5.566,0,0,0,1.974,1.583,6.3,6.3,0,0,0,2.675.58,9.593,9.593,0,0,0,3.746-.848,69.76,69.76,0,0,1,11.582-3.623c1.606-.356,2.944-.6,3.88-.758.179-.034.323-.055.468-.078L62.627,98.8v.012h.011a.9.9,0,0,1-.123.356,3.05,3.05,0,0,1-2.53,1.472,3.006,3.006,0,0,0-.546.066,5.054,5.054,0,0,1-.947-.29,9.633,9.633,0,0,1-2.508-1.5,9.035,9.035,0,0,1-.747-.658l-.189-.179L55,98.027v-.011a1.7,1.7,0,0,0-1.238-.536,1.666,1.666,0,0,0-1.226,2.8,13.416,13.416,0,0,0,2.273,1.929,12.715,12.715,0,0,0,2.465,1.326c.211.078.445.168.679.234a2.345,2.345,0,0,0,.245.424H58.19l.011.012a1.714,1.714,0,0,1,.089.658,3.46,3.46,0,0,1-.535,1.861,1.386,1.386,0,0,1-.468.457,1.273,1.273,0,0,1-.625.156h-.111a.491.491,0,0,0-.179.011h-.011a6.9,6.9,0,0,1-3.79-1.3,9.63,9.63,0,0,1-1.17-.925,3.17,3.17,0,0,1-.29-.29l-.067-.066-.011-.012v-.011a1.671,1.671,0,0,0-2.519,2.2,11.455,11.455,0,0,0,2.174,1.872A11.031,11.031,0,0,0,54.1,110.39a.49.49,0,0,0-.045.111,2.394,2.394,0,0,1-1.115,1.2,5.378,5.378,0,0,1-1.025.48,1.663,1.663,0,0,1-.524.077,5.781,5.781,0,0,1-1.081-.156,2.628,2.628,0,0,0-.3-.034.684.684,0,0,1-.111-.045,10.551,10.551,0,0,1-1.729-1.137c-.245-.189-.456-.379-.6-.5l-.167-.156-.034-.034h-.011a1.668,1.668,0,1,0-2.308,2.408,15.811,15.811,0,0,0,1.728,1.415c.168.134.368.257.557.379a2.982,2.982,0,0,1-.836.925,2.544,2.544,0,0,1-1.549.457,4.92,4.92,0,0,1-1.872-.413,7.12,7.12,0,0,1-.647-.334,5.844,5.844,0,0,0,.19-1.449,5.543,5.543,0,0,0-5.084-5.54c0-.057.012-.123.012-.179a6.215,6.215,0,0,0-.914-3.233,6.1,6.1,0,0,0-5.172-2.887h-.034c-.089,0-.168.011-.245.011a5.968,5.968,0,0,0-.87-2.508,6.106,6.106,0,0,0-4.1-2.787,6.2,6.2,0,0,0-.914-3.166,6.128,6.128,0,0,0-8.439-1.962l-2.14,1.326c-.055-.111-.122-.234-.167-.345a7.444,7.444,0,0,1-.636-2.385l-.045-.948L3.054,79.566,0,82.81l9.577,8.35a13.156,13.156,0,0,0,.847,2.853c.234.58.5,1.127.769,1.64a6.088,6.088,0,0,0,4.125,9.174,6.117,6.117,0,0,0,6.12,6.065,1.691,1.691,0,0,0,.234-.023,6.245,6.245,0,0,0,.881,2.519,6.13,6.13,0,0,0,5.206,2.888,5.6,5.6,0,0,0,.6-.045,5.68,5.68,0,0,0,.791,2.262,5.586,5.586,0,0,0,7.68,1.8l2.787-1.728a9.854,9.854,0,0,0,1.729.914,9.152,9.152,0,0,0,3.6.769,7.029,7.029,0,0,0,4.114-1.26,7.561,7.561,0,0,0,2.073-2.274c.089,0,.168.011.257.011a6.071,6.071,0,0,0,1.839-.279,9.525,9.525,0,0,0,1.918-.858,7.019,7.019,0,0,0,3.021-3.355c.1-.257.179-.491.245-.714a5.307,5.307,0,0,0,1.093-.468,6.274,6.274,0,0,0,2.53-2.865,8.1,8.1,0,0,0,.713-3.321,3.182,3.182,0,0,0-.022-.323,7.5,7.5,0,0,0,2.151-1.327,6.9,6.9,0,0,0,1.561-1.939,5.262,5.262,0,0,0,.658-2.486,4.423,4.423,0,0,0-.39-1.817,3.049,3.049,0,0,0-.323-.536,20.794,20.794,0,0,0,1.349-2.82,12.9,12.9,0,0,0,.691-2.442L78,82.81ZM17.4,100.167l-.1.066a1.7,1.7,0,0,1-.881.246A1.643,1.643,0,0,1,15,99.7a1.621,1.621,0,0,1-.256-.881A1.692,1.692,0,0,1,15.54,97.4l3.668-2.285a1.731,1.731,0,0,1,.881-.245,1.65,1.65,0,0,1,1.415.781l1.9-1.171-1.9,1.182a1.575,1.575,0,0,1,.257.87,1.716,1.716,0,0,1-.4,1.07L18.2,99.565A6.059,6.059,0,0,0,17.4,100.167Zm4.916,6.008a1.613,1.613,0,0,1-.881.257,1.653,1.653,0,0,1-1.416-.791,1.586,1.586,0,0,1-.256-.87,1.714,1.714,0,0,1,.4-1.07l3.154-1.962a6.219,6.219,0,0,0,.792-.6l.111-.067a1.635,1.635,0,0,1,.881-.256,1.661,1.661,0,0,1,1.415.791,1.576,1.576,0,0,1,.257.87,1.694,1.694,0,0,1-.791,1.426Zm9.988,3.11-3.678,2.285a1.669,1.669,0,0,1-2.285-.535,1.654,1.654,0,0,1,.535-2.3l3.668-2.285a1.7,1.7,0,0,1,.881-.245,1.654,1.654,0,0,1,1.415.781,1.7,1.7,0,0,1,.246.881A1.654,1.654,0,0,1,32.306,109.285Zm5.329,5.25L34.48,116.5a1.033,1.033,0,0,1-.591.168,1.1,1.1,0,0,1-.947-.524,1.124,1.124,0,0,1-.168-.591,1.083,1.083,0,0,1,.524-.936V114.6l3.155-1.963a1.2,1.2,0,0,1,.591-.167,1.126,1.126,0,0,1,.947.535,1.023,1.023,0,0,1,.168.58A1.091,1.091,0,0,1,37.635,114.536Z" transform="translate(0 -62.021)" fill="#fff"/>
</svg>
