<svg xmlns="http://www.w3.org/2000/svg" width="48.406" height="49.781" viewBox="0 0 48.406 49.781">
  <g id="カレンダーのフリーアイコン2" transform="translate(-7.073)">
    <path id="パス_197" data-name="パス 197" d="M123.037,10.066a2.817,2.817,0,0,0,2.816-2.817V2.816a2.817,2.817,0,0,0-5.633,0V7.249A2.817,2.817,0,0,0,123.037,10.066Z" transform="translate(-102.146)" fill="#fff"/>
    <path id="パス_198" data-name="パス 198" d="M336.66,10.066a2.817,2.817,0,0,0,2.816-2.817V2.816a2.816,2.816,0,0,0-5.633,0V7.249A2.817,2.817,0,0,0,336.66,10.066Z" transform="translate(-294.999)" fill="#fff"/>
    <path id="パス_199" data-name="パス 199" d="M48.7,41.287H46.953v3.234a5.292,5.292,0,1,1-10.584,0V41.287H26.182v3.234a5.292,5.292,0,1,1-10.584,0V41.287H13.856A6.783,6.783,0,0,0,7.073,48.07v32.2a6.783,6.783,0,0,0,6.783,6.783H48.7a6.783,6.783,0,0,0,6.783-6.783V48.07A6.783,6.783,0,0,0,48.7,41.287ZM50.14,79.08A3.147,3.147,0,0,1,47,82.223H15.555a3.147,3.147,0,0,1-3.143-3.143V53.887H50.14V79.08Z" transform="translate(0 -37.273)" fill="#fff"/>
    <rect id="長方形_66" data-name="長方形 66" width="4.977" height="4.977" transform="translate(24.93 36.146)" fill="#fff"/>
    <rect id="長方形_67" data-name="長方形 67" width="4.977" height="4.977" transform="translate(24.93 28.431)" fill="#fff"/>
    <rect id="長方形_68" data-name="長方形 68" width="4.977" height="4.977" transform="translate(17.215 36.146)" fill="#fff"/>
    <rect id="長方形_69" data-name="長方形 69" width="4.977" height="4.977" transform="translate(17.215 28.431)" fill="#fff"/>
    <rect id="長方形_70" data-name="長方形 70" width="4.977" height="4.977" transform="translate(40.359 20.716)" fill="#fff"/>
    <rect id="長方形_71" data-name="長方形 71" width="4.978" height="4.977" transform="translate(32.645 20.716)" fill="#fff"/>
    <rect id="長方形_72" data-name="長方形 72" width="4.978" height="4.977" transform="translate(32.645 28.431)" fill="#fff"/>
    <rect id="長方形_73" data-name="長方形 73" width="4.977" height="4.977" transform="translate(40.359 36.146)" fill="#fff"/>
    <rect id="長方形_74" data-name="長方形 74" width="4.977" height="4.977" transform="translate(40.359 28.431)" fill="#fff"/>
    <rect id="長方形_75" data-name="長方形 75" width="4.978" height="4.977" transform="translate(32.645 36.146)" fill="#fff"/>
    <rect id="長方形_76" data-name="長方形 76" width="4.977" height="4.977" transform="translate(24.93 20.716)" fill="#fff"/>
    <rect id="長方形_77" data-name="長方形 77" width="4.977" height="4.977" transform="translate(17.215 20.716)" fill="#fff"/>
  </g>
</svg>
