<svg xmlns="http://www.w3.org/2000/svg" width="32.978" height="59.641" viewBox="0 0 32.978 59.641">
  <g id="耳アイコン2" transform="translate(-114.449 0)">
    <path id="パス_249" data-name="パス 249" d="M143.739,52.5l-.1-.011a1.794,1.794,0,0,1-.37.694,6.631,6.631,0,0,1-2.292,1.794,8.291,8.291,0,0,1-3.685.871,9.009,9.009,0,0,1-5.207-1.744,11.06,11.06,0,0,1-3.33-3.25,10.231,10.231,0,0,1-1.072-2.621c-.448-1.565-.831-3.63-1.666-6.328A55.214,55.214,0,0,0,121.607,31.7a28.714,28.714,0,0,1-3.367-12.988,17.666,17.666,0,0,1,.861-5.647,12.491,12.491,0,0,1,2.838-4.733,14.027,14.027,0,0,1,10.214-4.537,13.3,13.3,0,0,1,6.828,1.868,10.039,10.039,0,0,1,4.17,4.61l3.5-1.459a13.809,13.809,0,0,0-5.712-6.4A17.1,17.1,0,0,0,132.152,0,17.835,17.835,0,0,0,119.21,5.7a16.281,16.281,0,0,0-3.7,6.149,21.4,21.4,0,0,0-1.061,6.862,32.415,32.415,0,0,0,3.828,14.8,52.822,52.822,0,0,1,3.845,8.674c.578,1.744.946,3.215,1.27,4.553a22.742,22.742,0,0,0,1.8,5.519,11.569,11.569,0,0,0,1.846,2.548,18.449,18.449,0,0,0,2.884,2.419,12.815,12.815,0,0,0,7.373,2.423,12.042,12.042,0,0,0,6.971-2.228,9.263,9.263,0,0,0,2.192-2.163,4.883,4.883,0,0,0,.975-2.748h-3.687Z" transform="translate(0 0)" fill="#fff"/>
    <path id="パス_250" data-name="パス 250" d="M223.482,126.217a4.953,4.953,0,0,0-3.075,1.95,6.533,6.533,0,0,0-1.187,3.933,10.3,10.3,0,0,0,.368,2.644,8.17,8.17,0,0,0,2.152,3.859,5.1,5.1,0,0,0,3.521,1.479,5.4,5.4,0,0,0,3.763-1.645,5.5,5.5,0,0,0,1.415-2.528,11.629,11.629,0,0,0,.355-3.07,36.819,36.819,0,0,0-.616-5.92c-.35-2.082-.784-4.231-1.14-6.279a17.906,17.906,0,0,0-2.256-6.532,7.764,7.764,0,0,0-2.446-2.466,6.837,6.837,0,0,0-3.626-.982c-.1,0-.209,0-.314.006a5.764,5.764,0,0,0-4.063,1.694,6.511,6.511,0,0,0-1.657,3.669,1.3,1.3,0,0,0,2.569.358h0a3.941,3.941,0,0,1,.959-2.229,3.157,3.157,0,0,1,2.29-.9l.216,0a4.22,4.22,0,0,1,2.272.6,6.17,6.17,0,0,1,2.258,2.847,18.682,18.682,0,0,1,1.243,4.381c.334,1.92.72,3.871,1.042,5.741a6.019,6.019,0,0,0-2.858-.719A6.311,6.311,0,0,0,223.482,126.217Zm4.685,5.96c0,.02.008.039.012.059.007.2.02.411.02.6a9.076,9.076,0,0,1-.262,2.381,2.925,2.925,0,0,1-.723,1.358,2.815,2.815,0,0,1-1.954.91,2.5,2.5,0,0,1-1.733-.764,5.611,5.611,0,0,1-1.434-2.649,7.739,7.739,0,0,1-.28-1.975,3.954,3.954,0,0,1,.679-2.391,2.353,2.353,0,0,1,1.473-.943,3.736,3.736,0,0,1,.7-.067,3.365,3.365,0,0,1,2.278.86A3.99,3.99,0,0,1,228.167,132.177Z" transform="translate(-86.673 -96.441)" fill="#fff"/>
  </g>
</svg>
