<svg xmlns="http://www.w3.org/2000/svg" width="59.116" height="65.635" viewBox="0 0 59.116 65.635">
  <g id="アンケートシートのフリー素材" transform="translate(-25.43)">
    <path id="パス_201" data-name="パス 201" d="M129.718,15.7h16.029a4.453,4.453,0,0,0,4.447-4.447V7.815a4.453,4.453,0,0,0-4.447-4.447h-3.512a4.694,4.694,0,0,0-9.006,0h-3.511a4.453,4.453,0,0,0-4.447,4.447v3.442A4.453,4.453,0,0,0,129.718,15.7Zm8.015-12.684a1.695,1.695,0,1,1-1.7,1.693A1.7,1.7,0,0,1,137.734,3.021Z" transform="translate(-87.042)" fill="#fff"/>
    <path id="パス_202" data-name="パス 202" d="M117.228,167.232l4.059-4.06-1.475-1.475-4.06,4.059-2.582-2.583-1.476,1.476,4.059,4.059Z" transform="translate(-75.205 -140.968)" fill="#fff"/>
    <path id="パス_203" data-name="パス 203" d="M117.228,249.993l4.059-4.06-1.475-1.475-4.06,4.059-2.582-2.583-1.476,1.476,4.059,4.059Z" transform="translate(-75.205 -213.12)" fill="#fff"/>
    <path id="パス_204" data-name="パス 204" d="M121.286,328.7l-1.475-1.475-4.06,4.058-2.582-2.583-1.476,1.476,4.059,4.059Z" transform="translate(-75.205 -285.272)" fill="#fff"/>
    <path id="パス_205" data-name="パス 205" d="M425.2,187.325l-1.939-1.937a3.01,3.01,0,0,0-4.259,0l-1.814,1.815,6.2,6.2,1.815-1.814A3.015,3.015,0,0,0,425.2,187.325Z" transform="translate(-341.539 -160.853)" fill="#fff"/>
    <path id="パス_206" data-name="パス 206" d="M284.6,234.04v6.2h6.2L306.1,224.932l-6.2-6.2Z" transform="translate(-225.943 -190.693)" fill="#fff"/>
    <path id="パス_207" data-name="パス 207" d="M340.871,61.21h3.886a.135.135,0,0,1,.135.135V75.639l6.063-6.063V61.583a6.746,6.746,0,0,0-6.738-6.739h-3.071a7.489,7.489,0,0,1,.042.785V59.07A7.445,7.445,0,0,1,340.871,61.21Z" transform="translate(-275.003 -47.813)" fill="#fff"/>
    <path id="パス_208" data-name="パス 208" d="M69.889,95.842v9.793a.135.135,0,0,1-.135.135H31.628a.135.135,0,0,1-.135-.135V61.345a.135.135,0,0,1,.135-.135h3.886a7.445,7.445,0,0,1-.316-2.14V55.628a7.521,7.521,0,0,1,.042-.785H32.169a6.746,6.746,0,0,0-6.739,6.739V106.71a6.746,6.746,0,0,0,6.739,6.738H69.213a6.746,6.746,0,0,0,6.738-6.738V90.544l-5.3,5.3h-.765Z" transform="translate(0 -47.812)" fill="#fff"/>
  </g>
</svg>
