<svg xmlns="http://www.w3.org/2000/svg" width="55.553" height="52.541" viewBox="0 0 55.553 52.541">
  <g id="吹き出しのアイコン15" transform="translate(0 -13.88)">
    <path id="パス_245" data-name="パス 245" d="M48.017,20.4C43.151,16.282,36.2,13.878,27.689,13.88c-8.071,0-14.963,2.276-19.892,6.338a21.294,21.294,0,0,0-5.757,7.316A21.531,21.531,0,0,0,0,36.833,23.479,23.479,0,0,0,2.551,47.854a21.338,21.338,0,0,0,7.129,7.823c-.729,3.067-1.753,7.451-1.753,7.453a2.53,2.53,0,0,0-.069.61,2.679,2.679,0,0,0,1.049,2.128l0,0h0a2.686,2.686,0,0,0,2.9.231l.039-.02.039-.023,1.4-.827c1.265-.749,3.194-1.889,4.914-2.9.859-.506,1.667-.981,2.312-1.357s1.137-.662,1.32-.763l.008-.005.012-.007a11.33,11.33,0,0,1,5.843-1.6c6.369-.009,13.152-1.244,18.568-4.624a19.567,19.567,0,0,0,6.706-6.842A20.693,20.693,0,0,0,55.553,36.7,21,21,0,0,0,48.017,20.4Zm1.32,24.662a14.8,14.8,0,0,1-3.714,4.262,22.591,22.591,0,0,1-8.19,3.9,38.09,38.09,0,0,1-9.744,1.2A15.551,15.551,0,0,0,19.8,56.558h0c-.341.19-1.1.632-2.1,1.217-1.435.842-3.322,1.955-4.9,2.888.384-1.638.831-3.535,1.163-4.927v0a3.288,3.288,0,0,0,.1-.771,2.6,2.6,0,0,0-.922-2.021,3.421,3.421,0,0,0-.645-.423l-.127-.064-.014-.008a17.248,17.248,0,0,1-6.1-6.531A19.292,19.292,0,0,1,4.18,36.833a17.339,17.339,0,0,1,1.637-7.507A18.052,18.052,0,0,1,13.822,21.2a29.315,29.315,0,0,1,13.867-3.14c7.735,0,13.664,2.173,17.627,5.528A16.789,16.789,0,0,1,51.374,36.7,16.512,16.512,0,0,1,49.337,45.059Z" transform="translate(0 0)" fill="#fff"/>
    <path id="パス_246" data-name="パス 246" d="M108.781,197.171a3.2,3.2,0,1,0,3.2,3.2A3.2,3.2,0,0,0,108.781,197.171Z" transform="translate(-94.127 -163.403)" fill="#fff"/>
    <path id="パス_247" data-name="パス 247" d="M223.748,197.171a3.2,3.2,0,1,0,3.2,3.2A3.2,3.2,0,0,0,223.748,197.171Z" transform="translate(-196.62 -163.403)" fill="#fff"/>
    <path id="パス_248" data-name="パス 248" d="M338.717,197.171a3.2,3.2,0,1,0,3.2,3.2A3.2,3.2,0,0,0,338.717,197.171Z" transform="translate(-299.113 -163.403)" fill="#fff"/>
  </g>
</svg>
