<svg xmlns="http://www.w3.org/2000/svg" width="55.529" height="76.596" viewBox="0 0 55.529 76.596">
  <g id="火の玉のアイコン素材" transform="translate(-70.41 0.002)">
    <path id="パス_305" data-name="パス 305" d="M109.568,15.646A21.818,21.818,0,0,1,101.59,3.683C100.966,1.072,101.3.791,101.3.791a.88.88,0,0,0-.51-.711.874.874,0,0,0-.867.072,6.493,6.493,0,0,0-2.639,1.8c-3.721,3.614-7.933,9.645-5.157,17.889,2.976,8.845,1.4,10.7-.157,10.575-2.022-.154-2.335-1.4-2.01-5.276.376-4.53-3.733-8.4-3.733-8.4S79.842,26.9,74.863,34.157a26.61,26.61,0,0,0-4.355,14.722h-.1a27.714,27.714,0,1,0,55.427,0C126.889,35.587,119.671,23.727,109.568,15.646Zm-11.4,53.143A15.287,15.287,0,0,1,85.061,45.641a10.374,10.374,0,1,0,19.906-5.832,15.287,15.287,0,0,1-6.8,28.981Z" transform="translate(0)" fill="#037cb2"/>
  </g>
</svg>
