<svg xmlns="http://www.w3.org/2000/svg" width="70.456" height="104.449" viewBox="0 0 70.456 104.449">
  <g id="挙手アイコン" transform="translate(-83.314)">
    <path id="パス_209" data-name="パス 209" d="M144.15,8.113a9.548,9.548,0,0,0-2.867.438A9.618,9.618,0,0,0,127.011,3.08,9.614,9.614,0,0,0,110.4,8.556a9.618,9.618,0,0,0-12.15,9.271c0,2.539-.011,9.936-.015,17.042a11.99,11.99,0,0,0-6.044-1.68h0a8.726,8.726,0,0,0-7.349,3.639c-1.274,1.842-2.4,5.064-.567,9.976,6.7,19.141,11.818,28.627,15.2,34.907,2.979,5.527,4.094,7.6,4.094,11.723v1.68a9.346,9.346,0,0,0,9.335,9.335h22.6a9.346,9.346,0,0,0,9.335-9.335V93.749c0-1.712,1.058-3.943,2.4-6.765,2.754-5.8,6.527-13.754,6.527-27.289V17.736A9.633,9.633,0,0,0,144.15,8.113Zm4.576,51.582c0,19.992-8.924,26.555-8.924,34.054v1.365a4.292,4.292,0,0,1-4.289,4.291h-22.6a4.293,4.293,0,0,1-4.291-4.291v-1.68c0-11.173-6.861-11.959-19.6-48.35-1.8-4.779.382-6.851,3.173-6.851a7.243,7.243,0,0,1,6.264,3.926c2.767,6.529,3.766,10.1,4.3,10.1.224,0,.365-.632.521-1.941-.012-.7.02-32.486.02-32.486a4.573,4.573,0,0,1,9.147,0V36.289a18.528,18.528,0,0,1,2.945-.239V9.615a4.572,4.572,0,0,1,9.144,0v27.55q1.466.286,2.945.612V11.265a4.575,4.575,0,0,1,9.15,0V39.678c1.039.214,2.024.427,2.95.651V17.736a4.574,4.574,0,1,1,9.147,0Z" transform="translate(0 0)" fill="#037cb2"/>
  </g>
</svg>
