<svg xmlns="http://www.w3.org/2000/svg" xmlns:xlink="http://www.w3.org/1999/xlink" width="60" height="60" viewBox="0 0 60 60">
  <defs>
    <clipPath id="clip-path">
      <rect id="長方形_91" data-name="長方形 91" width="60" height="60" transform="translate(0 0.043)" fill="#037cb2"/>
    </clipPath>
  </defs>
  <g id="グループ_88" data-name="グループ 88" transform="translate(0.087 0.045)">
    <g id="グループ_87" data-name="グループ 87" transform="translate(-0.087 -0.088)" clip-path="url(#clip-path)">
      <path id="パス_226" data-name="パス 226" d="M29.919,59.841A29.921,29.921,0,0,1,29.919,0a1.1,1.1,0,1,1,0,2.2A27.723,27.723,0,1,0,57.641,29.922a1.1,1.1,0,0,1,2.2,0A29.953,29.953,0,0,1,29.919,59.841" transform="translate(0.101 0.102)" fill="#037cb2"/>
      <path id="パス_227" data-name="パス 227" d="M18.883,33.377a2.5,2.5,0,0,1-1.774-.734l-7.7-7.706a2.508,2.508,0,0,1,3.545-3.547l5.932,5.932,22.8-22.8a2.507,2.507,0,0,1,3.545,3.545L20.657,32.643a2.5,2.5,0,0,1-1.774.734" transform="translate(10.487 4.64)" fill="#037cb2"/>
    </g>
  </g>
</svg>
