<svg xmlns="http://www.w3.org/2000/svg" width="83.055" height="83.114" viewBox="0 0 83.055 83.114">
  <g id="求人アイコン2" transform="translate(-0.182 0)">
    <path id="パス_306" data-name="パス 306" d="M146.461,301.823l-7.166,9.909-.507-6.493h-3.812l-.507,6.49-7.168-9.906a8.276,8.276,0,0,1-1.236.582,30.668,30.668,0,0,0-7.767,3.909q.635.753,1.344,1.458a24.223,24.223,0,0,0,14.587,6.985,23.687,23.687,0,0,0,2.534.145c.08,0,.158,0,.239,0a23.567,23.567,0,0,0,2.527-.145,24.228,24.228,0,0,0,14.537-6.981c.473-.47.925-.96,1.348-1.462A32.713,32.713,0,0,0,147.7,302.4,9.331,9.331,0,0,1,146.461,301.823Z" transform="translate(-98.942 -252.827)" fill="#037cb2"/>
    <path id="パス_307" data-name="パス 307" d="M165.185,107.29c.52,2.955,1.4,5.562,2.552,6.846V117.7a1.1,1.1,0,0,1-.042.282l4.047,1.948v2.858h3.808V119.93l4.044-1.947a1.107,1.107,0,0,1-.042-.284v-3.563c1.156-1.284,2.031-3.89,2.554-6.846,1.215-.435,1.91-1.13,2.779-4.172.924-3.239-1.389-3.128-1.389-3.128,1.871-6.2-.594-12.017-4.718-11.59-2.846-4.977-12.377,1.138-15.365.712a6.754,6.754,0,0,0,.711,2.988c-1.038,1.971-.639,5.9-.345,7.89-.169,0-2.263.018-1.374,3.128C163.272,106.16,163.967,106.855,165.185,107.29Z" transform="translate(-135.704 -72.406)" fill="#037cb2"/>
    <path id="パス_308" data-name="パス 308" d="M80.885,71.737,68.574,59.746a37.746,37.746,0,1,0-8.64,8.643L71.923,80.7c2.539,3.067,6.291,3.248,9.188.348S83.949,74.277,80.885,71.737Zm-22.268-13.3a29.278,29.278,0,1,1,0-41.406A29.283,29.283,0,0,1,58.617,58.436Z" fill="#037cb2"/>
  </g>
</svg>
