<svg xmlns="http://www.w3.org/2000/svg" width="53.77" height="49.743" viewBox="0 0 53.77 49.743">
  <g id="お店っぽい建物アイコン" transform="translate(0 -19.169)">
    <path id="パス_200" data-name="パス 200" d="M0,19.169V68.912H53.77V19.169ZM33.515,22.3h7v9.833a3.5,3.5,0,0,1-7,0Zm-10.128,0h7v9.833a3.5,3.5,0,0,1-7,0V22.3Zm-10.127,0h6.995v9.833a3.5,3.5,0,0,1-6.995,0V22.3Zm-10.128,0h7v9.833a3.5,3.5,0,0,1-7,0V22.3Zm47.5,43.479H35.6V55.648H18.173V65.78H3.132V37.758a6.607,6.607,0,0,0,8.562-1.35,6.62,6.62,0,0,0,10.127,0,6.621,6.621,0,0,0,10.128,0,6.621,6.621,0,0,0,10.128,0,6.606,6.606,0,0,0,8.561,1.35Zm0-33.646a3.5,3.5,0,0,1-6.995,0V22.3h6.995v9.833Z" fill="#fff"/>
    <rect id="長方形_78" data-name="長方形 78" width="5.221" height="6.118" transform="translate(11.224 42.884)" fill="#fff"/>
    <rect id="長方形_79" data-name="長方形 79" width="5.221" height="6.118" transform="translate(37.325 42.884)" fill="#fff"/>
    <rect id="長方形_80" data-name="長方形 80" width="5.221" height="6.118" transform="translate(24.274 42.884)" fill="#fff"/>
  </g>
</svg>
