<svg xmlns="http://www.w3.org/2000/svg" xmlns:xlink="http://www.w3.org/1999/xlink" width="39.255" height="19.666" viewBox="0 0 39.255 19.666">
  <defs>
    <clipPath id="clip-path">
      <rect id="長方形_23059" data-name="長方形 23059" width="25.393" height="6.058" fill="#037cb2"/>
    </clipPath>
  </defs>
  <g id="グループ_67" data-name="グループ 67" transform="translate(-851.291 -1383.999)">
    <path id="パス_181" data-name="パス 181" d="M36.546.831v18a.826.826,0,0,1-.832.832H33.622a.826.826,0,0,1-.832-.832V7.3q0-.349-.174-.429t-.416.161L30.509,8.638a.851.851,0,0,1-.59.215.714.714,0,0,1-.562-.242l-1.45-1.555A.809.809,0,0,1,27.935,5.9L33.567.563a1.885,1.885,0,0,1,.659-.4A2.116,2.116,0,0,1,34.989,0h.725a.8.8,0,0,1,.59.242.8.8,0,0,1,.242.59" transform="translate(854 1384)" fill="#037cb2"/>
    <g id="グループ_9029" data-name="グループ 9029" transform="translate(851.291 1391.492)">
      <g id="グループ_9019" data-name="グループ 9019" transform="translate(0 0)" clip-path="url(#clip-path)">
        <path id="パス_377" data-name="パス 377" d="M3.411.271a2.17,2.17,0,0,1,.654.447,1.618,1.618,0,0,1,.251.3,3.316,3.316,0,0,1,.195.351,2.123,2.123,0,0,1,.16.813,2.159,2.159,0,0,1-.144.8,1.788,1.788,0,0,1-.422.638,1.918,1.918,0,0,1-.7.431,2.88,2.88,0,0,1-.988.159H1.363a.24.24,0,0,0-.176.072.235.235,0,0,0-.071.175V5.7a.246.246,0,0,1-.068.175.224.224,0,0,1-.171.072H.247a.238.238,0,0,1-.176-.072A.237.237,0,0,1,0,5.7V.359A.239.239,0,0,1,.071.183.241.241,0,0,1,.247.112H2.6a2.133,2.133,0,0,1,.813.159M3.029,3.117a.8.8,0,0,0,.3-.223,1.033,1.033,0,0,0,.1-.156A.823.823,0,0,0,3.5,2.567a1.245,1.245,0,0,0-.016-.781.972.972,0,0,0-.207-.343A.953.953,0,0,0,2.941,1.2a1.025,1.025,0,0,0-.463-.1H1.363a.24.24,0,0,0-.176.072.237.237,0,0,0-.071.175v1.61a.237.237,0,0,0,.071.176.243.243,0,0,0,.176.071H2.6a1.015,1.015,0,0,0,.431-.087" transform="translate(0 0)" fill="#037cb2"/>
        <path id="パス_378" data-name="パス 378" d="M8.131,6.058a2.911,2.911,0,0,1-1.172-.239,3.056,3.056,0,0,1-1.61-1.61,2.935,2.935,0,0,1-.239-1.18,2.944,2.944,0,0,1,.239-1.176A3.046,3.046,0,0,1,6.959.239a3.012,3.012,0,0,1,2.352,0A3.048,3.048,0,0,1,10.92,1.853a2.927,2.927,0,0,1,.239,1.176,2.918,2.918,0,0,1-.239,1.18,3.059,3.059,0,0,1-1.609,1.61,2.938,2.938,0,0,1-1.18.239m0-5.014a1.715,1.715,0,0,0-.744.164,1.989,1.989,0,0,0-.6.434,2.092,2.092,0,0,0-.41.633,1.977,1.977,0,0,0,0,1.511,2.16,2.16,0,0,0,.41.634,1.968,1.968,0,0,0,.6.438,1.767,1.767,0,0,0,1.487,0,1.968,1.968,0,0,0,.6-.438,2.14,2.14,0,0,0,.41-.634,1.977,1.977,0,0,0,0-1.511,2.073,2.073,0,0,0-.41-.633,1.989,1.989,0,0,0-.6-.434,1.714,1.714,0,0,0-.743-.164" transform="translate(0 0)" fill="#037cb2"/>
        <path id="パス_379" data-name="パス 379" d="M13.176,5.946h-.63a.224.224,0,0,1-.171-.072.242.242,0,0,1-.068-.175V.366a.242.242,0,0,1,.068-.175.224.224,0,0,1,.171-.072h.63a.244.244,0,0,1,.247.247V5.7a.244.244,0,0,1-.247.247" transform="translate(-0.001 0)" fill="#037cb2"/>
        <path id="パス_380" data-name="パス 380" d="M15.974,2.726V5.7a.236.236,0,0,1-.072.175.239.239,0,0,1-.175.072H15.1a.232.232,0,0,1-.168-.072.235.235,0,0,1-.071-.175V.247a.114.114,0,0,1,.1-.124.192.192,0,0,1,.172.044l3.5,3.308c.053.048.1.064.131.048s.053-.058.053-.128V.367A.243.243,0,0,1,19.059.12h.621a.243.243,0,0,1,.247.247V5.81a.113.113,0,0,1-.1.124.207.207,0,0,1-.179-.043L16.157,2.638c-.053-.042-.1-.056-.131-.039s-.052.058-.052.127" transform="translate(-0.001 0)" fill="#037cb2"/>
        <path id="パス_381" data-name="パス 381" d="M25.147,1.1H23.975a.239.239,0,0,0-.175.072.236.236,0,0,0-.072.175V5.7a.235.235,0,0,1-.071.175.24.24,0,0,1-.176.072H22.86a.242.242,0,0,1-.176-.072.235.235,0,0,1-.071-.175V1.347a.244.244,0,0,0-.247-.247h-1.18a.24.24,0,0,1-.176-.072.237.237,0,0,1-.071-.175V.358A.237.237,0,0,1,21.01.183a.24.24,0,0,1,.176-.072h3.961a.24.24,0,0,1,.176.072.233.233,0,0,1,.071.175V.853a.233.233,0,0,1-.071.175.24.24,0,0,1-.176.072" transform="translate(-0.002 0)" fill="#037cb2"/>
      </g>
    </g>
  </g>
</svg>
