<svg xmlns="http://www.w3.org/2000/svg" xmlns:xlink="http://www.w3.org/1999/xlink" width="43.902" height="20.444" viewBox="0 0 43.902 20.444">
  <defs>
    <clipPath id="clip-path">
      <rect id="長方形_23059" data-name="長方形 23059" width="25.393" height="6.058" fill="#037cb2"/>
    </clipPath>
  </defs>
  <g id="グループ_69" data-name="グループ 69" transform="translate(-851.607 -1473.361)">
    <path id="パス_191" data-name="パス 191" d="M38.88,99.771c.09.053.18.1.268.147s.179.094.269.148a4.81,4.81,0,0,1,1.047.831,4.167,4.167,0,0,1,.75,1.315,5.257,5.257,0,0,1,.295,1.9v.3a2.592,2.592,0,0,1-.025.349,7.457,7.457,0,0,1-.163.859,3.776,3.776,0,0,1-.146.456c-.065.16-.131.321-.2.483q-.135.24-.27.483a2.79,2.79,0,0,1-.347.482,5.093,5.093,0,0,1-1.262,1.127,6.4,6.4,0,0,1-1.477.7,6.142,6.142,0,0,1-1.527.348c-.252.036-.492.063-.725.081s-.466.027-.7.027a6.5,6.5,0,0,1-2.924-.591,6.107,6.107,0,0,1-1.984-1.422,6.875,6.875,0,0,1-.711-.885A9.7,9.7,0,0,1,28.5,106c-.072-.143-.138-.286-.2-.429s-.121-.286-.174-.429a.677.677,0,0,1,.028-.617.822.822,0,0,1,.509-.4l2.012-.563a.741.741,0,0,1,.59.027.651.651,0,0,1,.349.429c.053.161.106.318.161.469a2.54,2.54,0,0,0,.267.523,3.342,3.342,0,0,0,.94,1.02,2.936,2.936,0,0,0,1.689.456,3.4,3.4,0,0,0,2.336-.7,2.279,2.279,0,0,0,.75-1.69,3.481,3.481,0,0,0-.322-1.61,1.984,1.984,0,0,0-.938-.965,4.41,4.41,0,0,0-1.529-.483,4.465,4.465,0,0,0-.617-.067q-.323-.013-.7-.041a1.025,1.025,0,0,1-.592-.3.8.8,0,0,1-.24-.59V98.805a.854.854,0,0,1,.24-.6.891.891,0,0,1,.592-.282c.23-.017.451-.03.656-.04a4.431,4.431,0,0,0,.6-.066,5.228,5.228,0,0,0,1.557-.376,2.223,2.223,0,0,0,.965-.859,3.079,3.079,0,0,0,.322-1.529A2.141,2.141,0,0,0,37,93.386a3.4,3.4,0,0,0-2.336-.7,2.936,2.936,0,0,0-1.689.456,3.342,3.342,0,0,0-.94,1.02,3.186,3.186,0,0,0-.4.831.868.868,0,0,1-.375.537.678.678,0,0,1-.59.053L28.659,95a.731.731,0,0,1-.509-.375A.679.679,0,0,1,28.122,94c.053-.142.112-.285.174-.429s.129-.285.2-.429a9.83,9.83,0,0,1,.551-.912,6.944,6.944,0,0,1,.711-.885,4.919,4.919,0,0,1,.871-.779,7.837,7.837,0,0,1,1.113-.643,6.873,6.873,0,0,1,2.924-.564,8.576,8.576,0,0,1,3.193.51,6.153,6.153,0,0,1,2.12,1.341,5.485,5.485,0,0,1,1.181,1.825,5.869,5.869,0,0,1,.348,2.012,5.189,5.189,0,0,1-.268,1.824,3.232,3.232,0,0,1-.336.685,6.808,6.808,0,0,1-.416.576,4.073,4.073,0,0,1-1.045.859l-.269.161a1.861,1.861,0,0,1-.268.134c-.339.179-.349.34-.027.483" transform="translate(854 1384)" fill="#037cb2"/>
    <g id="グループ_9031" data-name="グループ 9031" transform="translate(851.607 1481.854)">
      <g id="グループ_9019" data-name="グループ 9019" transform="translate(0 0)" clip-path="url(#clip-path)">
        <path id="パス_377" data-name="パス 377" d="M3.411.271a2.17,2.17,0,0,1,.654.447,1.618,1.618,0,0,1,.251.3,3.316,3.316,0,0,1,.195.351,2.123,2.123,0,0,1,.16.813,2.159,2.159,0,0,1-.144.8,1.788,1.788,0,0,1-.422.638,1.918,1.918,0,0,1-.7.431,2.88,2.88,0,0,1-.988.159H1.363a.24.24,0,0,0-.176.072.235.235,0,0,0-.071.175V5.7a.246.246,0,0,1-.068.175.224.224,0,0,1-.171.072H.247a.238.238,0,0,1-.176-.072A.237.237,0,0,1,0,5.7V.359A.239.239,0,0,1,.071.183.241.241,0,0,1,.247.112H2.6a2.133,2.133,0,0,1,.813.159M3.029,3.117a.8.8,0,0,0,.3-.223,1.033,1.033,0,0,0,.1-.156A.823.823,0,0,0,3.5,2.567a1.245,1.245,0,0,0-.016-.781.972.972,0,0,0-.207-.343A.953.953,0,0,0,2.941,1.2a1.025,1.025,0,0,0-.463-.1H1.363a.24.24,0,0,0-.176.072.237.237,0,0,0-.071.175v1.61a.237.237,0,0,0,.071.176.243.243,0,0,0,.176.071H2.6a1.015,1.015,0,0,0,.431-.087" transform="translate(0 0)" fill="#037cb2"/>
        <path id="パス_378" data-name="パス 378" d="M8.131,6.058a2.911,2.911,0,0,1-1.172-.239,3.056,3.056,0,0,1-1.61-1.61,2.935,2.935,0,0,1-.239-1.18,2.944,2.944,0,0,1,.239-1.176A3.046,3.046,0,0,1,6.959.239a3.012,3.012,0,0,1,2.352,0A3.048,3.048,0,0,1,10.92,1.853a2.927,2.927,0,0,1,.239,1.176,2.918,2.918,0,0,1-.239,1.18,3.059,3.059,0,0,1-1.609,1.61,2.938,2.938,0,0,1-1.18.239m0-5.014a1.715,1.715,0,0,0-.744.164,1.989,1.989,0,0,0-.6.434,2.092,2.092,0,0,0-.41.633,1.977,1.977,0,0,0,0,1.511,2.16,2.16,0,0,0,.41.634,1.968,1.968,0,0,0,.6.438,1.767,1.767,0,0,0,1.487,0,1.968,1.968,0,0,0,.6-.438,2.14,2.14,0,0,0,.41-.634,1.977,1.977,0,0,0,0-1.511,2.073,2.073,0,0,0-.41-.633,1.989,1.989,0,0,0-.6-.434,1.714,1.714,0,0,0-.743-.164" transform="translate(0 0)" fill="#037cb2"/>
        <path id="パス_379" data-name="パス 379" d="M13.176,5.946h-.63a.224.224,0,0,1-.171-.072.242.242,0,0,1-.068-.175V.366a.242.242,0,0,1,.068-.175.224.224,0,0,1,.171-.072h.63a.244.244,0,0,1,.247.247V5.7a.244.244,0,0,1-.247.247" transform="translate(-0.001 0)" fill="#037cb2"/>
        <path id="パス_380" data-name="パス 380" d="M15.974,2.726V5.7a.236.236,0,0,1-.072.175.239.239,0,0,1-.175.072H15.1a.232.232,0,0,1-.168-.072.235.235,0,0,1-.071-.175V.247a.114.114,0,0,1,.1-.124.192.192,0,0,1,.172.044l3.5,3.308c.053.048.1.064.131.048s.053-.058.053-.128V.367A.243.243,0,0,1,19.059.12h.621a.243.243,0,0,1,.247.247V5.81a.113.113,0,0,1-.1.124.207.207,0,0,1-.179-.043L16.157,2.638c-.053-.042-.1-.056-.131-.039s-.052.058-.052.127" transform="translate(-0.001 0)" fill="#037cb2"/>
        <path id="パス_381" data-name="パス 381" d="M25.147,1.1H23.975a.239.239,0,0,0-.175.072.236.236,0,0,0-.072.175V5.7a.235.235,0,0,1-.071.175.24.24,0,0,1-.176.072H22.86a.242.242,0,0,1-.176-.072.235.235,0,0,1-.071-.175V1.347a.244.244,0,0,0-.247-.247h-1.18a.24.24,0,0,1-.176-.072.237.237,0,0,1-.071-.175V.358A.237.237,0,0,1,21.01.183a.24.24,0,0,1,.176-.072h3.961a.24.24,0,0,1,.176.072.233.233,0,0,1,.071.175V.853a.233.233,0,0,1-.071.175.24.24,0,0,1-.176.072" transform="translate(-0.002 0)" fill="#037cb2"/>
      </g>
    </g>
  </g>
</svg>
